%TF.GenerationSoftware,KiCad,Pcbnew,(6.0.8)*%
%TF.CreationDate,2022-12-03T20:58:23+01:00*%
%TF.ProjectId,f411,66343131-2e6b-4696-9361-645f70636258,V01*%
%TF.SameCoordinates,Original*%
%TF.FileFunction,Copper,L1,Top*%
%TF.FilePolarity,Positive*%
%FSLAX46Y46*%
G04 Gerber Fmt 4.6, Leading zero omitted, Abs format (unit mm)*
G04 Created by KiCad (PCBNEW (6.0.8)) date 2022-12-03 20:58:23*
%MOMM*%
%LPD*%
G01*
G04 APERTURE LIST*
%TA.AperFunction,ComponentPad*%
%ADD10C,1.700000*%
%TD*%
%TA.AperFunction,ComponentPad*%
%ADD11R,1.700000X1.700000*%
%TD*%
%TA.AperFunction,ComponentPad*%
%ADD12O,1.700000X1.700000*%
%TD*%
%TA.AperFunction,ComponentPad*%
%ADD13C,1.600000*%
%TD*%
%TA.AperFunction,ComponentPad*%
%ADD14O,1.600000X1.600000*%
%TD*%
%TA.AperFunction,ViaPad*%
%ADD15C,1.000000*%
%TD*%
%TA.AperFunction,Conductor*%
%ADD16C,0.700000*%
%TD*%
%TA.AperFunction,Conductor*%
%ADD17C,0.500000*%
%TD*%
%TA.AperFunction,Conductor*%
%ADD18C,0.300000*%
%TD*%
G04 APERTURE END LIST*
D10*
%TO.P,U1,40,5V*%
%TO.N,+5V*%
X148590000Y-124460000D03*
%TO.P,U1,39,GND*%
%TO.N,GND*%
X146050000Y-124460000D03*
%TO.P,U1,38,3V3*%
%TO.N,+3.3V*%
X143510000Y-124460000D03*
%TO.P,U1,37,PB10*%
%TO.N,unconnected-(U1-Pad37)*%
X140970000Y-124460000D03*
%TO.P,U1,36,PB2*%
%TO.N,unconnected-(U1-Pad36)*%
X138430000Y-124460000D03*
%TO.P,U1,35,PB1*%
%TO.N,Net-(U1-Pad35)*%
X135890000Y-124460000D03*
%TO.P,U1,34,PB0*%
%TO.N,Net-(U1-Pad34)*%
X133350000Y-124460000D03*
%TO.P,U1,33,PA7*%
%TO.N,Net-(U1-Pad33)*%
X130810000Y-124460000D03*
%TO.P,U1,32,PA6*%
%TO.N,Net-(U1-Pad32)*%
X128270000Y-124460000D03*
%TO.P,U1,31,PA5*%
%TO.N,Net-(U1-Pad31)*%
X125730000Y-124460000D03*
%TO.P,U1,30,PA4*%
%TO.N,unconnected-(U1-Pad30)*%
X123190000Y-124460000D03*
%TO.P,U1,29,PA3*%
%TO.N,Net-(J8-Pad2)*%
X120650000Y-124460000D03*
%TO.P,U1,28,PA2*%
%TO.N,Net-(J8-Pad3)*%
X118110000Y-124460000D03*
%TO.P,U1,27,PA1*%
%TO.N,Net-(J1-Pad3)*%
X115570000Y-124460000D03*
%TO.P,U1,26,PA0*%
%TO.N,Net-(J2-Pad3)*%
X113030000Y-124460000D03*
%TO.P,U1,25,RES*%
%TO.N,unconnected-(U1-Pad25)*%
X110490000Y-124460000D03*
%TO.P,U1,24,PC15*%
%TO.N,unconnected-(U1-Pad24)*%
X107950000Y-124460000D03*
%TO.P,U1,23,PC14*%
%TO.N,unconnected-(U1-Pad23)*%
X105410000Y-124460000D03*
%TO.P,U1,22,PC13*%
%TO.N,unconnected-(U1-Pad22)*%
X102870000Y-124460000D03*
%TO.P,U1,21,VBat*%
%TO.N,unconnected-(U1-Pad21)*%
X100330000Y-124460000D03*
%TO.P,U1,20,3V3*%
%TO.N,+3.3V*%
X100330000Y-109220000D03*
%TO.P,U1,19,GND*%
%TO.N,GND*%
X102870000Y-109220000D03*
%TO.P,U1,18,5V*%
%TO.N,+5V*%
X105410000Y-109220000D03*
%TO.P,U1,17,PB9*%
%TO.N,unconnected-(U1-Pad17)*%
X107950000Y-109220000D03*
%TO.P,U1,16,PB8*%
%TO.N,unconnected-(U1-Pad16)*%
X110490000Y-109220000D03*
%TO.P,U1,15,PB7*%
%TO.N,Net-(J10-Pad4)*%
X113030000Y-109220000D03*
%TO.P,U1,14,PB6*%
%TO.N,Net-(J10-Pad3)*%
X115570000Y-109220000D03*
%TO.P,U1,13,PB5*%
%TO.N,Net-(J14-Pad7)*%
X118110000Y-109220000D03*
%TO.P,U1,12,PB4*%
%TO.N,Net-(J14-Pad6)*%
X120650000Y-109220000D03*
%TO.P,U1,11,PB3*%
%TO.N,Net-(J14-Pad5)*%
X123190000Y-109220000D03*
%TO.P,U1,10,PA15*%
%TO.N,Net-(J14-Pad4)*%
X125730000Y-109220000D03*
%TO.P,U1,9,PA12*%
%TO.N,Net-(J14-Pad3)*%
X128270000Y-109220000D03*
%TO.P,U1,8,PA11*%
%TO.N,Net-(J9-Pad3)*%
X130810000Y-109220000D03*
%TO.P,U1,7,PA10*%
%TO.N,Net-(J4-Pad3)*%
X133350000Y-109220000D03*
%TO.P,U1,6,PA9*%
%TO.N,Net-(J4-Pad2)*%
X135890000Y-109220000D03*
%TO.P,U1,5,PA8*%
%TO.N,Net-(J3-Pad3)*%
X138430000Y-109220000D03*
%TO.P,U1,4,PB15*%
%TO.N,unconnected-(U1-Pad4)*%
X140970000Y-109220000D03*
%TO.P,U1,3,PB14*%
%TO.N,unconnected-(U1-Pad3)*%
X143510000Y-109220000D03*
%TO.P,U1,2,PB13*%
%TO.N,unconnected-(U1-Pad2)*%
X146050000Y-109220000D03*
D11*
%TO.P,U1,1,PB12*%
%TO.N,unconnected-(U1-Pad1)*%
X148590000Y-109220000D03*
%TD*%
%TO.P,J6,1,Pin_1*%
%TO.N,+3.3V*%
X134620000Y-140990000D03*
D12*
%TO.P,J6,2,Pin_2*%
%TO.N,GND*%
X134620000Y-138450000D03*
%TO.P,J6,3,Pin_3*%
%TO.N,Net-(U1-Pad35)*%
X132080000Y-140990000D03*
%TO.P,J6,4,Pin_4*%
%TO.N,Net-(U1-Pad34)*%
X132080000Y-138450000D03*
%TO.P,J6,5,Pin_5*%
%TO.N,Net-(U1-Pad33)*%
X129540000Y-140990000D03*
%TO.P,J6,6,Pin_6*%
%TO.N,Net-(U1-Pad31)*%
X129540000Y-138450000D03*
%TO.P,J6,7,Pin_7*%
%TO.N,unconnected-(J6-Pad7)*%
X127000000Y-140990000D03*
%TO.P,J6,8,Pin_8*%
%TO.N,Net-(U1-Pad32)*%
X127000000Y-138450000D03*
%TD*%
D11*
%TO.P,J13,1,Pin_1*%
%TO.N,Net-(J10-Pad4)*%
X157480000Y-81280000D03*
D12*
%TO.P,J13,2,Pin_2*%
%TO.N,Net-(J10-Pad3)*%
X154940000Y-81280000D03*
%TO.P,J13,3,Pin_3*%
%TO.N,GND*%
X152400000Y-81280000D03*
%TO.P,J13,4,Pin_4*%
%TO.N,+3.3V*%
X149860000Y-81280000D03*
%TD*%
D11*
%TO.P,J2,1,Pin_1*%
%TO.N,GND*%
X83820000Y-114300000D03*
D12*
%TO.P,J2,2,Pin_2*%
%TO.N,+5V*%
X83820000Y-116840000D03*
%TO.P,J2,3,Pin_3*%
%TO.N,Net-(J2-Pad3)*%
X83820000Y-119380000D03*
%TD*%
D11*
%TO.P,J5,1,Pin_1*%
%TO.N,GND*%
X83820000Y-104140000D03*
D12*
%TO.P,J5,2,Pin_2*%
%TO.N,+5V*%
X83820000Y-106680000D03*
%TD*%
D11*
%TO.P,J11,1,Pin_1*%
%TO.N,+3.3V*%
X111760000Y-78740000D03*
D12*
%TO.P,J11,2,Pin_2*%
%TO.N,GND*%
X111760000Y-81280000D03*
%TO.P,J11,3,Pin_3*%
%TO.N,Net-(J10-Pad3)*%
X111760000Y-83820000D03*
%TO.P,J11,4,Pin_4*%
%TO.N,Net-(J10-Pad4)*%
X111760000Y-86360000D03*
%TO.P,J11,5,Pin_5*%
%TO.N,unconnected-(J11-Pad5)*%
X111760000Y-88900000D03*
%TO.P,J11,6,Pin_6*%
%TO.N,unconnected-(J11-Pad6)*%
X111760000Y-91440000D03*
%TO.P,J11,7,Pin_7*%
%TO.N,unconnected-(J11-Pad7)*%
X111760000Y-93980000D03*
%TO.P,J11,8,Pin_8*%
%TO.N,unconnected-(J11-Pad8)*%
X111760000Y-96520000D03*
%TD*%
D11*
%TO.P,J12,1,Pin_1*%
%TO.N,+3.3V*%
X129540000Y-78740000D03*
D12*
%TO.P,J12,2,Pin_2*%
%TO.N,GND*%
X129540000Y-81280000D03*
%TO.P,J12,3,Pin_3*%
%TO.N,Net-(J10-Pad3)*%
X129540000Y-83820000D03*
%TO.P,J12,4,Pin_4*%
%TO.N,Net-(J10-Pad4)*%
X129540000Y-86360000D03*
%TO.P,J12,5,Pin_5*%
%TO.N,+3.3V*%
X129540000Y-88900000D03*
%TO.P,J12,6,Pin_6*%
%TO.N,GND*%
X129540000Y-91440000D03*
%TD*%
D11*
%TO.P,J10,1,Pin_1*%
%TO.N,+3.3V*%
X93980000Y-78740000D03*
D12*
%TO.P,J10,2,Pin_2*%
%TO.N,GND*%
X93980000Y-81280000D03*
%TO.P,J10,3,Pin_3*%
%TO.N,Net-(J10-Pad3)*%
X93980000Y-83820000D03*
%TO.P,J10,4,Pin_4*%
%TO.N,Net-(J10-Pad4)*%
X93980000Y-86360000D03*
%TO.P,J10,5,Pin_5*%
%TO.N,unconnected-(J10-Pad5)*%
X93980000Y-88900000D03*
%TD*%
D11*
%TO.P,J3,1,Pin_1*%
%TO.N,GND*%
X165100000Y-132080000D03*
D12*
%TO.P,J3,2,Pin_2*%
%TO.N,+5V*%
X165100000Y-129540000D03*
%TO.P,J3,3,Pin_3*%
%TO.N,Net-(J3-Pad3)*%
X165100000Y-127000000D03*
%TD*%
D11*
%TO.P,J4,1,Pin_1*%
%TO.N,unconnected-(J4-Pad1)*%
X161290000Y-96520000D03*
D12*
%TO.P,J4,2,Pin_2*%
%TO.N,Net-(J4-Pad2)*%
X158750000Y-96520000D03*
%TO.P,J4,3,Pin_3*%
%TO.N,Net-(J4-Pad3)*%
X156210000Y-96520000D03*
%TO.P,J4,4,Pin_4*%
%TO.N,unconnected-(J4-Pad4)*%
X153670000Y-96520000D03*
%TO.P,J4,5,Pin_5*%
%TO.N,unconnected-(J4-Pad5)*%
X151130000Y-96520000D03*
%TO.P,J4,6,Pin_6*%
%TO.N,GND*%
X148590000Y-96520000D03*
%TD*%
D11*
%TO.P,J8,1,Pin_1*%
%TO.N,GND*%
X102880000Y-139700000D03*
D12*
%TO.P,J8,2,Pin_2*%
%TO.N,Net-(J8-Pad2)*%
X105420000Y-139700000D03*
%TO.P,J8,3,Pin_3*%
%TO.N,Net-(J8-Pad3)*%
X107960000Y-139700000D03*
%TO.P,J8,4,Pin_4*%
%TO.N,+5V*%
X110500000Y-139700000D03*
%TD*%
D13*
%TO.P,R10k1,1*%
%TO.N,+3.3V*%
X102870000Y-113030000D03*
D14*
%TO.P,R10k1,2*%
%TO.N,Net-(J10-Pad4)*%
X113030000Y-113030000D03*
%TD*%
D11*
%TO.P,J9,1,Pin_1*%
%TO.N,GND*%
X165100000Y-119380000D03*
D12*
%TO.P,J9,2,Pin_2*%
%TO.N,+5V*%
X165100000Y-116840000D03*
%TO.P,J9,3,Pin_3*%
%TO.N,Net-(J9-Pad3)*%
X165100000Y-114300000D03*
%TD*%
D13*
%TO.P,R10k2,1*%
%TO.N,+3.3V*%
X102870000Y-116840000D03*
D14*
%TO.P,R10k2,2*%
%TO.N,Net-(J10-Pad3)*%
X113030000Y-116840000D03*
%TD*%
D11*
%TO.P,J1,1,Pin_1*%
%TO.N,GND*%
X83820000Y-127000000D03*
D12*
%TO.P,J1,2,Pin_2*%
%TO.N,+5V*%
X83820000Y-129540000D03*
%TO.P,J1,3,Pin_3*%
%TO.N,Net-(J1-Pad3)*%
X83820000Y-132080000D03*
%TD*%
D11*
%TO.P,J14,1,Pin_1*%
%TO.N,GND*%
X133197600Y-102463600D03*
D12*
%TO.P,J14,2,Pin_2*%
%TO.N,+3.3V*%
X130657600Y-102463600D03*
%TO.P,J14,3,Pin_3*%
%TO.N,Net-(J14-Pad3)*%
X128117600Y-102463600D03*
%TO.P,J14,4,Pin_4*%
%TO.N,Net-(J14-Pad4)*%
X125577600Y-102463600D03*
%TO.P,J14,5,Pin_5*%
%TO.N,Net-(J14-Pad5)*%
X123037600Y-102463600D03*
%TO.P,J14,6,Pin_6*%
%TO.N,Net-(J14-Pad6)*%
X120497600Y-102463600D03*
%TO.P,J14,7,Pin_7*%
%TO.N,Net-(J14-Pad7)*%
X117957600Y-102463600D03*
%TO.P,J14,8,Pin_8*%
%TO.N,+5V*%
X115417600Y-102463600D03*
%TD*%
D15*
%TO.N,+5V*%
X111760000Y-102870000D03*
X107950000Y-106680000D03*
X101600000Y-106680000D03*
X99060000Y-106680000D03*
%TO.N,+3.3V*%
X135890000Y-82550000D03*
X135890000Y-87630000D03*
%TO.N,Net-(J9-Pad3)*%
X140970000Y-113030000D03*
%TO.N,Net-(J8-Pad2)*%
X106680000Y-134620000D03*
X109220000Y-134620000D03*
%TO.N,Net-(J1-Pad3)*%
X92710000Y-132080000D03*
X90170000Y-132080000D03*
%TO.N,Net-(U1-Pad35)*%
X134620000Y-130810000D03*
X124460000Y-130810000D03*
%TO.N,Net-(U1-Pad33)*%
X130810000Y-134620000D03*
X127000000Y-134620000D03*
%TO.N,Net-(U1-Pad31)*%
X127000000Y-133350000D03*
X129540000Y-133350000D03*
%TO.N,Net-(J10-Pad3)*%
X104140000Y-85090000D03*
X104140000Y-87630000D03*
%TO.N,Net-(J9-Pad3)*%
X138430000Y-113030000D03*
%TD*%
D16*
%TO.N,+5V*%
X153670000Y-129540000D02*
X148590000Y-124460000D01*
X115011200Y-102870000D02*
X115417600Y-102463600D01*
X111760000Y-102870000D02*
X115011200Y-102870000D01*
X148590000Y-124714000D02*
X148844000Y-124968000D01*
X148590000Y-124460000D02*
X148590000Y-124714000D01*
D17*
%TO.N,+3.3V*%
X102870000Y-113030000D02*
X102870000Y-116840000D01*
%TO.N,Net-(J10-Pad3)*%
X114300000Y-116840000D02*
X113030000Y-116840000D01*
X115570000Y-115570000D02*
X114300000Y-116840000D01*
X115570000Y-109220000D02*
X115570000Y-115570000D01*
%TO.N,+3.3V*%
X138405000Y-140945000D02*
X138430000Y-140970000D01*
X143510000Y-135890000D02*
X143510000Y-124460000D01*
X134630000Y-140945000D02*
X138405000Y-140945000D01*
X138430000Y-140970000D02*
X143510000Y-135890000D01*
D18*
%TO.N,Net-(U1-Pad31)*%
X129530000Y-133360000D02*
X129530000Y-138405000D01*
X129540000Y-133350000D02*
X129530000Y-133360000D01*
D16*
%TO.N,+5V*%
X105410000Y-106680000D02*
X107950000Y-106680000D01*
X105410000Y-106680000D02*
X105410000Y-109220000D01*
X101600000Y-106680000D02*
X105410000Y-106680000D01*
X92710000Y-106680000D02*
X99060000Y-106680000D01*
X90170000Y-106680000D02*
X92710000Y-106680000D01*
%TO.N,+3.3V*%
X135890000Y-82550000D02*
X135890000Y-78740000D01*
X135890000Y-88900000D02*
X135890000Y-87630000D01*
D17*
%TO.N,Net-(J9-Pad3)*%
X144780000Y-113030000D02*
X140970000Y-113030000D01*
%TO.N,Net-(J3-Pad3)*%
X157480000Y-127000000D02*
X165100000Y-127000000D01*
X151130000Y-120650000D02*
X157480000Y-127000000D01*
X146050000Y-120650000D02*
X151130000Y-120650000D01*
X139700000Y-114300000D02*
X146050000Y-120650000D01*
X139700000Y-110490000D02*
X139700000Y-114300000D01*
X138430000Y-109220000D02*
X139700000Y-110490000D01*
D18*
%TO.N,Net-(J8-Pad2)*%
X110490000Y-134620000D02*
X120650000Y-124460000D01*
X109220000Y-134620000D02*
X110490000Y-134620000D01*
X105410000Y-134620000D02*
X106680000Y-134620000D01*
D17*
%TO.N,Net-(J1-Pad3)*%
X107950000Y-132080000D02*
X115570000Y-124460000D01*
X92710000Y-132080000D02*
X107950000Y-132080000D01*
X88900000Y-132080000D02*
X90170000Y-132080000D01*
D16*
%TO.N,+5V*%
X96520000Y-138430000D02*
X97790000Y-138430000D01*
X91440000Y-133350000D02*
X96520000Y-138430000D01*
X91440000Y-129540000D02*
X91440000Y-133350000D01*
X88900000Y-129540000D02*
X91440000Y-129540000D01*
D18*
%TO.N,Net-(U1-Pad35)*%
X134620000Y-130810000D02*
X135890000Y-129540000D01*
X135890000Y-129540000D02*
X135890000Y-127000000D01*
X123190000Y-132080000D02*
X124460000Y-130810000D01*
X123190000Y-144780000D02*
X123190000Y-132080000D01*
%TO.N,Net-(U1-Pad33)*%
X124460000Y-143510000D02*
X128270000Y-143510000D01*
X127000000Y-134620000D02*
X124460000Y-137160000D01*
X130810000Y-128270000D02*
X130810000Y-134620000D01*
X124460000Y-137160000D02*
X124460000Y-143510000D01*
D16*
%TO.N,+5V*%
X167640000Y-116840000D02*
X165100000Y-116840000D01*
X83820000Y-129540000D02*
X88900000Y-129540000D01*
X110500000Y-143500000D02*
X110500000Y-139700000D01*
X83820000Y-116840000D02*
X81280000Y-116840000D01*
X81280000Y-129540000D02*
X83820000Y-129540000D01*
X81280000Y-106680000D02*
X83820000Y-106680000D01*
X97790000Y-143510000D02*
X110490000Y-143510000D01*
X81280000Y-116840000D02*
X81280000Y-129540000D01*
X83820000Y-106680000D02*
X90170000Y-106680000D01*
X165100000Y-129540000D02*
X167640000Y-127000000D01*
X153670000Y-129540000D02*
X165100000Y-129540000D01*
X167640000Y-127000000D02*
X167640000Y-116840000D01*
X81280000Y-116840000D02*
X81280000Y-106680000D01*
X97790000Y-138430000D02*
X97790000Y-143510000D01*
X110490000Y-143510000D02*
X110500000Y-143500000D01*
D17*
%TO.N,Net-(J1-Pad3)*%
X87630000Y-132080000D02*
X88900000Y-132080000D01*
X83820000Y-132080000D02*
X87630000Y-132080000D01*
%TO.N,Net-(J2-Pad3)*%
X109220000Y-128270000D02*
X113030000Y-124460000D01*
X83820000Y-119380000D02*
X92710000Y-128270000D01*
X92710000Y-128270000D02*
X109220000Y-128270000D01*
D18*
%TO.N,Net-(U1-Pad33)*%
X128270000Y-143510000D02*
X129550000Y-142230000D01*
X130810000Y-124460000D02*
X130810000Y-128270000D01*
X129550000Y-142230000D02*
X129550000Y-140945000D01*
%TO.N,Net-(U1-Pad35)*%
X123190000Y-144780000D02*
X128255000Y-144780000D01*
X135890000Y-124460000D02*
X135890000Y-127000000D01*
X128255000Y-144780000D02*
X132090000Y-140945000D01*
%TO.N,Net-(U1-Pad34)*%
X133350000Y-137125000D02*
X132070000Y-138405000D01*
X133350000Y-124460000D02*
X133350000Y-137125000D01*
%TO.N,Net-(U1-Pad31)*%
X125730000Y-132080000D02*
X127000000Y-133350000D01*
X125730000Y-124460000D02*
X125730000Y-132080000D01*
%TO.N,Net-(U1-Pad32)*%
X128270000Y-137125000D02*
X126990000Y-138405000D01*
X128270000Y-124460000D02*
X128270000Y-137125000D01*
%TO.N,Net-(J8-Pad3)*%
X107960000Y-134610000D02*
X107960000Y-139700000D01*
X118110000Y-124460000D02*
X107960000Y-134610000D01*
D17*
%TO.N,+3.3V*%
X102870000Y-111760000D02*
X100330000Y-109220000D01*
D16*
X132080000Y-101041200D02*
X132080000Y-88900000D01*
X91440000Y-80010000D02*
X92710000Y-78740000D01*
X129540000Y-78740000D02*
X140970000Y-78740000D01*
D17*
X135890000Y-78740000D02*
X134620000Y-78740000D01*
D16*
X91440000Y-93980000D02*
X91440000Y-80010000D01*
X100330000Y-102870000D02*
X91440000Y-93980000D01*
X111760000Y-78740000D02*
X129540000Y-78740000D01*
D17*
X102870000Y-113030000D02*
X102870000Y-111760000D01*
D16*
X100330000Y-109220000D02*
X100330000Y-102870000D01*
X140970000Y-78740000D02*
X147320000Y-78740000D01*
X147320000Y-78740000D02*
X149860000Y-81280000D01*
X132080000Y-88900000D02*
X135890000Y-88900000D01*
X99060000Y-78740000D02*
X111760000Y-78740000D01*
X92710000Y-78740000D02*
X99060000Y-78740000D01*
X132080000Y-88900000D02*
X129540000Y-88900000D01*
X130657600Y-102463600D02*
X132080000Y-101041200D01*
D17*
%TO.N,Net-(J10-Pad3)*%
X129540000Y-83820000D02*
X152400000Y-83820000D01*
X105410000Y-83820000D02*
X111760000Y-83820000D01*
X105410000Y-83820000D02*
X93980000Y-83820000D01*
X152400000Y-83820000D02*
X154940000Y-81280000D01*
X129540000Y-83820000D02*
X111760000Y-83820000D01*
X104140000Y-97790000D02*
X104140000Y-88900000D01*
X104140000Y-83820000D02*
X104140000Y-85090000D01*
X105410000Y-83820000D02*
X104140000Y-83820000D01*
X115570000Y-109220000D02*
X104140000Y-97790000D01*
X104140000Y-88900000D02*
X104140000Y-87630000D01*
%TO.N,Net-(J10-Pad4)*%
X102870000Y-86360000D02*
X111760000Y-86360000D01*
X113030000Y-109220000D02*
X102870000Y-99060000D01*
X129540000Y-86360000D02*
X152400000Y-86360000D01*
X102870000Y-99060000D02*
X102870000Y-86360000D01*
X111760000Y-86360000D02*
X129540000Y-86360000D01*
X152400000Y-86360000D02*
X157480000Y-81280000D01*
X102870000Y-86360000D02*
X93980000Y-86360000D01*
X113030000Y-113030000D02*
X113030000Y-109220000D01*
D18*
%TO.N,Net-(J4-Pad3)*%
X151130000Y-101550000D02*
X151180000Y-101550000D01*
X151130000Y-101550000D02*
X151130000Y-101600000D01*
X151180000Y-101550000D02*
X156210000Y-96520000D01*
X151130000Y-101600000D02*
X140970000Y-101600000D01*
X140970000Y-101600000D02*
X133350000Y-109220000D01*
%TO.N,Net-(J4-Pad2)*%
X151130000Y-104140000D02*
X158750000Y-96520000D01*
X135890000Y-109220000D02*
X140970000Y-104140000D01*
X140970000Y-104140000D02*
X151130000Y-104140000D01*
%TO.N,Net-(J8-Pad2)*%
X105410000Y-134620000D02*
X105420000Y-134630000D01*
X105420000Y-134630000D02*
X105420000Y-139700000D01*
D17*
%TO.N,Net-(J9-Pad3)*%
X163830000Y-113030000D02*
X165100000Y-114300000D01*
X134620000Y-113030000D02*
X138430000Y-113030000D01*
X144780000Y-113030000D02*
X163830000Y-113030000D01*
X130810000Y-109220000D02*
X134620000Y-113030000D01*
D16*
%TO.N,Net-(J14-Pad7)*%
X118110000Y-102616000D02*
X117957600Y-102463600D01*
X118110000Y-109220000D02*
X118110000Y-102616000D01*
%TO.N,Net-(J14-Pad6)*%
X120650000Y-109220000D02*
X120650000Y-102616000D01*
X120650000Y-102616000D02*
X120497600Y-102463600D01*
%TO.N,Net-(J14-Pad5)*%
X123190000Y-109220000D02*
X123190000Y-102616000D01*
X123190000Y-102616000D02*
X123037600Y-102463600D01*
%TO.N,Net-(J14-Pad4)*%
X125730000Y-102616000D02*
X125577600Y-102463600D01*
X125730000Y-109220000D02*
X125730000Y-102616000D01*
%TO.N,Net-(J14-Pad3)*%
X128270000Y-109220000D02*
X128270000Y-102616000D01*
X128270000Y-102616000D02*
X128117600Y-102463600D01*
%TD*%
M02*
