M48
; DRILL file {KiCad (6.0.8)} date Sat Dec  3 20:58:16 2022
; FORMAT={-:-/ absolute / metric / decimal}
; #@! TF.CreationDate,2022-12-03T20:58:16+01:00
; #@! TF.GenerationSoftware,Kicad,Pcbnew,(6.0.8)
; #@! TF.FileFunction,MixedPlating,1,2
FMAT,2
METRIC
; #@! TA.AperFunction,Plated,PTH,ViaDrill
T1C0.400
; #@! TA.AperFunction,Plated,PTH,ComponentDrill
T2C0.800
; #@! TA.AperFunction,Plated,PTH,ComponentDrill
T3C1.000
; #@! TA.AperFunction,NonPlated,NPTH,ComponentDrill
T4C4.300
%
G90
G05
T1
X90.17Y-132.08
X92.71Y-132.08
X99.06Y-106.68
X101.6Y-106.68
X104.14Y-85.09
X104.14Y-87.63
X106.68Y-134.62
X107.95Y-106.68
X109.22Y-134.62
X111.76Y-102.87
X124.46Y-130.81
X127.0Y-133.35
X127.0Y-134.62
X129.54Y-133.35
X130.81Y-134.62
X134.62Y-130.81
X135.89Y-82.55
X135.89Y-87.63
X138.43Y-113.03
X140.97Y-113.03
T2
X102.87Y-113.03
X102.87Y-116.84
X113.03Y-113.03
X113.03Y-116.84
T3
X83.82Y-104.14
X83.82Y-106.68
X83.82Y-114.3
X83.82Y-116.84
X83.82Y-119.38
X83.82Y-127.0
X83.82Y-129.54
X83.82Y-132.08
X93.98Y-78.74
X93.98Y-81.28
X93.98Y-83.82
X93.98Y-86.36
X93.98Y-88.9
X100.33Y-109.22
X100.33Y-124.46
X102.87Y-109.22
X102.87Y-124.46
X102.88Y-139.7
X105.41Y-109.22
X105.41Y-124.46
X105.42Y-139.7
X107.95Y-109.22
X107.95Y-124.46
X107.96Y-139.7
X110.49Y-109.22
X110.49Y-124.46
X110.5Y-139.7
X111.76Y-78.74
X111.76Y-81.28
X111.76Y-83.82
X111.76Y-86.36
X111.76Y-88.9
X111.76Y-91.44
X111.76Y-93.98
X111.76Y-96.52
X113.03Y-109.22
X113.03Y-124.46
X115.418Y-102.464
X115.57Y-109.22
X115.57Y-124.46
X117.958Y-102.464
X118.11Y-109.22
X118.11Y-124.46
X120.498Y-102.464
X120.65Y-109.22
X120.65Y-124.46
X123.038Y-102.464
X123.19Y-109.22
X123.19Y-124.46
X125.578Y-102.464
X125.73Y-109.22
X125.73Y-124.46
X127.0Y-138.45
X127.0Y-140.99
X128.118Y-102.464
X128.27Y-109.22
X128.27Y-124.46
X129.54Y-78.74
X129.54Y-81.28
X129.54Y-83.82
X129.54Y-86.36
X129.54Y-88.9
X129.54Y-91.44
X129.54Y-138.45
X129.54Y-140.99
X130.658Y-102.464
X130.81Y-109.22
X130.81Y-124.46
X132.08Y-138.45
X132.08Y-140.99
X133.198Y-102.464
X133.35Y-109.22
X133.35Y-124.46
X134.62Y-138.45
X134.62Y-140.99
X135.89Y-109.22
X135.89Y-124.46
X138.43Y-109.22
X138.43Y-124.46
X140.97Y-109.22
X140.97Y-124.46
X143.51Y-109.22
X143.51Y-124.46
X146.05Y-109.22
X146.05Y-124.46
X148.59Y-96.52
X148.59Y-109.22
X148.59Y-124.46
X149.86Y-81.28
X151.13Y-96.52
X152.4Y-81.28
X153.67Y-96.52
X154.94Y-81.28
X156.21Y-96.52
X157.48Y-81.28
X158.75Y-96.52
X161.29Y-96.52
X165.1Y-114.3
X165.1Y-116.84
X165.1Y-119.38
X165.1Y-127.0
X165.1Y-129.54
X165.1Y-132.08
T4
X83.82Y-81.28
X83.82Y-139.7
X165.1Y-81.28
X165.1Y-139.7
T0
M30
