%TF.GenerationSoftware,KiCad,Pcbnew,(6.0.8)*%
%TF.CreationDate,2022-12-03T20:58:23+01:00*%
%TF.ProjectId,f411,66343131-2e6b-4696-9361-645f70636258,V01*%
%TF.SameCoordinates,Original*%
%TF.FileFunction,Legend,Top*%
%TF.FilePolarity,Positive*%
%FSLAX46Y46*%
G04 Gerber Fmt 4.6, Leading zero omitted, Abs format (unit mm)*
G04 Created by KiCad (PCBNEW (6.0.8)) date 2022-12-03 20:58:23*
%MOMM*%
%LPD*%
G01*
G04 APERTURE LIST*
%ADD10C,0.150000*%
%ADD11C,0.120000*%
G04 APERTURE END LIST*
D10*
X155297523Y-143708380D02*
X155297523Y-142708380D01*
X155630857Y-143422666D01*
X155964190Y-142708380D01*
X155964190Y-143708380D01*
X156868952Y-143041714D02*
X156868952Y-143708380D01*
X156630857Y-142660761D02*
X156392761Y-143375047D01*
X157011809Y-143375047D01*
X158488000Y-143184571D02*
X158630857Y-143232190D01*
X158678476Y-143279809D01*
X158726095Y-143375047D01*
X158726095Y-143517904D01*
X158678476Y-143613142D01*
X158630857Y-143660761D01*
X158535619Y-143708380D01*
X158154666Y-143708380D01*
X158154666Y-142708380D01*
X158488000Y-142708380D01*
X158583238Y-142756000D01*
X158630857Y-142803619D01*
X158678476Y-142898857D01*
X158678476Y-142994095D01*
X158630857Y-143089333D01*
X158583238Y-143136952D01*
X158488000Y-143184571D01*
X158154666Y-143184571D01*
X159297523Y-143708380D02*
X159202285Y-143660761D01*
X159154666Y-143613142D01*
X159107047Y-143517904D01*
X159107047Y-143232190D01*
X159154666Y-143136952D01*
X159202285Y-143089333D01*
X159297523Y-143041714D01*
X159440380Y-143041714D01*
X159535619Y-143089333D01*
X159583238Y-143136952D01*
X159630857Y-143232190D01*
X159630857Y-143517904D01*
X159583238Y-143613142D01*
X159535619Y-143660761D01*
X159440380Y-143708380D01*
X159297523Y-143708380D01*
X160202285Y-143708380D02*
X160107047Y-143660761D01*
X160059428Y-143565523D01*
X160059428Y-142708380D01*
X160440380Y-143041714D02*
X160821333Y-143041714D01*
X160583238Y-142708380D02*
X160583238Y-143565523D01*
X160630857Y-143660761D01*
X160726095Y-143708380D01*
X160821333Y-143708380D01*
X87733523Y-143708380D02*
X87733523Y-142708380D01*
X88066857Y-143422666D01*
X88400190Y-142708380D01*
X88400190Y-143708380D01*
X89304952Y-143041714D02*
X89304952Y-143708380D01*
X89066857Y-142660761D02*
X88828761Y-143375047D01*
X89447809Y-143375047D01*
X90924000Y-143184571D02*
X91066857Y-143232190D01*
X91114476Y-143279809D01*
X91162095Y-143375047D01*
X91162095Y-143517904D01*
X91114476Y-143613142D01*
X91066857Y-143660761D01*
X90971619Y-143708380D01*
X90590666Y-143708380D01*
X90590666Y-142708380D01*
X90924000Y-142708380D01*
X91019238Y-142756000D01*
X91066857Y-142803619D01*
X91114476Y-142898857D01*
X91114476Y-142994095D01*
X91066857Y-143089333D01*
X91019238Y-143136952D01*
X90924000Y-143184571D01*
X90590666Y-143184571D01*
X91733523Y-143708380D02*
X91638285Y-143660761D01*
X91590666Y-143613142D01*
X91543047Y-143517904D01*
X91543047Y-143232190D01*
X91590666Y-143136952D01*
X91638285Y-143089333D01*
X91733523Y-143041714D01*
X91876380Y-143041714D01*
X91971619Y-143089333D01*
X92019238Y-143136952D01*
X92066857Y-143232190D01*
X92066857Y-143517904D01*
X92019238Y-143613142D01*
X91971619Y-143660761D01*
X91876380Y-143708380D01*
X91733523Y-143708380D01*
X92638285Y-143708380D02*
X92543047Y-143660761D01*
X92495428Y-143565523D01*
X92495428Y-142708380D01*
X92876380Y-143041714D02*
X93257333Y-143041714D01*
X93019238Y-142708380D02*
X93019238Y-143565523D01*
X93066857Y-143660761D01*
X93162095Y-143708380D01*
X93257333Y-143708380D01*
X162409523Y-87320380D02*
X162409523Y-86320380D01*
X162742857Y-87034666D01*
X163076190Y-86320380D01*
X163076190Y-87320380D01*
X163980952Y-86653714D02*
X163980952Y-87320380D01*
X163742857Y-86272761D02*
X163504761Y-86987047D01*
X164123809Y-86987047D01*
X165600000Y-86796571D02*
X165742857Y-86844190D01*
X165790476Y-86891809D01*
X165838095Y-86987047D01*
X165838095Y-87129904D01*
X165790476Y-87225142D01*
X165742857Y-87272761D01*
X165647619Y-87320380D01*
X165266666Y-87320380D01*
X165266666Y-86320380D01*
X165600000Y-86320380D01*
X165695238Y-86368000D01*
X165742857Y-86415619D01*
X165790476Y-86510857D01*
X165790476Y-86606095D01*
X165742857Y-86701333D01*
X165695238Y-86748952D01*
X165600000Y-86796571D01*
X165266666Y-86796571D01*
X166409523Y-87320380D02*
X166314285Y-87272761D01*
X166266666Y-87225142D01*
X166219047Y-87129904D01*
X166219047Y-86844190D01*
X166266666Y-86748952D01*
X166314285Y-86701333D01*
X166409523Y-86653714D01*
X166552380Y-86653714D01*
X166647619Y-86701333D01*
X166695238Y-86748952D01*
X166742857Y-86844190D01*
X166742857Y-87129904D01*
X166695238Y-87225142D01*
X166647619Y-87272761D01*
X166552380Y-87320380D01*
X166409523Y-87320380D01*
X167314285Y-87320380D02*
X167219047Y-87272761D01*
X167171428Y-87177523D01*
X167171428Y-86320380D01*
X167552380Y-86653714D02*
X167933333Y-86653714D01*
X167695238Y-86320380D02*
X167695238Y-87177523D01*
X167742857Y-87272761D01*
X167838095Y-87320380D01*
X167933333Y-87320380D01*
X78835714Y-90377619D02*
X78740476Y-90330000D01*
X78645238Y-90234761D01*
X78502380Y-90091904D01*
X78407142Y-90044285D01*
X78311904Y-90044285D01*
X78359523Y-90282380D02*
X78264285Y-90234761D01*
X78169047Y-90139523D01*
X78121428Y-89949047D01*
X78121428Y-89615714D01*
X78169047Y-89425238D01*
X78264285Y-89330000D01*
X78359523Y-89282380D01*
X78550000Y-89282380D01*
X78645238Y-89330000D01*
X78740476Y-89425238D01*
X78788095Y-89615714D01*
X78788095Y-89949047D01*
X78740476Y-90139523D01*
X78645238Y-90234761D01*
X78550000Y-90282380D01*
X78359523Y-90282380D01*
X79645238Y-89615714D02*
X79645238Y-90282380D01*
X79216666Y-89615714D02*
X79216666Y-90139523D01*
X79264285Y-90234761D01*
X79359523Y-90282380D01*
X79502380Y-90282380D01*
X79597619Y-90234761D01*
X79645238Y-90187142D01*
X80550000Y-90282380D02*
X80550000Y-89758571D01*
X80502380Y-89663333D01*
X80407142Y-89615714D01*
X80216666Y-89615714D01*
X80121428Y-89663333D01*
X80550000Y-90234761D02*
X80454761Y-90282380D01*
X80216666Y-90282380D01*
X80121428Y-90234761D01*
X80073809Y-90139523D01*
X80073809Y-90044285D01*
X80121428Y-89949047D01*
X80216666Y-89901428D01*
X80454761Y-89901428D01*
X80550000Y-89853809D01*
X81454761Y-90282380D02*
X81454761Y-89282380D01*
X81454761Y-90234761D02*
X81359523Y-90282380D01*
X81169047Y-90282380D01*
X81073809Y-90234761D01*
X81026190Y-90187142D01*
X80978571Y-90091904D01*
X80978571Y-89806190D01*
X81026190Y-89710952D01*
X81073809Y-89663333D01*
X81169047Y-89615714D01*
X81359523Y-89615714D01*
X81454761Y-89663333D01*
X82359523Y-90234761D02*
X82264285Y-90282380D01*
X82073809Y-90282380D01*
X81978571Y-90234761D01*
X81930952Y-90187142D01*
X81883333Y-90091904D01*
X81883333Y-89806190D01*
X81930952Y-89710952D01*
X81978571Y-89663333D01*
X82073809Y-89615714D01*
X82264285Y-89615714D01*
X82359523Y-89663333D01*
X82930952Y-90282380D02*
X82835714Y-90234761D01*
X82788095Y-90187142D01*
X82740476Y-90091904D01*
X82740476Y-89806190D01*
X82788095Y-89710952D01*
X82835714Y-89663333D01*
X82930952Y-89615714D01*
X83073809Y-89615714D01*
X83169047Y-89663333D01*
X83216666Y-89710952D01*
X83264285Y-89806190D01*
X83264285Y-90091904D01*
X83216666Y-90187142D01*
X83169047Y-90234761D01*
X83073809Y-90282380D01*
X82930952Y-90282380D01*
X83692857Y-89615714D02*
X83692857Y-90615714D01*
X83692857Y-89663333D02*
X83788095Y-89615714D01*
X83978571Y-89615714D01*
X84073809Y-89663333D01*
X84121428Y-89710952D01*
X84169047Y-89806190D01*
X84169047Y-90091904D01*
X84121428Y-90187142D01*
X84073809Y-90234761D01*
X83978571Y-90282380D01*
X83788095Y-90282380D01*
X83692857Y-90234761D01*
X84454761Y-89615714D02*
X84835714Y-89615714D01*
X84597619Y-89282380D02*
X84597619Y-90139523D01*
X84645238Y-90234761D01*
X84740476Y-90282380D01*
X84835714Y-90282380D01*
X85550000Y-90234761D02*
X85454761Y-90282380D01*
X85264285Y-90282380D01*
X85169047Y-90234761D01*
X85121428Y-90139523D01*
X85121428Y-89758571D01*
X85169047Y-89663333D01*
X85264285Y-89615714D01*
X85454761Y-89615714D01*
X85550000Y-89663333D01*
X85597619Y-89758571D01*
X85597619Y-89853809D01*
X85121428Y-89949047D01*
X86026190Y-90282380D02*
X86026190Y-89615714D01*
X86026190Y-89806190D02*
X86073809Y-89710952D01*
X86121428Y-89663333D01*
X86216666Y-89615714D01*
X86311904Y-89615714D01*
X79645238Y-91797142D02*
X79597619Y-91844761D01*
X79454761Y-91892380D01*
X79359523Y-91892380D01*
X79216666Y-91844761D01*
X79121428Y-91749523D01*
X79073809Y-91654285D01*
X79026190Y-91463809D01*
X79026190Y-91320952D01*
X79073809Y-91130476D01*
X79121428Y-91035238D01*
X79216666Y-90940000D01*
X79359523Y-90892380D01*
X79454761Y-90892380D01*
X79597619Y-90940000D01*
X79645238Y-90987619D01*
X80216666Y-91892380D02*
X80121428Y-91844761D01*
X80073809Y-91797142D01*
X80026190Y-91701904D01*
X80026190Y-91416190D01*
X80073809Y-91320952D01*
X80121428Y-91273333D01*
X80216666Y-91225714D01*
X80359523Y-91225714D01*
X80454761Y-91273333D01*
X80502380Y-91320952D01*
X80550000Y-91416190D01*
X80550000Y-91701904D01*
X80502380Y-91797142D01*
X80454761Y-91844761D01*
X80359523Y-91892380D01*
X80216666Y-91892380D01*
X80978571Y-91225714D02*
X80978571Y-91892380D01*
X80978571Y-91320952D02*
X81026190Y-91273333D01*
X81121428Y-91225714D01*
X81264285Y-91225714D01*
X81359523Y-91273333D01*
X81407142Y-91368571D01*
X81407142Y-91892380D01*
X81740476Y-91225714D02*
X82121428Y-91225714D01*
X81883333Y-90892380D02*
X81883333Y-91749523D01*
X81930952Y-91844761D01*
X82026190Y-91892380D01*
X82121428Y-91892380D01*
X82454761Y-91892380D02*
X82454761Y-91225714D01*
X82454761Y-91416190D02*
X82502380Y-91320952D01*
X82550000Y-91273333D01*
X82645238Y-91225714D01*
X82740476Y-91225714D01*
X83216666Y-91892380D02*
X83121428Y-91844761D01*
X83073809Y-91797142D01*
X83026190Y-91701904D01*
X83026190Y-91416190D01*
X83073809Y-91320952D01*
X83121428Y-91273333D01*
X83216666Y-91225714D01*
X83359523Y-91225714D01*
X83454761Y-91273333D01*
X83502380Y-91320952D01*
X83550000Y-91416190D01*
X83550000Y-91701904D01*
X83502380Y-91797142D01*
X83454761Y-91844761D01*
X83359523Y-91892380D01*
X83216666Y-91892380D01*
X84121428Y-91892380D02*
X84026190Y-91844761D01*
X83978571Y-91749523D01*
X83978571Y-90892380D01*
X84645238Y-91892380D02*
X84550000Y-91844761D01*
X84502380Y-91749523D01*
X84502380Y-90892380D01*
X85407142Y-91844761D02*
X85311904Y-91892380D01*
X85121428Y-91892380D01*
X85026190Y-91844761D01*
X84978571Y-91749523D01*
X84978571Y-91368571D01*
X85026190Y-91273333D01*
X85121428Y-91225714D01*
X85311904Y-91225714D01*
X85407142Y-91273333D01*
X85454761Y-91368571D01*
X85454761Y-91463809D01*
X84978571Y-91559047D01*
X85883333Y-91892380D02*
X85883333Y-91225714D01*
X85883333Y-91416190D02*
X85930952Y-91320952D01*
X85978571Y-91273333D01*
X86073809Y-91225714D01*
X86169047Y-91225714D01*
X81740476Y-92502380D02*
X82073809Y-93502380D01*
X82407142Y-92502380D01*
X83264285Y-93502380D02*
X82692857Y-93502380D01*
X82978571Y-93502380D02*
X82978571Y-92502380D01*
X82883333Y-92645238D01*
X82788095Y-92740476D01*
X82692857Y-92788095D01*
X116785714Y-119784761D02*
X116928571Y-119832380D01*
X117166666Y-119832380D01*
X117261904Y-119784761D01*
X117309523Y-119737142D01*
X117357142Y-119641904D01*
X117357142Y-119546666D01*
X117309523Y-119451428D01*
X117261904Y-119403809D01*
X117166666Y-119356190D01*
X116976190Y-119308571D01*
X116880952Y-119260952D01*
X116833333Y-119213333D01*
X116785714Y-119118095D01*
X116785714Y-119022857D01*
X116833333Y-118927619D01*
X116880952Y-118880000D01*
X116976190Y-118832380D01*
X117214285Y-118832380D01*
X117357142Y-118880000D01*
X117642857Y-118832380D02*
X118214285Y-118832380D01*
X117928571Y-119832380D02*
X117928571Y-118832380D01*
X118547619Y-119832380D02*
X118547619Y-118832380D01*
X118880952Y-119546666D01*
X119214285Y-118832380D01*
X119214285Y-119832380D01*
X119595238Y-118832380D02*
X120214285Y-118832380D01*
X119880952Y-119213333D01*
X120023809Y-119213333D01*
X120119047Y-119260952D01*
X120166666Y-119308571D01*
X120214285Y-119403809D01*
X120214285Y-119641904D01*
X120166666Y-119737142D01*
X120119047Y-119784761D01*
X120023809Y-119832380D01*
X119738095Y-119832380D01*
X119642857Y-119784761D01*
X119595238Y-119737142D01*
X120595238Y-118927619D02*
X120642857Y-118880000D01*
X120738095Y-118832380D01*
X120976190Y-118832380D01*
X121071428Y-118880000D01*
X121119047Y-118927619D01*
X121166666Y-119022857D01*
X121166666Y-119118095D01*
X121119047Y-119260952D01*
X120547619Y-119832380D01*
X121166666Y-119832380D01*
X121928571Y-119308571D02*
X121595238Y-119308571D01*
X121595238Y-119832380D02*
X121595238Y-118832380D01*
X122071428Y-118832380D01*
X122880952Y-119165714D02*
X122880952Y-119832380D01*
X122642857Y-118784761D02*
X122404761Y-119499047D01*
X123023809Y-119499047D01*
X123928571Y-119832380D02*
X123357142Y-119832380D01*
X123642857Y-119832380D02*
X123642857Y-118832380D01*
X123547619Y-118975238D01*
X123452380Y-119070476D01*
X123357142Y-119118095D01*
X124880952Y-119832380D02*
X124309523Y-119832380D01*
X124595238Y-119832380D02*
X124595238Y-118832380D01*
X124500000Y-118975238D01*
X124404761Y-119070476D01*
X124309523Y-119118095D01*
X126404761Y-119308571D02*
X126547619Y-119356190D01*
X126595238Y-119403809D01*
X126642857Y-119499047D01*
X126642857Y-119641904D01*
X126595238Y-119737142D01*
X126547619Y-119784761D01*
X126452380Y-119832380D01*
X126071428Y-119832380D01*
X126071428Y-118832380D01*
X126404761Y-118832380D01*
X126500000Y-118880000D01*
X126547619Y-118927619D01*
X126595238Y-119022857D01*
X126595238Y-119118095D01*
X126547619Y-119213333D01*
X126500000Y-119260952D01*
X126404761Y-119308571D01*
X126071428Y-119308571D01*
X127071428Y-119832380D02*
X127071428Y-119165714D01*
X127071428Y-119356190D02*
X127119047Y-119260952D01*
X127166666Y-119213333D01*
X127261904Y-119165714D01*
X127357142Y-119165714D01*
X128071428Y-119784761D02*
X127976190Y-119832380D01*
X127785714Y-119832380D01*
X127690476Y-119784761D01*
X127642857Y-119689523D01*
X127642857Y-119308571D01*
X127690476Y-119213333D01*
X127785714Y-119165714D01*
X127976190Y-119165714D01*
X128071428Y-119213333D01*
X128119047Y-119308571D01*
X128119047Y-119403809D01*
X127642857Y-119499047D01*
X128976190Y-119832380D02*
X128976190Y-119308571D01*
X128928571Y-119213333D01*
X128833333Y-119165714D01*
X128642857Y-119165714D01*
X128547619Y-119213333D01*
X128976190Y-119784761D02*
X128880952Y-119832380D01*
X128642857Y-119832380D01*
X128547619Y-119784761D01*
X128500000Y-119689523D01*
X128500000Y-119594285D01*
X128547619Y-119499047D01*
X128642857Y-119451428D01*
X128880952Y-119451428D01*
X128976190Y-119403809D01*
X129452380Y-119832380D02*
X129452380Y-118832380D01*
X129547619Y-119451428D02*
X129833333Y-119832380D01*
X129833333Y-119165714D02*
X129452380Y-119546666D01*
X130404761Y-119832380D02*
X130309523Y-119784761D01*
X130261904Y-119737142D01*
X130214285Y-119641904D01*
X130214285Y-119356190D01*
X130261904Y-119260952D01*
X130309523Y-119213333D01*
X130404761Y-119165714D01*
X130547619Y-119165714D01*
X130642857Y-119213333D01*
X130690476Y-119260952D01*
X130738095Y-119356190D01*
X130738095Y-119641904D01*
X130690476Y-119737142D01*
X130642857Y-119784761D01*
X130547619Y-119832380D01*
X130404761Y-119832380D01*
X131595238Y-119165714D02*
X131595238Y-119832380D01*
X131166666Y-119165714D02*
X131166666Y-119689523D01*
X131214285Y-119784761D01*
X131309523Y-119832380D01*
X131452380Y-119832380D01*
X131547619Y-119784761D01*
X131595238Y-119737142D01*
X131928571Y-119165714D02*
X132309523Y-119165714D01*
X132071428Y-118832380D02*
X132071428Y-119689523D01*
X132119047Y-119784761D01*
X132214285Y-119832380D01*
X132309523Y-119832380D01*
X133404761Y-119832380D02*
X133404761Y-118832380D01*
X133404761Y-119213333D02*
X133500000Y-119165714D01*
X133690476Y-119165714D01*
X133785714Y-119213333D01*
X133833333Y-119260952D01*
X133880952Y-119356190D01*
X133880952Y-119641904D01*
X133833333Y-119737142D01*
X133785714Y-119784761D01*
X133690476Y-119832380D01*
X133500000Y-119832380D01*
X133404761Y-119784761D01*
X134452380Y-119832380D02*
X134357142Y-119784761D01*
X134309523Y-119737142D01*
X134261904Y-119641904D01*
X134261904Y-119356190D01*
X134309523Y-119260952D01*
X134357142Y-119213333D01*
X134452380Y-119165714D01*
X134595238Y-119165714D01*
X134690476Y-119213333D01*
X134738095Y-119260952D01*
X134785714Y-119356190D01*
X134785714Y-119641904D01*
X134738095Y-119737142D01*
X134690476Y-119784761D01*
X134595238Y-119832380D01*
X134452380Y-119832380D01*
X135642857Y-119832380D02*
X135642857Y-119308571D01*
X135595238Y-119213333D01*
X135500000Y-119165714D01*
X135309523Y-119165714D01*
X135214285Y-119213333D01*
X135642857Y-119784761D02*
X135547619Y-119832380D01*
X135309523Y-119832380D01*
X135214285Y-119784761D01*
X135166666Y-119689523D01*
X135166666Y-119594285D01*
X135214285Y-119499047D01*
X135309523Y-119451428D01*
X135547619Y-119451428D01*
X135642857Y-119403809D01*
X136119047Y-119832380D02*
X136119047Y-119165714D01*
X136119047Y-119356190D02*
X136166666Y-119260952D01*
X136214285Y-119213333D01*
X136309523Y-119165714D01*
X136404761Y-119165714D01*
X137166666Y-119832380D02*
X137166666Y-118832380D01*
X137166666Y-119784761D02*
X137071428Y-119832380D01*
X136880952Y-119832380D01*
X136785714Y-119784761D01*
X136738095Y-119737142D01*
X136690476Y-119641904D01*
X136690476Y-119356190D01*
X136738095Y-119260952D01*
X136785714Y-119213333D01*
X136880952Y-119165714D01*
X137071428Y-119165714D01*
X137166666Y-119213333D01*
X129913333Y-145232380D02*
X129913333Y-144232380D01*
X130484761Y-145232380D01*
X130484761Y-144232380D01*
X131532380Y-145232380D02*
X131199047Y-144756190D01*
X130960952Y-145232380D02*
X130960952Y-144232380D01*
X131341904Y-144232380D01*
X131437142Y-144280000D01*
X131484761Y-144327619D01*
X131532380Y-144422857D01*
X131532380Y-144565714D01*
X131484761Y-144660952D01*
X131437142Y-144708571D01*
X131341904Y-144756190D01*
X130960952Y-144756190D01*
X132294285Y-144708571D02*
X131960952Y-144708571D01*
X131960952Y-145232380D02*
X131960952Y-144232380D01*
X132437142Y-144232380D01*
X132770476Y-144327619D02*
X132818095Y-144280000D01*
X132913333Y-144232380D01*
X133151428Y-144232380D01*
X133246666Y-144280000D01*
X133294285Y-144327619D01*
X133341904Y-144422857D01*
X133341904Y-144518095D01*
X133294285Y-144660952D01*
X132722857Y-145232380D01*
X133341904Y-145232380D01*
X134199047Y-144565714D02*
X134199047Y-145232380D01*
X133960952Y-144184761D02*
X133722857Y-144899047D01*
X134341904Y-144899047D01*
X115047619Y-99782380D02*
X114571428Y-99782380D01*
X114523809Y-100258571D01*
X114571428Y-100210952D01*
X114666666Y-100163333D01*
X114904761Y-100163333D01*
X115000000Y-100210952D01*
X115047619Y-100258571D01*
X115095238Y-100353809D01*
X115095238Y-100591904D01*
X115047619Y-100687142D01*
X115000000Y-100734761D01*
X114904761Y-100782380D01*
X114666666Y-100782380D01*
X114571428Y-100734761D01*
X114523809Y-100687142D01*
X115380952Y-99782380D02*
X115714285Y-100782380D01*
X116047619Y-99782380D01*
X117476190Y-100258571D02*
X117619047Y-100306190D01*
X117666666Y-100353809D01*
X117714285Y-100449047D01*
X117714285Y-100591904D01*
X117666666Y-100687142D01*
X117619047Y-100734761D01*
X117523809Y-100782380D01*
X117142857Y-100782380D01*
X117142857Y-99782380D01*
X117476190Y-99782380D01*
X117571428Y-99830000D01*
X117619047Y-99877619D01*
X117666666Y-99972857D01*
X117666666Y-100068095D01*
X117619047Y-100163333D01*
X117571428Y-100210952D01*
X117476190Y-100258571D01*
X117142857Y-100258571D01*
X118619047Y-99782380D02*
X118142857Y-99782380D01*
X118095238Y-100258571D01*
X118142857Y-100210952D01*
X118238095Y-100163333D01*
X118476190Y-100163333D01*
X118571428Y-100210952D01*
X118619047Y-100258571D01*
X118666666Y-100353809D01*
X118666666Y-100591904D01*
X118619047Y-100687142D01*
X118571428Y-100734761D01*
X118476190Y-100782380D01*
X118238095Y-100782380D01*
X118142857Y-100734761D01*
X118095238Y-100687142D01*
X120190476Y-100258571D02*
X120333333Y-100306190D01*
X120380952Y-100353809D01*
X120428571Y-100449047D01*
X120428571Y-100591904D01*
X120380952Y-100687142D01*
X120333333Y-100734761D01*
X120238095Y-100782380D01*
X119857142Y-100782380D01*
X119857142Y-99782380D01*
X120190476Y-99782380D01*
X120285714Y-99830000D01*
X120333333Y-99877619D01*
X120380952Y-99972857D01*
X120380952Y-100068095D01*
X120333333Y-100163333D01*
X120285714Y-100210952D01*
X120190476Y-100258571D01*
X119857142Y-100258571D01*
X121285714Y-100115714D02*
X121285714Y-100782380D01*
X121047619Y-99734761D02*
X120809523Y-100449047D01*
X121428571Y-100449047D01*
X122904761Y-100258571D02*
X123047619Y-100306190D01*
X123095238Y-100353809D01*
X123142857Y-100449047D01*
X123142857Y-100591904D01*
X123095238Y-100687142D01*
X123047619Y-100734761D01*
X122952380Y-100782380D01*
X122571428Y-100782380D01*
X122571428Y-99782380D01*
X122904761Y-99782380D01*
X123000000Y-99830000D01*
X123047619Y-99877619D01*
X123095238Y-99972857D01*
X123095238Y-100068095D01*
X123047619Y-100163333D01*
X123000000Y-100210952D01*
X122904761Y-100258571D01*
X122571428Y-100258571D01*
X123476190Y-99782380D02*
X124095238Y-99782380D01*
X123761904Y-100163333D01*
X123904761Y-100163333D01*
X124000000Y-100210952D01*
X124047619Y-100258571D01*
X124095238Y-100353809D01*
X124095238Y-100591904D01*
X124047619Y-100687142D01*
X124000000Y-100734761D01*
X123904761Y-100782380D01*
X123619047Y-100782380D01*
X123523809Y-100734761D01*
X123476190Y-100687142D01*
X125238095Y-100496666D02*
X125714285Y-100496666D01*
X125142857Y-100782380D02*
X125476190Y-99782380D01*
X125809523Y-100782380D01*
X126666666Y-100782380D02*
X126095238Y-100782380D01*
X126380952Y-100782380D02*
X126380952Y-99782380D01*
X126285714Y-99925238D01*
X126190476Y-100020476D01*
X126095238Y-100068095D01*
X127571428Y-99782380D02*
X127095238Y-99782380D01*
X127047619Y-100258571D01*
X127095238Y-100210952D01*
X127190476Y-100163333D01*
X127428571Y-100163333D01*
X127523809Y-100210952D01*
X127571428Y-100258571D01*
X127619047Y-100353809D01*
X127619047Y-100591904D01*
X127571428Y-100687142D01*
X127523809Y-100734761D01*
X127428571Y-100782380D01*
X127190476Y-100782380D01*
X127095238Y-100734761D01*
X127047619Y-100687142D01*
X128761904Y-100496666D02*
X129238095Y-100496666D01*
X128666666Y-100782380D02*
X128999999Y-99782380D01*
X129333333Y-100782380D01*
X130190476Y-100782380D02*
X129619047Y-100782380D01*
X129904761Y-100782380D02*
X129904761Y-99782380D01*
X129809523Y-99925238D01*
X129714285Y-100020476D01*
X129619047Y-100068095D01*
X130571428Y-99877619D02*
X130619047Y-99830000D01*
X130714285Y-99782380D01*
X130952380Y-99782380D01*
X131047619Y-99830000D01*
X131095238Y-99877619D01*
X131142857Y-99972857D01*
X131142857Y-100068095D01*
X131095238Y-100210952D01*
X130523809Y-100782380D01*
X131142857Y-100782380D01*
X132238095Y-99782380D02*
X132857142Y-99782380D01*
X132523809Y-100163333D01*
X132666666Y-100163333D01*
X132761904Y-100210952D01*
X132809523Y-100258571D01*
X132857142Y-100353809D01*
X132857142Y-100591904D01*
X132809523Y-100687142D01*
X132761904Y-100734761D01*
X132666666Y-100782380D01*
X132380952Y-100782380D01*
X132285714Y-100734761D01*
X132238095Y-100687142D01*
X133285714Y-100687142D02*
X133333333Y-100734761D01*
X133285714Y-100782380D01*
X133238095Y-100734761D01*
X133285714Y-100687142D01*
X133285714Y-100782380D01*
X133666666Y-99782380D02*
X134285714Y-99782380D01*
X133952380Y-100163333D01*
X134095238Y-100163333D01*
X134190476Y-100210952D01*
X134238095Y-100258571D01*
X134285714Y-100353809D01*
X134285714Y-100591904D01*
X134238095Y-100687142D01*
X134190476Y-100734761D01*
X134095238Y-100782380D01*
X133809523Y-100782380D01*
X133714285Y-100734761D01*
X133666666Y-100687142D01*
X134571428Y-99782380D02*
X134904761Y-100782380D01*
X135238095Y-99782380D01*
X136857142Y-99830000D02*
X136761904Y-99782380D01*
X136619047Y-99782380D01*
X136476190Y-99830000D01*
X136380952Y-99925238D01*
X136333333Y-100020476D01*
X136285714Y-100210952D01*
X136285714Y-100353809D01*
X136333333Y-100544285D01*
X136380952Y-100639523D01*
X136476190Y-100734761D01*
X136619047Y-100782380D01*
X136714285Y-100782380D01*
X136857142Y-100734761D01*
X136904761Y-100687142D01*
X136904761Y-100353809D01*
X136714285Y-100353809D01*
X137333333Y-100115714D02*
X137333333Y-100782380D01*
X137333333Y-100210952D02*
X137380952Y-100163333D01*
X137476190Y-100115714D01*
X137619047Y-100115714D01*
X137714285Y-100163333D01*
X137761904Y-100258571D01*
X137761904Y-100782380D01*
X138666666Y-100782380D02*
X138666666Y-99782380D01*
X138666666Y-100734761D02*
X138571428Y-100782380D01*
X138380952Y-100782380D01*
X138285714Y-100734761D01*
X138238095Y-100687142D01*
X138190476Y-100591904D01*
X138190476Y-100306190D01*
X138238095Y-100210952D01*
X138285714Y-100163333D01*
X138380952Y-100115714D01*
X138571428Y-100115714D01*
X138666666Y-100163333D01*
X123404761Y-96448571D02*
X123738095Y-96448571D01*
X123880952Y-96972380D02*
X123404761Y-96972380D01*
X123404761Y-95972380D01*
X123880952Y-95972380D01*
X124214285Y-96972380D02*
X124738095Y-96305714D01*
X124214285Y-96305714D02*
X124738095Y-96972380D01*
X124976190Y-96305714D02*
X125357142Y-96305714D01*
X125119047Y-95972380D02*
X125119047Y-96829523D01*
X125166666Y-96924761D01*
X125261904Y-96972380D01*
X125357142Y-96972380D01*
X125690476Y-96972380D02*
X125690476Y-96305714D01*
X125690476Y-96496190D02*
X125738095Y-96400952D01*
X125785714Y-96353333D01*
X125880952Y-96305714D01*
X125976190Y-96305714D01*
X126738095Y-96972380D02*
X126738095Y-96448571D01*
X126690476Y-96353333D01*
X126595238Y-96305714D01*
X126404761Y-96305714D01*
X126309523Y-96353333D01*
X126738095Y-96924761D02*
X126642857Y-96972380D01*
X126404761Y-96972380D01*
X126309523Y-96924761D01*
X126261904Y-96829523D01*
X126261904Y-96734285D01*
X126309523Y-96639047D01*
X126404761Y-96591428D01*
X126642857Y-96591428D01*
X126738095Y-96543809D01*
X127976190Y-96305714D02*
X127976190Y-97305714D01*
X127976190Y-96353333D02*
X128071428Y-96305714D01*
X128261904Y-96305714D01*
X128357142Y-96353333D01*
X128404761Y-96400952D01*
X128452380Y-96496190D01*
X128452380Y-96781904D01*
X128404761Y-96877142D01*
X128357142Y-96924761D01*
X128261904Y-96972380D01*
X128071428Y-96972380D01*
X127976190Y-96924761D01*
X128880952Y-96972380D02*
X128880952Y-96305714D01*
X128880952Y-95972380D02*
X128833333Y-96020000D01*
X128880952Y-96067619D01*
X128928571Y-96020000D01*
X128880952Y-95972380D01*
X128880952Y-96067619D01*
X129357142Y-96305714D02*
X129357142Y-96972380D01*
X129357142Y-96400952D02*
X129404761Y-96353333D01*
X129500000Y-96305714D01*
X129642857Y-96305714D01*
X129738095Y-96353333D01*
X129785714Y-96448571D01*
X129785714Y-96972380D01*
X130214285Y-96924761D02*
X130309523Y-96972380D01*
X130500000Y-96972380D01*
X130595238Y-96924761D01*
X130642857Y-96829523D01*
X130642857Y-96781904D01*
X130595238Y-96686666D01*
X130500000Y-96639047D01*
X130357142Y-96639047D01*
X130261904Y-96591428D01*
X130214285Y-96496190D01*
X130214285Y-96448571D01*
X130261904Y-96353333D01*
X130357142Y-96305714D01*
X130500000Y-96305714D01*
X130595238Y-96353333D01*
X151749523Y-83748571D02*
X152082857Y-83748571D01*
X152225714Y-84272380D02*
X151749523Y-84272380D01*
X151749523Y-83272380D01*
X152225714Y-83272380D01*
X152559047Y-84272380D02*
X153082857Y-83605714D01*
X152559047Y-83605714D02*
X153082857Y-84272380D01*
X153320952Y-83605714D02*
X153701904Y-83605714D01*
X153463809Y-83272380D02*
X153463809Y-84129523D01*
X153511428Y-84224761D01*
X153606666Y-84272380D01*
X153701904Y-84272380D01*
X154035238Y-84272380D02*
X154035238Y-83605714D01*
X154035238Y-83796190D02*
X154082857Y-83700952D01*
X154130476Y-83653333D01*
X154225714Y-83605714D01*
X154320952Y-83605714D01*
X155082857Y-84272380D02*
X155082857Y-83748571D01*
X155035238Y-83653333D01*
X154940000Y-83605714D01*
X154749523Y-83605714D01*
X154654285Y-83653333D01*
X155082857Y-84224761D02*
X154987619Y-84272380D01*
X154749523Y-84272380D01*
X154654285Y-84224761D01*
X154606666Y-84129523D01*
X154606666Y-84034285D01*
X154654285Y-83939047D01*
X154749523Y-83891428D01*
X154987619Y-83891428D01*
X155082857Y-83843809D01*
X156320952Y-84272380D02*
X156320952Y-83272380D01*
X156749523Y-83367619D02*
X156797142Y-83320000D01*
X156892380Y-83272380D01*
X157130476Y-83272380D01*
X157225714Y-83320000D01*
X157273333Y-83367619D01*
X157320952Y-83462857D01*
X157320952Y-83558095D01*
X157273333Y-83700952D01*
X156701904Y-84272380D01*
X157320952Y-84272380D01*
X158178095Y-84224761D02*
X158082857Y-84272380D01*
X157892380Y-84272380D01*
X157797142Y-84224761D01*
X157749523Y-84177142D01*
X157701904Y-84081904D01*
X157701904Y-83796190D01*
X157749523Y-83700952D01*
X157797142Y-83653333D01*
X157892380Y-83605714D01*
X158082857Y-83605714D01*
X158178095Y-83653333D01*
X144708571Y-97496190D02*
X144708571Y-97829523D01*
X145232380Y-97829523D02*
X144232380Y-97829523D01*
X144232380Y-97353333D01*
X144232380Y-97115238D02*
X144232380Y-96543809D01*
X145232380Y-96829523D02*
X144232380Y-96829523D01*
X145232380Y-96210476D02*
X144232380Y-96210476D01*
X144232380Y-95972380D01*
X144280000Y-95829523D01*
X144375238Y-95734285D01*
X144470476Y-95686666D01*
X144660952Y-95639047D01*
X144803809Y-95639047D01*
X144994285Y-95686666D01*
X145089523Y-95734285D01*
X145184761Y-95829523D01*
X145232380Y-95972380D01*
X145232380Y-96210476D01*
X145232380Y-95210476D02*
X144232380Y-95210476D01*
X162488571Y-118030476D02*
X162488571Y-117697142D01*
X163012380Y-117554285D02*
X163012380Y-118030476D01*
X162012380Y-118030476D01*
X162012380Y-117554285D01*
X162964761Y-117173333D02*
X163012380Y-117030476D01*
X163012380Y-116792380D01*
X162964761Y-116697142D01*
X162917142Y-116649523D01*
X162821904Y-116601904D01*
X162726666Y-116601904D01*
X162631428Y-116649523D01*
X162583809Y-116697142D01*
X162536190Y-116792380D01*
X162488571Y-116982857D01*
X162440952Y-117078095D01*
X162393333Y-117125714D01*
X162298095Y-117173333D01*
X162202857Y-117173333D01*
X162107619Y-117125714D01*
X162060000Y-117078095D01*
X162012380Y-116982857D01*
X162012380Y-116744761D01*
X162060000Y-116601904D01*
X162917142Y-115601904D02*
X162964761Y-115649523D01*
X163012380Y-115792380D01*
X163012380Y-115887619D01*
X162964761Y-116030476D01*
X162869523Y-116125714D01*
X162774285Y-116173333D01*
X162583809Y-116220952D01*
X162440952Y-116220952D01*
X162250476Y-116173333D01*
X162155238Y-116125714D01*
X162060000Y-116030476D01*
X162012380Y-115887619D01*
X162012380Y-115792380D01*
X162060000Y-115649523D01*
X162107619Y-115601904D01*
X162488571Y-130730476D02*
X162488571Y-130397142D01*
X163012380Y-130254285D02*
X163012380Y-130730476D01*
X162012380Y-130730476D01*
X162012380Y-130254285D01*
X162964761Y-129873333D02*
X163012380Y-129730476D01*
X163012380Y-129492380D01*
X162964761Y-129397142D01*
X162917142Y-129349523D01*
X162821904Y-129301904D01*
X162726666Y-129301904D01*
X162631428Y-129349523D01*
X162583809Y-129397142D01*
X162536190Y-129492380D01*
X162488571Y-129682857D01*
X162440952Y-129778095D01*
X162393333Y-129825714D01*
X162298095Y-129873333D01*
X162202857Y-129873333D01*
X162107619Y-129825714D01*
X162060000Y-129778095D01*
X162012380Y-129682857D01*
X162012380Y-129444761D01*
X162060000Y-129301904D01*
X162917142Y-128301904D02*
X162964761Y-128349523D01*
X163012380Y-128492380D01*
X163012380Y-128587619D01*
X162964761Y-128730476D01*
X162869523Y-128825714D01*
X162774285Y-128873333D01*
X162583809Y-128920952D01*
X162440952Y-128920952D01*
X162250476Y-128873333D01*
X162155238Y-128825714D01*
X162060000Y-128730476D01*
X162012380Y-128587619D01*
X162012380Y-128492380D01*
X162060000Y-128349523D01*
X162107619Y-128301904D01*
X86431428Y-128349523D02*
X86431428Y-128682857D01*
X85907619Y-128825714D02*
X85907619Y-128349523D01*
X86907619Y-128349523D01*
X86907619Y-128825714D01*
X85955238Y-129206666D02*
X85907619Y-129349523D01*
X85907619Y-129587619D01*
X85955238Y-129682857D01*
X86002857Y-129730476D01*
X86098095Y-129778095D01*
X86193333Y-129778095D01*
X86288571Y-129730476D01*
X86336190Y-129682857D01*
X86383809Y-129587619D01*
X86431428Y-129397142D01*
X86479047Y-129301904D01*
X86526666Y-129254285D01*
X86621904Y-129206666D01*
X86717142Y-129206666D01*
X86812380Y-129254285D01*
X86860000Y-129301904D01*
X86907619Y-129397142D01*
X86907619Y-129635238D01*
X86860000Y-129778095D01*
X86002857Y-130778095D02*
X85955238Y-130730476D01*
X85907619Y-130587619D01*
X85907619Y-130492380D01*
X85955238Y-130349523D01*
X86050476Y-130254285D01*
X86145714Y-130206666D01*
X86336190Y-130159047D01*
X86479047Y-130159047D01*
X86669523Y-130206666D01*
X86764761Y-130254285D01*
X86860000Y-130349523D01*
X86907619Y-130492380D01*
X86907619Y-130587619D01*
X86860000Y-130730476D01*
X86812380Y-130778095D01*
X86431428Y-115649523D02*
X86431428Y-115982857D01*
X85907619Y-116125714D02*
X85907619Y-115649523D01*
X86907619Y-115649523D01*
X86907619Y-116125714D01*
X85955238Y-116506666D02*
X85907619Y-116649523D01*
X85907619Y-116887619D01*
X85955238Y-116982857D01*
X86002857Y-117030476D01*
X86098095Y-117078095D01*
X86193333Y-117078095D01*
X86288571Y-117030476D01*
X86336190Y-116982857D01*
X86383809Y-116887619D01*
X86431428Y-116697142D01*
X86479047Y-116601904D01*
X86526666Y-116554285D01*
X86621904Y-116506666D01*
X86717142Y-116506666D01*
X86812380Y-116554285D01*
X86860000Y-116601904D01*
X86907619Y-116697142D01*
X86907619Y-116935238D01*
X86860000Y-117078095D01*
X86002857Y-118078095D02*
X85955238Y-118030476D01*
X85907619Y-117887619D01*
X85907619Y-117792380D01*
X85955238Y-117649523D01*
X86050476Y-117554285D01*
X86145714Y-117506666D01*
X86336190Y-117459047D01*
X86479047Y-117459047D01*
X86669523Y-117506666D01*
X86764761Y-117554285D01*
X86860000Y-117649523D01*
X86907619Y-117792380D01*
X86907619Y-117887619D01*
X86860000Y-118030476D01*
X86812380Y-118078095D01*
X100885714Y-136660000D02*
X100790476Y-136612380D01*
X100647619Y-136612380D01*
X100504761Y-136660000D01*
X100409523Y-136755238D01*
X100361904Y-136850476D01*
X100314285Y-137040952D01*
X100314285Y-137183809D01*
X100361904Y-137374285D01*
X100409523Y-137469523D01*
X100504761Y-137564761D01*
X100647619Y-137612380D01*
X100742857Y-137612380D01*
X100885714Y-137564761D01*
X100933333Y-137517142D01*
X100933333Y-137183809D01*
X100742857Y-137183809D01*
X101361904Y-137612380D02*
X101361904Y-136612380D01*
X101742857Y-136612380D01*
X101838095Y-136660000D01*
X101885714Y-136707619D01*
X101933333Y-136802857D01*
X101933333Y-136945714D01*
X101885714Y-137040952D01*
X101838095Y-137088571D01*
X101742857Y-137136190D01*
X101361904Y-137136190D01*
X102314285Y-137564761D02*
X102457142Y-137612380D01*
X102695238Y-137612380D01*
X102790476Y-137564761D01*
X102838095Y-137517142D01*
X102885714Y-137421904D01*
X102885714Y-137326666D01*
X102838095Y-137231428D01*
X102790476Y-137183809D01*
X102695238Y-137136190D01*
X102504761Y-137088571D01*
X102409523Y-137040952D01*
X102361904Y-136993333D01*
X102314285Y-136898095D01*
X102314285Y-136802857D01*
X102361904Y-136707619D01*
X102409523Y-136660000D01*
X102504761Y-136612380D01*
X102742857Y-136612380D01*
X102885714Y-136660000D01*
X136612380Y-142676190D02*
X137612380Y-142342857D01*
X136612380Y-142009523D01*
X137564761Y-141247619D02*
X137612380Y-141342857D01*
X137612380Y-141533333D01*
X137564761Y-141628571D01*
X137517142Y-141676190D01*
X137421904Y-141723809D01*
X137136190Y-141723809D01*
X137040952Y-141676190D01*
X136993333Y-141628571D01*
X136945714Y-141533333D01*
X136945714Y-141342857D01*
X136993333Y-141247619D01*
X137564761Y-140390476D02*
X137612380Y-140485714D01*
X137612380Y-140676190D01*
X137564761Y-140771428D01*
X137517142Y-140819047D01*
X137421904Y-140866666D01*
X137136190Y-140866666D01*
X137040952Y-140819047D01*
X136993333Y-140771428D01*
X136945714Y-140676190D01*
X136945714Y-140485714D01*
X136993333Y-140390476D01*
X136660000Y-138676190D02*
X136612380Y-138771428D01*
X136612380Y-138914285D01*
X136660000Y-139057142D01*
X136755238Y-139152380D01*
X136850476Y-139200000D01*
X137040952Y-139247619D01*
X137183809Y-139247619D01*
X137374285Y-139200000D01*
X137469523Y-139152380D01*
X137564761Y-139057142D01*
X137612380Y-138914285D01*
X137612380Y-138819047D01*
X137564761Y-138676190D01*
X137517142Y-138628571D01*
X137183809Y-138628571D01*
X137183809Y-138819047D01*
X136945714Y-138200000D02*
X137612380Y-138200000D01*
X137040952Y-138200000D02*
X136993333Y-138152380D01*
X136945714Y-138057142D01*
X136945714Y-137914285D01*
X136993333Y-137819047D01*
X137088571Y-137771428D01*
X137612380Y-137771428D01*
X137612380Y-136866666D02*
X136612380Y-136866666D01*
X137564761Y-136866666D02*
X137612380Y-136961904D01*
X137612380Y-137152380D01*
X137564761Y-137247619D01*
X137517142Y-137295238D01*
X137421904Y-137342857D01*
X137136190Y-137342857D01*
X137040952Y-137295238D01*
X136993333Y-137247619D01*
X136945714Y-137152380D01*
X136945714Y-136961904D01*
X136993333Y-136866666D01*
X127111428Y-93908571D02*
X127254285Y-93956190D01*
X127301904Y-94003809D01*
X127349523Y-94099047D01*
X127349523Y-94241904D01*
X127301904Y-94337142D01*
X127254285Y-94384761D01*
X127159047Y-94432380D01*
X126778095Y-94432380D01*
X126778095Y-93432380D01*
X127111428Y-93432380D01*
X127206666Y-93480000D01*
X127254285Y-93527619D01*
X127301904Y-93622857D01*
X127301904Y-93718095D01*
X127254285Y-93813333D01*
X127206666Y-93860952D01*
X127111428Y-93908571D01*
X126778095Y-93908571D01*
X127778095Y-94432380D02*
X127778095Y-93432380D01*
X128111428Y-94146666D01*
X128444761Y-93432380D01*
X128444761Y-94432380D01*
X128920952Y-94432380D02*
X128920952Y-93432380D01*
X129301904Y-93432380D01*
X129397142Y-93480000D01*
X129444761Y-93527619D01*
X129492380Y-93622857D01*
X129492380Y-93765714D01*
X129444761Y-93860952D01*
X129397142Y-93908571D01*
X129301904Y-93956190D01*
X128920952Y-93956190D01*
X129873333Y-93527619D02*
X129920952Y-93480000D01*
X130016190Y-93432380D01*
X130254285Y-93432380D01*
X130349523Y-93480000D01*
X130397142Y-93527619D01*
X130444761Y-93622857D01*
X130444761Y-93718095D01*
X130397142Y-93860952D01*
X129825714Y-94432380D01*
X130444761Y-94432380D01*
X131016190Y-93860952D02*
X130920952Y-93813333D01*
X130873333Y-93765714D01*
X130825714Y-93670476D01*
X130825714Y-93622857D01*
X130873333Y-93527619D01*
X130920952Y-93480000D01*
X131016190Y-93432380D01*
X131206666Y-93432380D01*
X131301904Y-93480000D01*
X131349523Y-93527619D01*
X131397142Y-93622857D01*
X131397142Y-93670476D01*
X131349523Y-93765714D01*
X131301904Y-93813333D01*
X131206666Y-93860952D01*
X131016190Y-93860952D01*
X130920952Y-93908571D01*
X130873333Y-93956190D01*
X130825714Y-94051428D01*
X130825714Y-94241904D01*
X130873333Y-94337142D01*
X130920952Y-94384761D01*
X131016190Y-94432380D01*
X131206666Y-94432380D01*
X131301904Y-94384761D01*
X131349523Y-94337142D01*
X131397142Y-94241904D01*
X131397142Y-94051428D01*
X131349523Y-93956190D01*
X131301904Y-93908571D01*
X131206666Y-93860952D01*
X132016190Y-93432380D02*
X132111428Y-93432380D01*
X132206666Y-93480000D01*
X132254285Y-93527619D01*
X132301904Y-93622857D01*
X132349523Y-93813333D01*
X132349523Y-94051428D01*
X132301904Y-94241904D01*
X132254285Y-94337142D01*
X132206666Y-94384761D01*
X132111428Y-94432380D01*
X132016190Y-94432380D01*
X131920952Y-94384761D01*
X131873333Y-94337142D01*
X131825714Y-94241904D01*
X131778095Y-94051428D01*
X131778095Y-93813333D01*
X131825714Y-93622857D01*
X131873333Y-93527619D01*
X131920952Y-93480000D01*
X132016190Y-93432380D01*
X105958095Y-99512380D02*
X105958095Y-98512380D01*
X106291428Y-99226666D01*
X106624761Y-98512380D01*
X106624761Y-99512380D01*
X107100952Y-99512380D02*
X107100952Y-98512380D01*
X107481904Y-98512380D01*
X107577142Y-98560000D01*
X107624761Y-98607619D01*
X107672380Y-98702857D01*
X107672380Y-98845714D01*
X107624761Y-98940952D01*
X107577142Y-98988571D01*
X107481904Y-99036190D01*
X107100952Y-99036190D01*
X108100952Y-98512380D02*
X108100952Y-99321904D01*
X108148571Y-99417142D01*
X108196190Y-99464761D01*
X108291428Y-99512380D01*
X108481904Y-99512380D01*
X108577142Y-99464761D01*
X108624761Y-99417142D01*
X108672380Y-99321904D01*
X108672380Y-98512380D01*
X109577142Y-98512380D02*
X109386666Y-98512380D01*
X109291428Y-98560000D01*
X109243809Y-98607619D01*
X109148571Y-98750476D01*
X109100952Y-98940952D01*
X109100952Y-99321904D01*
X109148571Y-99417142D01*
X109196190Y-99464761D01*
X109291428Y-99512380D01*
X109481904Y-99512380D01*
X109577142Y-99464761D01*
X109624761Y-99417142D01*
X109672380Y-99321904D01*
X109672380Y-99083809D01*
X109624761Y-98988571D01*
X109577142Y-98940952D01*
X109481904Y-98893333D01*
X109291428Y-98893333D01*
X109196190Y-98940952D01*
X109148571Y-98988571D01*
X109100952Y-99083809D01*
X110291428Y-98512380D02*
X110386666Y-98512380D01*
X110481904Y-98560000D01*
X110529523Y-98607619D01*
X110577142Y-98702857D01*
X110624761Y-98893333D01*
X110624761Y-99131428D01*
X110577142Y-99321904D01*
X110529523Y-99417142D01*
X110481904Y-99464761D01*
X110386666Y-99512380D01*
X110291428Y-99512380D01*
X110196190Y-99464761D01*
X110148571Y-99417142D01*
X110100952Y-99321904D01*
X110053333Y-99131428D01*
X110053333Y-98893333D01*
X110100952Y-98702857D01*
X110148571Y-98607619D01*
X110196190Y-98560000D01*
X110291428Y-98512380D01*
X111529523Y-98512380D02*
X111053333Y-98512380D01*
X111005714Y-98988571D01*
X111053333Y-98940952D01*
X111148571Y-98893333D01*
X111386666Y-98893333D01*
X111481904Y-98940952D01*
X111529523Y-98988571D01*
X111577142Y-99083809D01*
X111577142Y-99321904D01*
X111529523Y-99417142D01*
X111481904Y-99464761D01*
X111386666Y-99512380D01*
X111148571Y-99512380D01*
X111053333Y-99464761D01*
X111005714Y-99417142D01*
X112196190Y-98512380D02*
X112291428Y-98512380D01*
X112386666Y-98560000D01*
X112434285Y-98607619D01*
X112481904Y-98702857D01*
X112529523Y-98893333D01*
X112529523Y-99131428D01*
X112481904Y-99321904D01*
X112434285Y-99417142D01*
X112386666Y-99464761D01*
X112291428Y-99512380D01*
X112196190Y-99512380D01*
X112100952Y-99464761D01*
X112053333Y-99417142D01*
X112005714Y-99321904D01*
X111958095Y-99131428D01*
X111958095Y-98893333D01*
X112005714Y-98702857D01*
X112053333Y-98607619D01*
X112100952Y-98560000D01*
X112196190Y-98512380D01*
X102299047Y-141740000D02*
X102203809Y-141692380D01*
X102060952Y-141692380D01*
X101918095Y-141740000D01*
X101822857Y-141835238D01*
X101775238Y-141930476D01*
X101727619Y-142120952D01*
X101727619Y-142263809D01*
X101775238Y-142454285D01*
X101822857Y-142549523D01*
X101918095Y-142644761D01*
X102060952Y-142692380D01*
X102156190Y-142692380D01*
X102299047Y-142644761D01*
X102346666Y-142597142D01*
X102346666Y-142263809D01*
X102156190Y-142263809D01*
X102775238Y-142025714D02*
X102775238Y-142692380D01*
X102775238Y-142120952D02*
X102822857Y-142073333D01*
X102918095Y-142025714D01*
X103060952Y-142025714D01*
X103156190Y-142073333D01*
X103203809Y-142168571D01*
X103203809Y-142692380D01*
X104108571Y-142692380D02*
X104108571Y-141692380D01*
X104108571Y-142644761D02*
X104013333Y-142692380D01*
X103822857Y-142692380D01*
X103727619Y-142644761D01*
X103680000Y-142597142D01*
X103632380Y-142501904D01*
X103632380Y-142216190D01*
X103680000Y-142120952D01*
X103727619Y-142073333D01*
X103822857Y-142025714D01*
X104013333Y-142025714D01*
X104108571Y-142073333D01*
X105918095Y-142692380D02*
X105584761Y-142216190D01*
X105346666Y-142692380D02*
X105346666Y-141692380D01*
X105727619Y-141692380D01*
X105822857Y-141740000D01*
X105870476Y-141787619D01*
X105918095Y-141882857D01*
X105918095Y-142025714D01*
X105870476Y-142120952D01*
X105822857Y-142168571D01*
X105727619Y-142216190D01*
X105346666Y-142216190D01*
X106251428Y-142692380D02*
X106775238Y-142025714D01*
X106251428Y-142025714D02*
X106775238Y-142692380D01*
X107775238Y-141692380D02*
X108346666Y-141692380D01*
X108060952Y-142692380D02*
X108060952Y-141692380D01*
X108584761Y-142692380D02*
X109108571Y-142025714D01*
X108584761Y-142025714D02*
X109108571Y-142692380D01*
X110727619Y-141692380D02*
X110251428Y-141692380D01*
X110203809Y-142168571D01*
X110251428Y-142120952D01*
X110346666Y-142073333D01*
X110584761Y-142073333D01*
X110680000Y-142120952D01*
X110727619Y-142168571D01*
X110775238Y-142263809D01*
X110775238Y-142501904D01*
X110727619Y-142597142D01*
X110680000Y-142644761D01*
X110584761Y-142692380D01*
X110346666Y-142692380D01*
X110251428Y-142644761D01*
X110203809Y-142597142D01*
X111060952Y-141692380D02*
X111394285Y-142692380D01*
X111727619Y-141692380D01*
X91987619Y-74613333D02*
X91987619Y-75232380D01*
X91606666Y-74899047D01*
X91606666Y-75041904D01*
X91559047Y-75137142D01*
X91511428Y-75184761D01*
X91416190Y-75232380D01*
X91178095Y-75232380D01*
X91082857Y-75184761D01*
X91035238Y-75137142D01*
X90987619Y-75041904D01*
X90987619Y-74756190D01*
X91035238Y-74660952D01*
X91082857Y-74613333D01*
X91082857Y-75660952D02*
X91035238Y-75708571D01*
X90987619Y-75660952D01*
X91035238Y-75613333D01*
X91082857Y-75660952D01*
X90987619Y-75660952D01*
X91987619Y-76041904D02*
X91987619Y-76660952D01*
X91606666Y-76327619D01*
X91606666Y-76470476D01*
X91559047Y-76565714D01*
X91511428Y-76613333D01*
X91416190Y-76660952D01*
X91178095Y-76660952D01*
X91082857Y-76613333D01*
X91035238Y-76565714D01*
X90987619Y-76470476D01*
X90987619Y-76184761D01*
X91035238Y-76089523D01*
X91082857Y-76041904D01*
X91654285Y-76994285D02*
X90987619Y-77232380D01*
X91654285Y-77470476D01*
X91940000Y-79137142D02*
X91987619Y-79041904D01*
X91987619Y-78899047D01*
X91940000Y-78756190D01*
X91844761Y-78660952D01*
X91749523Y-78613333D01*
X91559047Y-78565714D01*
X91416190Y-78565714D01*
X91225714Y-78613333D01*
X91130476Y-78660952D01*
X91035238Y-78756190D01*
X90987619Y-78899047D01*
X90987619Y-78994285D01*
X91035238Y-79137142D01*
X91082857Y-79184761D01*
X91416190Y-79184761D01*
X91416190Y-78994285D01*
X91654285Y-79613333D02*
X90987619Y-79613333D01*
X91559047Y-79613333D02*
X91606666Y-79660952D01*
X91654285Y-79756190D01*
X91654285Y-79899047D01*
X91606666Y-79994285D01*
X91511428Y-80041904D01*
X90987619Y-80041904D01*
X90987619Y-80946666D02*
X91987619Y-80946666D01*
X91035238Y-80946666D02*
X90987619Y-80851428D01*
X90987619Y-80660952D01*
X91035238Y-80565714D01*
X91082857Y-80518095D01*
X91178095Y-80470476D01*
X91463809Y-80470476D01*
X91559047Y-80518095D01*
X91606666Y-80565714D01*
X91654285Y-80660952D01*
X91654285Y-80851428D01*
X91606666Y-80946666D01*
X91035238Y-82137142D02*
X90987619Y-82280000D01*
X90987619Y-82518095D01*
X91035238Y-82613333D01*
X91082857Y-82660952D01*
X91178095Y-82708571D01*
X91273333Y-82708571D01*
X91368571Y-82660952D01*
X91416190Y-82613333D01*
X91463809Y-82518095D01*
X91511428Y-82327619D01*
X91559047Y-82232380D01*
X91606666Y-82184761D01*
X91701904Y-82137142D01*
X91797142Y-82137142D01*
X91892380Y-82184761D01*
X91940000Y-82232380D01*
X91987619Y-82327619D01*
X91987619Y-82565714D01*
X91940000Y-82708571D01*
X91035238Y-83565714D02*
X90987619Y-83470476D01*
X90987619Y-83280000D01*
X91035238Y-83184761D01*
X91082857Y-83137142D01*
X91178095Y-83089523D01*
X91463809Y-83089523D01*
X91559047Y-83137142D01*
X91606666Y-83184761D01*
X91654285Y-83280000D01*
X91654285Y-83470476D01*
X91606666Y-83565714D01*
X90987619Y-83994285D02*
X91987619Y-83994285D01*
X91368571Y-84089523D02*
X90987619Y-84375238D01*
X91654285Y-84375238D02*
X91273333Y-83994285D01*
X91035238Y-85518095D02*
X90987619Y-85660952D01*
X90987619Y-85899047D01*
X91035238Y-85994285D01*
X91082857Y-86041904D01*
X91178095Y-86089523D01*
X91273333Y-86089523D01*
X91368571Y-86041904D01*
X91416190Y-85994285D01*
X91463809Y-85899047D01*
X91511428Y-85708571D01*
X91559047Y-85613333D01*
X91606666Y-85565714D01*
X91701904Y-85518095D01*
X91797142Y-85518095D01*
X91892380Y-85565714D01*
X91940000Y-85613333D01*
X91987619Y-85708571D01*
X91987619Y-85946666D01*
X91940000Y-86089523D01*
X90987619Y-86946666D02*
X91987619Y-86946666D01*
X91035238Y-86946666D02*
X90987619Y-86851428D01*
X90987619Y-86660952D01*
X91035238Y-86565714D01*
X91082857Y-86518095D01*
X91178095Y-86470476D01*
X91463809Y-86470476D01*
X91559047Y-86518095D01*
X91606666Y-86565714D01*
X91654285Y-86660952D01*
X91654285Y-86851428D01*
X91606666Y-86946666D01*
X90987619Y-87851428D02*
X91511428Y-87851428D01*
X91606666Y-87803809D01*
X91654285Y-87708571D01*
X91654285Y-87518095D01*
X91606666Y-87422857D01*
X91035238Y-87851428D02*
X90987619Y-87756190D01*
X90987619Y-87518095D01*
X91035238Y-87422857D01*
X91130476Y-87375238D01*
X91225714Y-87375238D01*
X91320952Y-87422857D01*
X91368571Y-87518095D01*
X91368571Y-87756190D01*
X91416190Y-87851428D01*
X156218095Y-94432380D02*
X155884761Y-93956190D01*
X155646666Y-94432380D02*
X155646666Y-93432380D01*
X156027619Y-93432380D01*
X156122857Y-93480000D01*
X156170476Y-93527619D01*
X156218095Y-93622857D01*
X156218095Y-93765714D01*
X156170476Y-93860952D01*
X156122857Y-93908571D01*
X156027619Y-93956190D01*
X155646666Y-93956190D01*
X156551428Y-94432380D02*
X157075238Y-93765714D01*
X156551428Y-93765714D02*
X157075238Y-94432380D01*
X158075238Y-93432380D02*
X158646666Y-93432380D01*
X158360952Y-94432380D02*
X158360952Y-93432380D01*
X158884761Y-94432380D02*
X159408571Y-93765714D01*
X158884761Y-93765714D02*
X159408571Y-94432380D01*
X109767619Y-74613333D02*
X109767619Y-75232380D01*
X109386666Y-74899047D01*
X109386666Y-75041904D01*
X109339047Y-75137142D01*
X109291428Y-75184761D01*
X109196190Y-75232380D01*
X108958095Y-75232380D01*
X108862857Y-75184761D01*
X108815238Y-75137142D01*
X108767619Y-75041904D01*
X108767619Y-74756190D01*
X108815238Y-74660952D01*
X108862857Y-74613333D01*
X108862857Y-75660952D02*
X108815238Y-75708571D01*
X108767619Y-75660952D01*
X108815238Y-75613333D01*
X108862857Y-75660952D01*
X108767619Y-75660952D01*
X109767619Y-76041904D02*
X109767619Y-76660952D01*
X109386666Y-76327619D01*
X109386666Y-76470476D01*
X109339047Y-76565714D01*
X109291428Y-76613333D01*
X109196190Y-76660952D01*
X108958095Y-76660952D01*
X108862857Y-76613333D01*
X108815238Y-76565714D01*
X108767619Y-76470476D01*
X108767619Y-76184761D01*
X108815238Y-76089523D01*
X108862857Y-76041904D01*
X109434285Y-76994285D02*
X108767619Y-77232380D01*
X109434285Y-77470476D01*
X109720000Y-79137142D02*
X109767619Y-79041904D01*
X109767619Y-78899047D01*
X109720000Y-78756190D01*
X109624761Y-78660952D01*
X109529523Y-78613333D01*
X109339047Y-78565714D01*
X109196190Y-78565714D01*
X109005714Y-78613333D01*
X108910476Y-78660952D01*
X108815238Y-78756190D01*
X108767619Y-78899047D01*
X108767619Y-78994285D01*
X108815238Y-79137142D01*
X108862857Y-79184761D01*
X109196190Y-79184761D01*
X109196190Y-78994285D01*
X109434285Y-79613333D02*
X108767619Y-79613333D01*
X109339047Y-79613333D02*
X109386666Y-79660952D01*
X109434285Y-79756190D01*
X109434285Y-79899047D01*
X109386666Y-79994285D01*
X109291428Y-80041904D01*
X108767619Y-80041904D01*
X108767619Y-80946666D02*
X109767619Y-80946666D01*
X108815238Y-80946666D02*
X108767619Y-80851428D01*
X108767619Y-80660952D01*
X108815238Y-80565714D01*
X108862857Y-80518095D01*
X108958095Y-80470476D01*
X109243809Y-80470476D01*
X109339047Y-80518095D01*
X109386666Y-80565714D01*
X109434285Y-80660952D01*
X109434285Y-80851428D01*
X109386666Y-80946666D01*
X108815238Y-82137142D02*
X108767619Y-82280000D01*
X108767619Y-82518095D01*
X108815238Y-82613333D01*
X108862857Y-82660952D01*
X108958095Y-82708571D01*
X109053333Y-82708571D01*
X109148571Y-82660952D01*
X109196190Y-82613333D01*
X109243809Y-82518095D01*
X109291428Y-82327619D01*
X109339047Y-82232380D01*
X109386666Y-82184761D01*
X109481904Y-82137142D01*
X109577142Y-82137142D01*
X109672380Y-82184761D01*
X109720000Y-82232380D01*
X109767619Y-82327619D01*
X109767619Y-82565714D01*
X109720000Y-82708571D01*
X108815238Y-83565714D02*
X108767619Y-83470476D01*
X108767619Y-83280000D01*
X108815238Y-83184761D01*
X108862857Y-83137142D01*
X108958095Y-83089523D01*
X109243809Y-83089523D01*
X109339047Y-83137142D01*
X109386666Y-83184761D01*
X109434285Y-83280000D01*
X109434285Y-83470476D01*
X109386666Y-83565714D01*
X108767619Y-83994285D02*
X109767619Y-83994285D01*
X109148571Y-84089523D02*
X108767619Y-84375238D01*
X109434285Y-84375238D02*
X109053333Y-83994285D01*
X108815238Y-85518095D02*
X108767619Y-85660952D01*
X108767619Y-85899047D01*
X108815238Y-85994285D01*
X108862857Y-86041904D01*
X108958095Y-86089523D01*
X109053333Y-86089523D01*
X109148571Y-86041904D01*
X109196190Y-85994285D01*
X109243809Y-85899047D01*
X109291428Y-85708571D01*
X109339047Y-85613333D01*
X109386666Y-85565714D01*
X109481904Y-85518095D01*
X109577142Y-85518095D01*
X109672380Y-85565714D01*
X109720000Y-85613333D01*
X109767619Y-85708571D01*
X109767619Y-85946666D01*
X109720000Y-86089523D01*
X108767619Y-86946666D02*
X109767619Y-86946666D01*
X108815238Y-86946666D02*
X108767619Y-86851428D01*
X108767619Y-86660952D01*
X108815238Y-86565714D01*
X108862857Y-86518095D01*
X108958095Y-86470476D01*
X109243809Y-86470476D01*
X109339047Y-86518095D01*
X109386666Y-86565714D01*
X109434285Y-86660952D01*
X109434285Y-86851428D01*
X109386666Y-86946666D01*
X108767619Y-87851428D02*
X109291428Y-87851428D01*
X109386666Y-87803809D01*
X109434285Y-87708571D01*
X109434285Y-87518095D01*
X109386666Y-87422857D01*
X108815238Y-87851428D02*
X108767619Y-87756190D01*
X108767619Y-87518095D01*
X108815238Y-87422857D01*
X108910476Y-87375238D01*
X109005714Y-87375238D01*
X109100952Y-87422857D01*
X109148571Y-87518095D01*
X109148571Y-87756190D01*
X109196190Y-87851428D01*
X167140000Y-121601904D02*
X167092380Y-121697142D01*
X167092380Y-121840000D01*
X167140000Y-121982857D01*
X167235238Y-122078095D01*
X167330476Y-122125714D01*
X167520952Y-122173333D01*
X167663809Y-122173333D01*
X167854285Y-122125714D01*
X167949523Y-122078095D01*
X168044761Y-121982857D01*
X168092380Y-121840000D01*
X168092380Y-121744761D01*
X168044761Y-121601904D01*
X167997142Y-121554285D01*
X167663809Y-121554285D01*
X167663809Y-121744761D01*
X167425714Y-121125714D02*
X168092380Y-121125714D01*
X167520952Y-121125714D02*
X167473333Y-121078095D01*
X167425714Y-120982857D01*
X167425714Y-120840000D01*
X167473333Y-120744761D01*
X167568571Y-120697142D01*
X168092380Y-120697142D01*
X168092380Y-119792380D02*
X167092380Y-119792380D01*
X168044761Y-119792380D02*
X168092380Y-119887619D01*
X168092380Y-120078095D01*
X168044761Y-120173333D01*
X167997142Y-120220952D01*
X167901904Y-120268571D01*
X167616190Y-120268571D01*
X167520952Y-120220952D01*
X167473333Y-120173333D01*
X167425714Y-120078095D01*
X167425714Y-119887619D01*
X167473333Y-119792380D01*
X167092380Y-118697142D02*
X168092380Y-118363809D01*
X167092380Y-118030476D01*
X168044761Y-117268571D02*
X168092380Y-117363809D01*
X168092380Y-117554285D01*
X168044761Y-117649523D01*
X167997142Y-117697142D01*
X167901904Y-117744761D01*
X167616190Y-117744761D01*
X167520952Y-117697142D01*
X167473333Y-117649523D01*
X167425714Y-117554285D01*
X167425714Y-117363809D01*
X167473333Y-117268571D01*
X168044761Y-116411428D02*
X168092380Y-116506666D01*
X168092380Y-116697142D01*
X168044761Y-116792380D01*
X167997142Y-116840000D01*
X167901904Y-116887619D01*
X167616190Y-116887619D01*
X167520952Y-116840000D01*
X167473333Y-116792380D01*
X167425714Y-116697142D01*
X167425714Y-116506666D01*
X167473333Y-116411428D01*
X168092380Y-115220952D02*
X167092380Y-115220952D01*
X167092380Y-114840000D01*
X167140000Y-114744761D01*
X167187619Y-114697142D01*
X167282857Y-114649523D01*
X167425714Y-114649523D01*
X167520952Y-114697142D01*
X167568571Y-114744761D01*
X167616190Y-114840000D01*
X167616190Y-115220952D01*
X167425714Y-114316190D02*
X168092380Y-114125714D01*
X167616190Y-113935238D01*
X168092380Y-113744761D01*
X167425714Y-113554285D01*
X168092380Y-113173333D02*
X167425714Y-113173333D01*
X167520952Y-113173333D02*
X167473333Y-113125714D01*
X167425714Y-113030476D01*
X167425714Y-112887619D01*
X167473333Y-112792380D01*
X167568571Y-112744761D01*
X168092380Y-112744761D01*
X167568571Y-112744761D02*
X167473333Y-112697142D01*
X167425714Y-112601904D01*
X167425714Y-112459047D01*
X167473333Y-112363809D01*
X167568571Y-112316190D01*
X168092380Y-112316190D01*
X127547619Y-74613333D02*
X127547619Y-75232380D01*
X127166666Y-74899047D01*
X127166666Y-75041904D01*
X127119047Y-75137142D01*
X127071428Y-75184761D01*
X126976190Y-75232380D01*
X126738095Y-75232380D01*
X126642857Y-75184761D01*
X126595238Y-75137142D01*
X126547619Y-75041904D01*
X126547619Y-74756190D01*
X126595238Y-74660952D01*
X126642857Y-74613333D01*
X126642857Y-75660952D02*
X126595238Y-75708571D01*
X126547619Y-75660952D01*
X126595238Y-75613333D01*
X126642857Y-75660952D01*
X126547619Y-75660952D01*
X127547619Y-76041904D02*
X127547619Y-76660952D01*
X127166666Y-76327619D01*
X127166666Y-76470476D01*
X127119047Y-76565714D01*
X127071428Y-76613333D01*
X126976190Y-76660952D01*
X126738095Y-76660952D01*
X126642857Y-76613333D01*
X126595238Y-76565714D01*
X126547619Y-76470476D01*
X126547619Y-76184761D01*
X126595238Y-76089523D01*
X126642857Y-76041904D01*
X127214285Y-76994285D02*
X126547619Y-77232380D01*
X127214285Y-77470476D01*
X127500000Y-79137142D02*
X127547619Y-79041904D01*
X127547619Y-78899047D01*
X127500000Y-78756190D01*
X127404761Y-78660952D01*
X127309523Y-78613333D01*
X127119047Y-78565714D01*
X126976190Y-78565714D01*
X126785714Y-78613333D01*
X126690476Y-78660952D01*
X126595238Y-78756190D01*
X126547619Y-78899047D01*
X126547619Y-78994285D01*
X126595238Y-79137142D01*
X126642857Y-79184761D01*
X126976190Y-79184761D01*
X126976190Y-78994285D01*
X127214285Y-79613333D02*
X126547619Y-79613333D01*
X127119047Y-79613333D02*
X127166666Y-79660952D01*
X127214285Y-79756190D01*
X127214285Y-79899047D01*
X127166666Y-79994285D01*
X127071428Y-80041904D01*
X126547619Y-80041904D01*
X126547619Y-80946666D02*
X127547619Y-80946666D01*
X126595238Y-80946666D02*
X126547619Y-80851428D01*
X126547619Y-80660952D01*
X126595238Y-80565714D01*
X126642857Y-80518095D01*
X126738095Y-80470476D01*
X127023809Y-80470476D01*
X127119047Y-80518095D01*
X127166666Y-80565714D01*
X127214285Y-80660952D01*
X127214285Y-80851428D01*
X127166666Y-80946666D01*
X126595238Y-82137142D02*
X126547619Y-82280000D01*
X126547619Y-82518095D01*
X126595238Y-82613333D01*
X126642857Y-82660952D01*
X126738095Y-82708571D01*
X126833333Y-82708571D01*
X126928571Y-82660952D01*
X126976190Y-82613333D01*
X127023809Y-82518095D01*
X127071428Y-82327619D01*
X127119047Y-82232380D01*
X127166666Y-82184761D01*
X127261904Y-82137142D01*
X127357142Y-82137142D01*
X127452380Y-82184761D01*
X127500000Y-82232380D01*
X127547619Y-82327619D01*
X127547619Y-82565714D01*
X127500000Y-82708571D01*
X126595238Y-83565714D02*
X126547619Y-83470476D01*
X126547619Y-83280000D01*
X126595238Y-83184761D01*
X126642857Y-83137142D01*
X126738095Y-83089523D01*
X127023809Y-83089523D01*
X127119047Y-83137142D01*
X127166666Y-83184761D01*
X127214285Y-83280000D01*
X127214285Y-83470476D01*
X127166666Y-83565714D01*
X126547619Y-83994285D02*
X127547619Y-83994285D01*
X126928571Y-84089523D02*
X126547619Y-84375238D01*
X127214285Y-84375238D02*
X126833333Y-83994285D01*
X126595238Y-85518095D02*
X126547619Y-85660952D01*
X126547619Y-85899047D01*
X126595238Y-85994285D01*
X126642857Y-86041904D01*
X126738095Y-86089523D01*
X126833333Y-86089523D01*
X126928571Y-86041904D01*
X126976190Y-85994285D01*
X127023809Y-85899047D01*
X127071428Y-85708571D01*
X127119047Y-85613333D01*
X127166666Y-85565714D01*
X127261904Y-85518095D01*
X127357142Y-85518095D01*
X127452380Y-85565714D01*
X127500000Y-85613333D01*
X127547619Y-85708571D01*
X127547619Y-85946666D01*
X127500000Y-86089523D01*
X126547619Y-86946666D02*
X127547619Y-86946666D01*
X126595238Y-86946666D02*
X126547619Y-86851428D01*
X126547619Y-86660952D01*
X126595238Y-86565714D01*
X126642857Y-86518095D01*
X126738095Y-86470476D01*
X127023809Y-86470476D01*
X127119047Y-86518095D01*
X127166666Y-86565714D01*
X127214285Y-86660952D01*
X127214285Y-86851428D01*
X127166666Y-86946666D01*
X126547619Y-87851428D02*
X127071428Y-87851428D01*
X127166666Y-87803809D01*
X127214285Y-87708571D01*
X127214285Y-87518095D01*
X127166666Y-87422857D01*
X126595238Y-87851428D02*
X126547619Y-87756190D01*
X126547619Y-87518095D01*
X126595238Y-87422857D01*
X126690476Y-87375238D01*
X126785714Y-87375238D01*
X126880952Y-87422857D01*
X126928571Y-87518095D01*
X126928571Y-87756190D01*
X126976190Y-87851428D01*
X167140000Y-134301904D02*
X167092380Y-134397142D01*
X167092380Y-134540000D01*
X167140000Y-134682857D01*
X167235238Y-134778095D01*
X167330476Y-134825714D01*
X167520952Y-134873333D01*
X167663809Y-134873333D01*
X167854285Y-134825714D01*
X167949523Y-134778095D01*
X168044761Y-134682857D01*
X168092380Y-134540000D01*
X168092380Y-134444761D01*
X168044761Y-134301904D01*
X167997142Y-134254285D01*
X167663809Y-134254285D01*
X167663809Y-134444761D01*
X167425714Y-133825714D02*
X168092380Y-133825714D01*
X167520952Y-133825714D02*
X167473333Y-133778095D01*
X167425714Y-133682857D01*
X167425714Y-133540000D01*
X167473333Y-133444761D01*
X167568571Y-133397142D01*
X168092380Y-133397142D01*
X168092380Y-132492380D02*
X167092380Y-132492380D01*
X168044761Y-132492380D02*
X168092380Y-132587619D01*
X168092380Y-132778095D01*
X168044761Y-132873333D01*
X167997142Y-132920952D01*
X167901904Y-132968571D01*
X167616190Y-132968571D01*
X167520952Y-132920952D01*
X167473333Y-132873333D01*
X167425714Y-132778095D01*
X167425714Y-132587619D01*
X167473333Y-132492380D01*
X167092380Y-131397142D02*
X168092380Y-131063809D01*
X167092380Y-130730476D01*
X168044761Y-129968571D02*
X168092380Y-130063809D01*
X168092380Y-130254285D01*
X168044761Y-130349523D01*
X167997142Y-130397142D01*
X167901904Y-130444761D01*
X167616190Y-130444761D01*
X167520952Y-130397142D01*
X167473333Y-130349523D01*
X167425714Y-130254285D01*
X167425714Y-130063809D01*
X167473333Y-129968571D01*
X168044761Y-129111428D02*
X168092380Y-129206666D01*
X168092380Y-129397142D01*
X168044761Y-129492380D01*
X167997142Y-129540000D01*
X167901904Y-129587619D01*
X167616190Y-129587619D01*
X167520952Y-129540000D01*
X167473333Y-129492380D01*
X167425714Y-129397142D01*
X167425714Y-129206666D01*
X167473333Y-129111428D01*
X168092380Y-127920952D02*
X167092380Y-127920952D01*
X167092380Y-127540000D01*
X167140000Y-127444761D01*
X167187619Y-127397142D01*
X167282857Y-127349523D01*
X167425714Y-127349523D01*
X167520952Y-127397142D01*
X167568571Y-127444761D01*
X167616190Y-127540000D01*
X167616190Y-127920952D01*
X167425714Y-127016190D02*
X168092380Y-126825714D01*
X167616190Y-126635238D01*
X168092380Y-126444761D01*
X167425714Y-126254285D01*
X168092380Y-125873333D02*
X167425714Y-125873333D01*
X167520952Y-125873333D02*
X167473333Y-125825714D01*
X167425714Y-125730476D01*
X167425714Y-125587619D01*
X167473333Y-125492380D01*
X167568571Y-125444761D01*
X168092380Y-125444761D01*
X167568571Y-125444761D02*
X167473333Y-125397142D01*
X167425714Y-125301904D01*
X167425714Y-125159047D01*
X167473333Y-125063809D01*
X167568571Y-125016190D01*
X168092380Y-125016190D01*
X147947142Y-93480000D02*
X147851904Y-93432380D01*
X147709047Y-93432380D01*
X147566190Y-93480000D01*
X147470952Y-93575238D01*
X147423333Y-93670476D01*
X147375714Y-93860952D01*
X147375714Y-94003809D01*
X147423333Y-94194285D01*
X147470952Y-94289523D01*
X147566190Y-94384761D01*
X147709047Y-94432380D01*
X147804285Y-94432380D01*
X147947142Y-94384761D01*
X147994761Y-94337142D01*
X147994761Y-94003809D01*
X147804285Y-94003809D01*
X148423333Y-93765714D02*
X148423333Y-94432380D01*
X148423333Y-93860952D02*
X148470952Y-93813333D01*
X148566190Y-93765714D01*
X148709047Y-93765714D01*
X148804285Y-93813333D01*
X148851904Y-93908571D01*
X148851904Y-94432380D01*
X149756666Y-94432380D02*
X149756666Y-93432380D01*
X149756666Y-94384761D02*
X149661428Y-94432380D01*
X149470952Y-94432380D01*
X149375714Y-94384761D01*
X149328095Y-94337142D01*
X149280476Y-94241904D01*
X149280476Y-93956190D01*
X149328095Y-93860952D01*
X149375714Y-93813333D01*
X149470952Y-93765714D01*
X149661428Y-93765714D01*
X149756666Y-93813333D01*
X147003333Y-78192380D02*
X147622380Y-78192380D01*
X147289047Y-78573333D01*
X147431904Y-78573333D01*
X147527142Y-78620952D01*
X147574761Y-78668571D01*
X147622380Y-78763809D01*
X147622380Y-79001904D01*
X147574761Y-79097142D01*
X147527142Y-79144761D01*
X147431904Y-79192380D01*
X147146190Y-79192380D01*
X147050952Y-79144761D01*
X147003333Y-79097142D01*
X148050952Y-79097142D02*
X148098571Y-79144761D01*
X148050952Y-79192380D01*
X148003333Y-79144761D01*
X148050952Y-79097142D01*
X148050952Y-79192380D01*
X148431904Y-78192380D02*
X149050952Y-78192380D01*
X148717619Y-78573333D01*
X148860476Y-78573333D01*
X148955714Y-78620952D01*
X149003333Y-78668571D01*
X149050952Y-78763809D01*
X149050952Y-79001904D01*
X149003333Y-79097142D01*
X148955714Y-79144761D01*
X148860476Y-79192380D01*
X148574761Y-79192380D01*
X148479523Y-79144761D01*
X148431904Y-79097142D01*
X149384285Y-78525714D02*
X149622380Y-79192380D01*
X149860476Y-78525714D01*
X151527142Y-78240000D02*
X151431904Y-78192380D01*
X151289047Y-78192380D01*
X151146190Y-78240000D01*
X151050952Y-78335238D01*
X151003333Y-78430476D01*
X150955714Y-78620952D01*
X150955714Y-78763809D01*
X151003333Y-78954285D01*
X151050952Y-79049523D01*
X151146190Y-79144761D01*
X151289047Y-79192380D01*
X151384285Y-79192380D01*
X151527142Y-79144761D01*
X151574761Y-79097142D01*
X151574761Y-78763809D01*
X151384285Y-78763809D01*
X152003333Y-78525714D02*
X152003333Y-79192380D01*
X152003333Y-78620952D02*
X152050952Y-78573333D01*
X152146190Y-78525714D01*
X152289047Y-78525714D01*
X152384285Y-78573333D01*
X152431904Y-78668571D01*
X152431904Y-79192380D01*
X153336666Y-79192380D02*
X153336666Y-78192380D01*
X153336666Y-79144761D02*
X153241428Y-79192380D01*
X153050952Y-79192380D01*
X152955714Y-79144761D01*
X152908095Y-79097142D01*
X152860476Y-79001904D01*
X152860476Y-78716190D01*
X152908095Y-78620952D01*
X152955714Y-78573333D01*
X153050952Y-78525714D01*
X153241428Y-78525714D01*
X153336666Y-78573333D01*
X154527142Y-79144761D02*
X154670000Y-79192380D01*
X154908095Y-79192380D01*
X155003333Y-79144761D01*
X155050952Y-79097142D01*
X155098571Y-79001904D01*
X155098571Y-78906666D01*
X155050952Y-78811428D01*
X155003333Y-78763809D01*
X154908095Y-78716190D01*
X154717619Y-78668571D01*
X154622380Y-78620952D01*
X154574761Y-78573333D01*
X154527142Y-78478095D01*
X154527142Y-78382857D01*
X154574761Y-78287619D01*
X154622380Y-78240000D01*
X154717619Y-78192380D01*
X154955714Y-78192380D01*
X155098571Y-78240000D01*
X155955714Y-79144761D02*
X155860476Y-79192380D01*
X155670000Y-79192380D01*
X155574761Y-79144761D01*
X155527142Y-79097142D01*
X155479523Y-79001904D01*
X155479523Y-78716190D01*
X155527142Y-78620952D01*
X155574761Y-78573333D01*
X155670000Y-78525714D01*
X155860476Y-78525714D01*
X155955714Y-78573333D01*
X156384285Y-79192380D02*
X156384285Y-78192380D01*
X156479523Y-78811428D02*
X156765238Y-79192380D01*
X156765238Y-78525714D02*
X156384285Y-78906666D01*
X157908095Y-79144761D02*
X158050952Y-79192380D01*
X158289047Y-79192380D01*
X158384285Y-79144761D01*
X158431904Y-79097142D01*
X158479523Y-79001904D01*
X158479523Y-78906666D01*
X158431904Y-78811428D01*
X158384285Y-78763809D01*
X158289047Y-78716190D01*
X158098571Y-78668571D01*
X158003333Y-78620952D01*
X157955714Y-78573333D01*
X157908095Y-78478095D01*
X157908095Y-78382857D01*
X157955714Y-78287619D01*
X158003333Y-78240000D01*
X158098571Y-78192380D01*
X158336666Y-78192380D01*
X158479523Y-78240000D01*
X159336666Y-79192380D02*
X159336666Y-78192380D01*
X159336666Y-79144761D02*
X159241428Y-79192380D01*
X159050952Y-79192380D01*
X158955714Y-79144761D01*
X158908095Y-79097142D01*
X158860476Y-79001904D01*
X158860476Y-78716190D01*
X158908095Y-78620952D01*
X158955714Y-78573333D01*
X159050952Y-78525714D01*
X159241428Y-78525714D01*
X159336666Y-78573333D01*
X160241428Y-79192380D02*
X160241428Y-78668571D01*
X160193809Y-78573333D01*
X160098571Y-78525714D01*
X159908095Y-78525714D01*
X159812857Y-78573333D01*
X160241428Y-79144761D02*
X160146190Y-79192380D01*
X159908095Y-79192380D01*
X159812857Y-79144761D01*
X159765238Y-79049523D01*
X159765238Y-78954285D01*
X159812857Y-78859047D01*
X159908095Y-78811428D01*
X160146190Y-78811428D01*
X160241428Y-78763809D01*
X93662857Y-93257619D02*
X93567619Y-93210000D01*
X93472380Y-93114761D01*
X93329523Y-92971904D01*
X93234285Y-92924285D01*
X93139047Y-92924285D01*
X93186666Y-93162380D02*
X93091428Y-93114761D01*
X92996190Y-93019523D01*
X92948571Y-92829047D01*
X92948571Y-92495714D01*
X92996190Y-92305238D01*
X93091428Y-92210000D01*
X93186666Y-92162380D01*
X93377142Y-92162380D01*
X93472380Y-92210000D01*
X93567619Y-92305238D01*
X93615238Y-92495714D01*
X93615238Y-92829047D01*
X93567619Y-93019523D01*
X93472380Y-93114761D01*
X93377142Y-93162380D01*
X93186666Y-93162380D01*
X94043809Y-93162380D02*
X94043809Y-92162380D01*
X94377142Y-92876666D01*
X94710476Y-92162380D01*
X94710476Y-93162380D01*
X95758095Y-93067142D02*
X95710476Y-93114761D01*
X95567619Y-93162380D01*
X95472380Y-93162380D01*
X95329523Y-93114761D01*
X95234285Y-93019523D01*
X95186666Y-92924285D01*
X95139047Y-92733809D01*
X95139047Y-92590952D01*
X95186666Y-92400476D01*
X95234285Y-92305238D01*
X95329523Y-92210000D01*
X95472380Y-92162380D01*
X95567619Y-92162380D01*
X95710476Y-92210000D01*
X95758095Y-92257619D01*
X96662857Y-92162380D02*
X96186666Y-92162380D01*
X96139047Y-92638571D01*
X96186666Y-92590952D01*
X96281904Y-92543333D01*
X96520000Y-92543333D01*
X96615238Y-92590952D01*
X96662857Y-92638571D01*
X96710476Y-92733809D01*
X96710476Y-92971904D01*
X96662857Y-93067142D01*
X96615238Y-93114761D01*
X96520000Y-93162380D01*
X96281904Y-93162380D01*
X96186666Y-93114761D01*
X96139047Y-93067142D01*
X97281904Y-92590952D02*
X97186666Y-92543333D01*
X97139047Y-92495714D01*
X97091428Y-92400476D01*
X97091428Y-92352857D01*
X97139047Y-92257619D01*
X97186666Y-92210000D01*
X97281904Y-92162380D01*
X97472380Y-92162380D01*
X97567619Y-92210000D01*
X97615238Y-92257619D01*
X97662857Y-92352857D01*
X97662857Y-92400476D01*
X97615238Y-92495714D01*
X97567619Y-92543333D01*
X97472380Y-92590952D01*
X97281904Y-92590952D01*
X97186666Y-92638571D01*
X97139047Y-92686190D01*
X97091428Y-92781428D01*
X97091428Y-92971904D01*
X97139047Y-93067142D01*
X97186666Y-93114761D01*
X97281904Y-93162380D01*
X97472380Y-93162380D01*
X97567619Y-93114761D01*
X97615238Y-93067142D01*
X97662857Y-92971904D01*
X97662857Y-92781428D01*
X97615238Y-92686190D01*
X97567619Y-92638571D01*
X97472380Y-92590952D01*
X98234285Y-92590952D02*
X98139047Y-92543333D01*
X98091428Y-92495714D01*
X98043809Y-92400476D01*
X98043809Y-92352857D01*
X98091428Y-92257619D01*
X98139047Y-92210000D01*
X98234285Y-92162380D01*
X98424761Y-92162380D01*
X98520000Y-92210000D01*
X98567619Y-92257619D01*
X98615238Y-92352857D01*
X98615238Y-92400476D01*
X98567619Y-92495714D01*
X98520000Y-92543333D01*
X98424761Y-92590952D01*
X98234285Y-92590952D01*
X98139047Y-92638571D01*
X98091428Y-92686190D01*
X98043809Y-92781428D01*
X98043809Y-92971904D01*
X98091428Y-93067142D01*
X98139047Y-93114761D01*
X98234285Y-93162380D01*
X98424761Y-93162380D01*
X98520000Y-93114761D01*
X98567619Y-93067142D01*
X98615238Y-92971904D01*
X98615238Y-92781428D01*
X98567619Y-92686190D01*
X98520000Y-92638571D01*
X98424761Y-92590952D01*
X98948571Y-92162380D02*
X99567619Y-92162380D01*
X99234285Y-92543333D01*
X99377142Y-92543333D01*
X99472380Y-92590952D01*
X99520000Y-92638571D01*
X99567619Y-92733809D01*
X99567619Y-92971904D01*
X99520000Y-93067142D01*
X99472380Y-93114761D01*
X99377142Y-93162380D01*
X99091428Y-93162380D01*
X98996190Y-93114761D01*
X98948571Y-93067142D01*
X100139047Y-93162380D02*
X100043809Y-93114761D01*
X99996190Y-93019523D01*
X99996190Y-92162380D01*
X81780000Y-112713095D02*
X81827619Y-112617857D01*
X81827619Y-112475000D01*
X81780000Y-112332142D01*
X81684761Y-112236904D01*
X81589523Y-112189285D01*
X81399047Y-112141666D01*
X81256190Y-112141666D01*
X81065714Y-112189285D01*
X80970476Y-112236904D01*
X80875238Y-112332142D01*
X80827619Y-112475000D01*
X80827619Y-112570238D01*
X80875238Y-112713095D01*
X80922857Y-112760714D01*
X81256190Y-112760714D01*
X81256190Y-112570238D01*
X81494285Y-113189285D02*
X80827619Y-113189285D01*
X81399047Y-113189285D02*
X81446666Y-113236904D01*
X81494285Y-113332142D01*
X81494285Y-113475000D01*
X81446666Y-113570238D01*
X81351428Y-113617857D01*
X80827619Y-113617857D01*
X80827619Y-114522619D02*
X81827619Y-114522619D01*
X80875238Y-114522619D02*
X80827619Y-114427380D01*
X80827619Y-114236904D01*
X80875238Y-114141666D01*
X80922857Y-114094047D01*
X81018095Y-114046428D01*
X81303809Y-114046428D01*
X81399047Y-114094047D01*
X81446666Y-114141666D01*
X81494285Y-114236904D01*
X81494285Y-114427380D01*
X81446666Y-114522619D01*
X81827619Y-115617857D02*
X80827619Y-115951190D01*
X81827619Y-116284523D01*
X80875238Y-117046428D02*
X80827619Y-116951190D01*
X80827619Y-116760714D01*
X80875238Y-116665476D01*
X80922857Y-116617857D01*
X81018095Y-116570238D01*
X81303809Y-116570238D01*
X81399047Y-116617857D01*
X81446666Y-116665476D01*
X81494285Y-116760714D01*
X81494285Y-116951190D01*
X81446666Y-117046428D01*
X80875238Y-117903571D02*
X80827619Y-117808333D01*
X80827619Y-117617857D01*
X80875238Y-117522619D01*
X80922857Y-117475000D01*
X81018095Y-117427380D01*
X81303809Y-117427380D01*
X81399047Y-117475000D01*
X81446666Y-117522619D01*
X81494285Y-117617857D01*
X81494285Y-117808333D01*
X81446666Y-117903571D01*
X80827619Y-119094047D02*
X81827619Y-119094047D01*
X81827619Y-119475000D01*
X81780000Y-119570238D01*
X81732380Y-119617857D01*
X81637142Y-119665476D01*
X81494285Y-119665476D01*
X81399047Y-119617857D01*
X81351428Y-119570238D01*
X81303809Y-119475000D01*
X81303809Y-119094047D01*
X81494285Y-119998809D02*
X80827619Y-120189285D01*
X81303809Y-120379761D01*
X80827619Y-120570238D01*
X81494285Y-120760714D01*
X80827619Y-121141666D02*
X81494285Y-121141666D01*
X81399047Y-121141666D02*
X81446666Y-121189285D01*
X81494285Y-121284523D01*
X81494285Y-121427380D01*
X81446666Y-121522619D01*
X81351428Y-121570238D01*
X80827619Y-121570238D01*
X81351428Y-121570238D02*
X81446666Y-121617857D01*
X81494285Y-121713095D01*
X81494285Y-121855952D01*
X81446666Y-121951190D01*
X81351428Y-121998809D01*
X80827619Y-121998809D01*
X81780000Y-125413095D02*
X81827619Y-125317857D01*
X81827619Y-125175000D01*
X81780000Y-125032142D01*
X81684761Y-124936904D01*
X81589523Y-124889285D01*
X81399047Y-124841666D01*
X81256190Y-124841666D01*
X81065714Y-124889285D01*
X80970476Y-124936904D01*
X80875238Y-125032142D01*
X80827619Y-125175000D01*
X80827619Y-125270238D01*
X80875238Y-125413095D01*
X80922857Y-125460714D01*
X81256190Y-125460714D01*
X81256190Y-125270238D01*
X81494285Y-125889285D02*
X80827619Y-125889285D01*
X81399047Y-125889285D02*
X81446666Y-125936904D01*
X81494285Y-126032142D01*
X81494285Y-126175000D01*
X81446666Y-126270238D01*
X81351428Y-126317857D01*
X80827619Y-126317857D01*
X80827619Y-127222619D02*
X81827619Y-127222619D01*
X80875238Y-127222619D02*
X80827619Y-127127380D01*
X80827619Y-126936904D01*
X80875238Y-126841666D01*
X80922857Y-126794047D01*
X81018095Y-126746428D01*
X81303809Y-126746428D01*
X81399047Y-126794047D01*
X81446666Y-126841666D01*
X81494285Y-126936904D01*
X81494285Y-127127380D01*
X81446666Y-127222619D01*
X81827619Y-128317857D02*
X80827619Y-128651190D01*
X81827619Y-128984523D01*
X80875238Y-129746428D02*
X80827619Y-129651190D01*
X80827619Y-129460714D01*
X80875238Y-129365476D01*
X80922857Y-129317857D01*
X81018095Y-129270238D01*
X81303809Y-129270238D01*
X81399047Y-129317857D01*
X81446666Y-129365476D01*
X81494285Y-129460714D01*
X81494285Y-129651190D01*
X81446666Y-129746428D01*
X80875238Y-130603571D02*
X80827619Y-130508333D01*
X80827619Y-130317857D01*
X80875238Y-130222619D01*
X80922857Y-130175000D01*
X81018095Y-130127380D01*
X81303809Y-130127380D01*
X81399047Y-130175000D01*
X81446666Y-130222619D01*
X81494285Y-130317857D01*
X81494285Y-130508333D01*
X81446666Y-130603571D01*
X80827619Y-131794047D02*
X81827619Y-131794047D01*
X81827619Y-132175000D01*
X81780000Y-132270238D01*
X81732380Y-132317857D01*
X81637142Y-132365476D01*
X81494285Y-132365476D01*
X81399047Y-132317857D01*
X81351428Y-132270238D01*
X81303809Y-132175000D01*
X81303809Y-131794047D01*
X81494285Y-132698809D02*
X80827619Y-132889285D01*
X81303809Y-133079761D01*
X80827619Y-133270238D01*
X81494285Y-133460714D01*
X80827619Y-133841666D02*
X81494285Y-133841666D01*
X81399047Y-133841666D02*
X81446666Y-133889285D01*
X81494285Y-133984523D01*
X81494285Y-134127380D01*
X81446666Y-134222619D01*
X81351428Y-134270238D01*
X80827619Y-134270238D01*
X81351428Y-134270238D02*
X81446666Y-134317857D01*
X81494285Y-134413095D01*
X81494285Y-134555952D01*
X81446666Y-134651190D01*
X81351428Y-134698809D01*
X80827619Y-134698809D01*
X85907619Y-102163809D02*
X86907619Y-102163809D01*
X86907619Y-102544761D01*
X86860000Y-102640000D01*
X86812380Y-102687619D01*
X86717142Y-102735238D01*
X86574285Y-102735238D01*
X86479047Y-102687619D01*
X86431428Y-102640000D01*
X86383809Y-102544761D01*
X86383809Y-102163809D01*
X85907619Y-103306666D02*
X85955238Y-103211428D01*
X86002857Y-103163809D01*
X86098095Y-103116190D01*
X86383809Y-103116190D01*
X86479047Y-103163809D01*
X86526666Y-103211428D01*
X86574285Y-103306666D01*
X86574285Y-103449523D01*
X86526666Y-103544761D01*
X86479047Y-103592380D01*
X86383809Y-103640000D01*
X86098095Y-103640000D01*
X86002857Y-103592380D01*
X85955238Y-103544761D01*
X85907619Y-103449523D01*
X85907619Y-103306666D01*
X86574285Y-103973333D02*
X85907619Y-104163809D01*
X86383809Y-104354285D01*
X85907619Y-104544761D01*
X86574285Y-104735238D01*
X85955238Y-105497142D02*
X85907619Y-105401904D01*
X85907619Y-105211428D01*
X85955238Y-105116190D01*
X86050476Y-105068571D01*
X86431428Y-105068571D01*
X86526666Y-105116190D01*
X86574285Y-105211428D01*
X86574285Y-105401904D01*
X86526666Y-105497142D01*
X86431428Y-105544761D01*
X86336190Y-105544761D01*
X86240952Y-105068571D01*
X85907619Y-105973333D02*
X86574285Y-105973333D01*
X86383809Y-105973333D02*
X86479047Y-106020952D01*
X86526666Y-106068571D01*
X86574285Y-106163809D01*
X86574285Y-106259047D01*
X81780000Y-102719523D02*
X81827619Y-102624285D01*
X81827619Y-102481428D01*
X81780000Y-102338571D01*
X81684761Y-102243333D01*
X81589523Y-102195714D01*
X81399047Y-102148095D01*
X81256190Y-102148095D01*
X81065714Y-102195714D01*
X80970476Y-102243333D01*
X80875238Y-102338571D01*
X80827619Y-102481428D01*
X80827619Y-102576666D01*
X80875238Y-102719523D01*
X80922857Y-102767142D01*
X81256190Y-102767142D01*
X81256190Y-102576666D01*
X81494285Y-103195714D02*
X80827619Y-103195714D01*
X81399047Y-103195714D02*
X81446666Y-103243333D01*
X81494285Y-103338571D01*
X81494285Y-103481428D01*
X81446666Y-103576666D01*
X81351428Y-103624285D01*
X80827619Y-103624285D01*
X80827619Y-104529047D02*
X81827619Y-104529047D01*
X80875238Y-104529047D02*
X80827619Y-104433809D01*
X80827619Y-104243333D01*
X80875238Y-104148095D01*
X80922857Y-104100476D01*
X81018095Y-104052857D01*
X81303809Y-104052857D01*
X81399047Y-104100476D01*
X81446666Y-104148095D01*
X81494285Y-104243333D01*
X81494285Y-104433809D01*
X81446666Y-104529047D01*
X81827619Y-105624285D02*
X80827619Y-105957619D01*
X81827619Y-106290952D01*
X80875238Y-107052857D02*
X80827619Y-106957619D01*
X80827619Y-106767142D01*
X80875238Y-106671904D01*
X80922857Y-106624285D01*
X81018095Y-106576666D01*
X81303809Y-106576666D01*
X81399047Y-106624285D01*
X81446666Y-106671904D01*
X81494285Y-106767142D01*
X81494285Y-106957619D01*
X81446666Y-107052857D01*
X80875238Y-107910000D02*
X80827619Y-107814761D01*
X80827619Y-107624285D01*
X80875238Y-107529047D01*
X80922857Y-107481428D01*
X81018095Y-107433809D01*
X81303809Y-107433809D01*
X81399047Y-107481428D01*
X81446666Y-107529047D01*
X81494285Y-107624285D01*
X81494285Y-107814761D01*
X81446666Y-107910000D01*
%TO.C,U1*%
X151852380Y-117601904D02*
X152661904Y-117601904D01*
X152757142Y-117554285D01*
X152804761Y-117506666D01*
X152852380Y-117411428D01*
X152852380Y-117220952D01*
X152804761Y-117125714D01*
X152757142Y-117078095D01*
X152661904Y-117030476D01*
X151852380Y-117030476D01*
X152852380Y-116030476D02*
X152852380Y-116601904D01*
X152852380Y-116316190D02*
X151852380Y-116316190D01*
X151995238Y-116411428D01*
X152090476Y-116506666D01*
X152138095Y-116601904D01*
%TO.C,J6*%
X134286666Y-135342380D02*
X134286666Y-136056666D01*
X134239047Y-136199523D01*
X134143809Y-136294761D01*
X134000952Y-136342380D01*
X133905714Y-136342380D01*
X135191428Y-135342380D02*
X135000952Y-135342380D01*
X134905714Y-135390000D01*
X134858095Y-135437619D01*
X134762857Y-135580476D01*
X134715238Y-135770952D01*
X134715238Y-136151904D01*
X134762857Y-136247142D01*
X134810476Y-136294761D01*
X134905714Y-136342380D01*
X135096190Y-136342380D01*
X135191428Y-136294761D01*
X135239047Y-136247142D01*
X135286666Y-136151904D01*
X135286666Y-135913809D01*
X135239047Y-135818571D01*
X135191428Y-135770952D01*
X135096190Y-135723333D01*
X134905714Y-135723333D01*
X134810476Y-135770952D01*
X134762857Y-135818571D01*
X134715238Y-135913809D01*
%TO.C,J13*%
X159262380Y-82089523D02*
X159976666Y-82089523D01*
X160119523Y-82137142D01*
X160214761Y-82232380D01*
X160262380Y-82375238D01*
X160262380Y-82470476D01*
X160262380Y-81089523D02*
X160262380Y-81660952D01*
X160262380Y-81375238D02*
X159262380Y-81375238D01*
X159405238Y-81470476D01*
X159500476Y-81565714D01*
X159548095Y-81660952D01*
X159262380Y-80756190D02*
X159262380Y-80137142D01*
X159643333Y-80470476D01*
X159643333Y-80327619D01*
X159690952Y-80232380D01*
X159738571Y-80184761D01*
X159833809Y-80137142D01*
X160071904Y-80137142D01*
X160167142Y-80184761D01*
X160214761Y-80232380D01*
X160262380Y-80327619D01*
X160262380Y-80613333D01*
X160214761Y-80708571D01*
X160167142Y-80756190D01*
%TO.C,H4*%
X157988095Y-141422380D02*
X157988095Y-140422380D01*
X157988095Y-140898571D02*
X158559523Y-140898571D01*
X158559523Y-141422380D02*
X158559523Y-140422380D01*
X159464285Y-140755714D02*
X159464285Y-141422380D01*
X159226190Y-140374761D02*
X158988095Y-141089047D01*
X159607142Y-141089047D01*
%TO.C,J2*%
X83486666Y-111422380D02*
X83486666Y-112136666D01*
X83439047Y-112279523D01*
X83343809Y-112374761D01*
X83200952Y-112422380D01*
X83105714Y-112422380D01*
X83915238Y-111517619D02*
X83962857Y-111470000D01*
X84058095Y-111422380D01*
X84296190Y-111422380D01*
X84391428Y-111470000D01*
X84439047Y-111517619D01*
X84486666Y-111612857D01*
X84486666Y-111708095D01*
X84439047Y-111850952D01*
X83867619Y-112422380D01*
X84486666Y-112422380D01*
%TO.C,J5*%
X83486666Y-101262380D02*
X83486666Y-101976666D01*
X83439047Y-102119523D01*
X83343809Y-102214761D01*
X83200952Y-102262380D01*
X83105714Y-102262380D01*
X84439047Y-101262380D02*
X83962857Y-101262380D01*
X83915238Y-101738571D01*
X83962857Y-101690952D01*
X84058095Y-101643333D01*
X84296190Y-101643333D01*
X84391428Y-101690952D01*
X84439047Y-101738571D01*
X84486666Y-101833809D01*
X84486666Y-102071904D01*
X84439047Y-102167142D01*
X84391428Y-102214761D01*
X84296190Y-102262380D01*
X84058095Y-102262380D01*
X83962857Y-102214761D01*
X83915238Y-102167142D01*
%TO.C,H3*%
X83058095Y-76432380D02*
X83058095Y-75432380D01*
X83058095Y-75908571D02*
X83629523Y-75908571D01*
X83629523Y-76432380D02*
X83629523Y-75432380D01*
X84010476Y-75432380D02*
X84629523Y-75432380D01*
X84296190Y-75813333D01*
X84439047Y-75813333D01*
X84534285Y-75860952D01*
X84581904Y-75908571D01*
X84629523Y-76003809D01*
X84629523Y-76241904D01*
X84581904Y-76337142D01*
X84534285Y-76384761D01*
X84439047Y-76432380D01*
X84153333Y-76432380D01*
X84058095Y-76384761D01*
X84010476Y-76337142D01*
%TO.C,J11*%
X110950476Y-75422380D02*
X110950476Y-76136666D01*
X110902857Y-76279523D01*
X110807619Y-76374761D01*
X110664761Y-76422380D01*
X110569523Y-76422380D01*
X111950476Y-76422380D02*
X111379047Y-76422380D01*
X111664761Y-76422380D02*
X111664761Y-75422380D01*
X111569523Y-75565238D01*
X111474285Y-75660476D01*
X111379047Y-75708095D01*
X112902857Y-76422380D02*
X112331428Y-76422380D01*
X112617142Y-76422380D02*
X112617142Y-75422380D01*
X112521904Y-75565238D01*
X112426666Y-75660476D01*
X112331428Y-75708095D01*
%TO.C,J12*%
X128730476Y-75422380D02*
X128730476Y-76136666D01*
X128682857Y-76279523D01*
X128587619Y-76374761D01*
X128444761Y-76422380D01*
X128349523Y-76422380D01*
X129730476Y-76422380D02*
X129159047Y-76422380D01*
X129444761Y-76422380D02*
X129444761Y-75422380D01*
X129349523Y-75565238D01*
X129254285Y-75660476D01*
X129159047Y-75708095D01*
X130111428Y-75517619D02*
X130159047Y-75470000D01*
X130254285Y-75422380D01*
X130492380Y-75422380D01*
X130587619Y-75470000D01*
X130635238Y-75517619D01*
X130682857Y-75612857D01*
X130682857Y-75708095D01*
X130635238Y-75850952D01*
X130063809Y-76422380D01*
X130682857Y-76422380D01*
%TO.C,J10*%
X93170476Y-75422380D02*
X93170476Y-76136666D01*
X93122857Y-76279523D01*
X93027619Y-76374761D01*
X92884761Y-76422380D01*
X92789523Y-76422380D01*
X94170476Y-76422380D02*
X93599047Y-76422380D01*
X93884761Y-76422380D02*
X93884761Y-75422380D01*
X93789523Y-75565238D01*
X93694285Y-75660476D01*
X93599047Y-75708095D01*
X94789523Y-75422380D02*
X94884761Y-75422380D01*
X94980000Y-75470000D01*
X95027619Y-75517619D01*
X95075238Y-75612857D01*
X95122857Y-75803333D01*
X95122857Y-76041428D01*
X95075238Y-76231904D01*
X95027619Y-76327142D01*
X94980000Y-76374761D01*
X94884761Y-76422380D01*
X94789523Y-76422380D01*
X94694285Y-76374761D01*
X94646666Y-76327142D01*
X94599047Y-76231904D01*
X94551428Y-76041428D01*
X94551428Y-75803333D01*
X94599047Y-75612857D01*
X94646666Y-75517619D01*
X94694285Y-75470000D01*
X94789523Y-75422380D01*
%TO.C,J3*%
X162226666Y-133862380D02*
X162226666Y-134576666D01*
X162179047Y-134719523D01*
X162083809Y-134814761D01*
X161940952Y-134862380D01*
X161845714Y-134862380D01*
X162607619Y-133862380D02*
X163226666Y-133862380D01*
X162893333Y-134243333D01*
X163036190Y-134243333D01*
X163131428Y-134290952D01*
X163179047Y-134338571D01*
X163226666Y-134433809D01*
X163226666Y-134671904D01*
X163179047Y-134767142D01*
X163131428Y-134814761D01*
X163036190Y-134862380D01*
X162750476Y-134862380D01*
X162655238Y-134814761D01*
X162607619Y-134767142D01*
%TO.C,J4*%
X163512380Y-96853333D02*
X164226666Y-96853333D01*
X164369523Y-96900952D01*
X164464761Y-96996190D01*
X164512380Y-97139047D01*
X164512380Y-97234285D01*
X163845714Y-95948571D02*
X164512380Y-95948571D01*
X163464761Y-96186666D02*
X164179047Y-96424761D01*
X164179047Y-95805714D01*
%TO.C,J8*%
X100002380Y-140033333D02*
X100716666Y-140033333D01*
X100859523Y-140080952D01*
X100954761Y-140176190D01*
X101002380Y-140319047D01*
X101002380Y-140414285D01*
X100430952Y-139414285D02*
X100383333Y-139509523D01*
X100335714Y-139557142D01*
X100240476Y-139604761D01*
X100192857Y-139604761D01*
X100097619Y-139557142D01*
X100050000Y-139509523D01*
X100002380Y-139414285D01*
X100002380Y-139223809D01*
X100050000Y-139128571D01*
X100097619Y-139080952D01*
X100192857Y-139033333D01*
X100240476Y-139033333D01*
X100335714Y-139080952D01*
X100383333Y-139128571D01*
X100430952Y-139223809D01*
X100430952Y-139414285D01*
X100478571Y-139509523D01*
X100526190Y-139557142D01*
X100621428Y-139604761D01*
X100811904Y-139604761D01*
X100907142Y-139557142D01*
X100954761Y-139509523D01*
X101002380Y-139414285D01*
X101002380Y-139223809D01*
X100954761Y-139128571D01*
X100907142Y-139080952D01*
X100811904Y-139033333D01*
X100621428Y-139033333D01*
X100526190Y-139080952D01*
X100478571Y-139128571D01*
X100430952Y-139223809D01*
%TO.C,H2*%
X83058095Y-134852380D02*
X83058095Y-133852380D01*
X83058095Y-134328571D02*
X83629523Y-134328571D01*
X83629523Y-134852380D02*
X83629523Y-133852380D01*
X84058095Y-133947619D02*
X84105714Y-133900000D01*
X84200952Y-133852380D01*
X84439047Y-133852380D01*
X84534285Y-133900000D01*
X84581904Y-133947619D01*
X84629523Y-134042857D01*
X84629523Y-134138095D01*
X84581904Y-134280952D01*
X84010476Y-134852380D01*
X84629523Y-134852380D01*
%TO.C,R10k1*%
X116586190Y-113482380D02*
X116252857Y-113006190D01*
X116014761Y-113482380D02*
X116014761Y-112482380D01*
X116395714Y-112482380D01*
X116490952Y-112530000D01*
X116538571Y-112577619D01*
X116586190Y-112672857D01*
X116586190Y-112815714D01*
X116538571Y-112910952D01*
X116490952Y-112958571D01*
X116395714Y-113006190D01*
X116014761Y-113006190D01*
X117538571Y-113482380D02*
X116967142Y-113482380D01*
X117252857Y-113482380D02*
X117252857Y-112482380D01*
X117157619Y-112625238D01*
X117062380Y-112720476D01*
X116967142Y-112768095D01*
X118157619Y-112482380D02*
X118252857Y-112482380D01*
X118348095Y-112530000D01*
X118395714Y-112577619D01*
X118443333Y-112672857D01*
X118490952Y-112863333D01*
X118490952Y-113101428D01*
X118443333Y-113291904D01*
X118395714Y-113387142D01*
X118348095Y-113434761D01*
X118252857Y-113482380D01*
X118157619Y-113482380D01*
X118062380Y-113434761D01*
X118014761Y-113387142D01*
X117967142Y-113291904D01*
X117919523Y-113101428D01*
X117919523Y-112863333D01*
X117967142Y-112672857D01*
X118014761Y-112577619D01*
X118062380Y-112530000D01*
X118157619Y-112482380D01*
X118919523Y-113482380D02*
X118919523Y-112482380D01*
X119014761Y-113101428D02*
X119300476Y-113482380D01*
X119300476Y-112815714D02*
X118919523Y-113196666D01*
X120252857Y-113482380D02*
X119681428Y-113482380D01*
X119967142Y-113482380D02*
X119967142Y-112482380D01*
X119871904Y-112625238D01*
X119776666Y-112720476D01*
X119681428Y-112768095D01*
%TO.C,H1*%
X164338095Y-76432380D02*
X164338095Y-75432380D01*
X164338095Y-75908571D02*
X164909523Y-75908571D01*
X164909523Y-76432380D02*
X164909523Y-75432380D01*
X165909523Y-76432380D02*
X165338095Y-76432380D01*
X165623809Y-76432380D02*
X165623809Y-75432380D01*
X165528571Y-75575238D01*
X165433333Y-75670476D01*
X165338095Y-75718095D01*
%TO.C,J9*%
X164766666Y-121162380D02*
X164766666Y-121876666D01*
X164719047Y-122019523D01*
X164623809Y-122114761D01*
X164480952Y-122162380D01*
X164385714Y-122162380D01*
X165290476Y-122162380D02*
X165480952Y-122162380D01*
X165576190Y-122114761D01*
X165623809Y-122067142D01*
X165719047Y-121924285D01*
X165766666Y-121733809D01*
X165766666Y-121352857D01*
X165719047Y-121257619D01*
X165671428Y-121210000D01*
X165576190Y-121162380D01*
X165385714Y-121162380D01*
X165290476Y-121210000D01*
X165242857Y-121257619D01*
X165195238Y-121352857D01*
X165195238Y-121590952D01*
X165242857Y-121686190D01*
X165290476Y-121733809D01*
X165385714Y-121781428D01*
X165576190Y-121781428D01*
X165671428Y-121733809D01*
X165719047Y-121686190D01*
X165766666Y-121590952D01*
%TO.C,R10k2*%
X116586190Y-117292380D02*
X116252857Y-116816190D01*
X116014761Y-117292380D02*
X116014761Y-116292380D01*
X116395714Y-116292380D01*
X116490952Y-116340000D01*
X116538571Y-116387619D01*
X116586190Y-116482857D01*
X116586190Y-116625714D01*
X116538571Y-116720952D01*
X116490952Y-116768571D01*
X116395714Y-116816190D01*
X116014761Y-116816190D01*
X117538571Y-117292380D02*
X116967142Y-117292380D01*
X117252857Y-117292380D02*
X117252857Y-116292380D01*
X117157619Y-116435238D01*
X117062380Y-116530476D01*
X116967142Y-116578095D01*
X118157619Y-116292380D02*
X118252857Y-116292380D01*
X118348095Y-116340000D01*
X118395714Y-116387619D01*
X118443333Y-116482857D01*
X118490952Y-116673333D01*
X118490952Y-116911428D01*
X118443333Y-117101904D01*
X118395714Y-117197142D01*
X118348095Y-117244761D01*
X118252857Y-117292380D01*
X118157619Y-117292380D01*
X118062380Y-117244761D01*
X118014761Y-117197142D01*
X117967142Y-117101904D01*
X117919523Y-116911428D01*
X117919523Y-116673333D01*
X117967142Y-116482857D01*
X118014761Y-116387619D01*
X118062380Y-116340000D01*
X118157619Y-116292380D01*
X118919523Y-117292380D02*
X118919523Y-116292380D01*
X119014761Y-116911428D02*
X119300476Y-117292380D01*
X119300476Y-116625714D02*
X118919523Y-117006666D01*
X119681428Y-116387619D02*
X119729047Y-116340000D01*
X119824285Y-116292380D01*
X120062380Y-116292380D01*
X120157619Y-116340000D01*
X120205238Y-116387619D01*
X120252857Y-116482857D01*
X120252857Y-116578095D01*
X120205238Y-116720952D01*
X119633809Y-117292380D01*
X120252857Y-117292380D01*
%TO.C,J1*%
X83486666Y-124122380D02*
X83486666Y-124836666D01*
X83439047Y-124979523D01*
X83343809Y-125074761D01*
X83200952Y-125122380D01*
X83105714Y-125122380D01*
X84486666Y-125122380D02*
X83915238Y-125122380D01*
X84200952Y-125122380D02*
X84200952Y-124122380D01*
X84105714Y-124265238D01*
X84010476Y-124360476D01*
X83915238Y-124408095D01*
%TO.C,J14*%
X134979980Y-103273123D02*
X135694266Y-103273123D01*
X135837123Y-103320742D01*
X135932361Y-103415980D01*
X135979980Y-103558838D01*
X135979980Y-103654076D01*
X135979980Y-102273123D02*
X135979980Y-102844552D01*
X135979980Y-102558838D02*
X134979980Y-102558838D01*
X135122838Y-102654076D01*
X135218076Y-102749314D01*
X135265695Y-102844552D01*
X135313314Y-101415980D02*
X135979980Y-101415980D01*
X134932361Y-101654076D02*
X135646647Y-101892171D01*
X135646647Y-101273123D01*
D11*
%TO.C,U1*%
X149860000Y-125730000D02*
X99060000Y-125730000D01*
X99000000Y-110550000D02*
X99000000Y-107890000D01*
X149920000Y-107890000D02*
X149920000Y-109220000D01*
X149860000Y-123190000D02*
X149860000Y-125730000D01*
X99000000Y-107890000D02*
X147320000Y-107890000D01*
X147320000Y-107890000D02*
X147320000Y-110550000D01*
X148590000Y-107890000D02*
X149920000Y-107890000D01*
X147320000Y-110550000D02*
X99000000Y-110550000D01*
X99060000Y-123190000D02*
X149860000Y-123190000D01*
X99060000Y-125730000D02*
X99060000Y-123190000D01*
%TO.C,J6*%
X135950000Y-140990000D02*
X135950000Y-142320000D01*
X135950000Y-139720000D02*
X133350000Y-139720000D01*
X125670000Y-137120000D02*
X125670000Y-142320000D01*
X135950000Y-142320000D02*
X134620000Y-142320000D01*
X133350000Y-139720000D02*
X133350000Y-142320000D01*
X135950000Y-137120000D02*
X135950000Y-139720000D01*
X135950000Y-137120000D02*
X125670000Y-137120000D01*
X133350000Y-142320000D02*
X125670000Y-142320000D01*
%TO.C,J13*%
X148530000Y-79950000D02*
X148530000Y-82610000D01*
X156210000Y-82610000D02*
X148530000Y-82610000D01*
X156210000Y-79950000D02*
X156210000Y-82610000D01*
X158810000Y-79950000D02*
X158810000Y-81280000D01*
X157480000Y-79950000D02*
X158810000Y-79950000D01*
X156210000Y-79950000D02*
X148530000Y-79950000D01*
%TO.C,J2*%
X82490000Y-120710000D02*
X85150000Y-120710000D01*
X82490000Y-112970000D02*
X83820000Y-112970000D01*
X85150000Y-115570000D02*
X85150000Y-120710000D01*
X82490000Y-115570000D02*
X82490000Y-120710000D01*
X82490000Y-115570000D02*
X85150000Y-115570000D01*
X82490000Y-114300000D02*
X82490000Y-112970000D01*
%TO.C,J5*%
X82490000Y-105410000D02*
X85150000Y-105410000D01*
X82490000Y-105410000D02*
X82490000Y-108010000D01*
X82490000Y-104140000D02*
X82490000Y-102810000D01*
X82490000Y-108010000D02*
X85150000Y-108010000D01*
X82490000Y-102810000D02*
X83820000Y-102810000D01*
X85150000Y-105410000D02*
X85150000Y-108010000D01*
%TO.C,J11*%
X111760000Y-77410000D02*
X113090000Y-77410000D01*
X113090000Y-80010000D02*
X113090000Y-97850000D01*
X110430000Y-97850000D02*
X113090000Y-97850000D01*
X110430000Y-80010000D02*
X113090000Y-80010000D01*
X110430000Y-80010000D02*
X110430000Y-97850000D01*
X113090000Y-77410000D02*
X113090000Y-78740000D01*
%TO.C,J12*%
X128210000Y-80010000D02*
X130870000Y-80010000D01*
X128210000Y-80010000D02*
X128210000Y-92770000D01*
X130870000Y-80010000D02*
X130870000Y-92770000D01*
X128210000Y-92770000D02*
X130870000Y-92770000D01*
X130870000Y-77410000D02*
X130870000Y-78740000D01*
X129540000Y-77410000D02*
X130870000Y-77410000D01*
%TO.C,J10*%
X92650000Y-90230000D02*
X95310000Y-90230000D01*
X93980000Y-77410000D02*
X95310000Y-77410000D01*
X95310000Y-80010000D02*
X95310000Y-90230000D01*
X92650000Y-80010000D02*
X92650000Y-90230000D01*
X92650000Y-80010000D02*
X95310000Y-80010000D01*
X95310000Y-77410000D02*
X95310000Y-78740000D01*
%TO.C,J3*%
X166430000Y-132080000D02*
X166430000Y-133410000D01*
X166430000Y-125670000D02*
X163770000Y-125670000D01*
X166430000Y-133410000D02*
X165100000Y-133410000D01*
X166430000Y-130810000D02*
X163770000Y-130810000D01*
X163770000Y-130810000D02*
X163770000Y-125670000D01*
X166430000Y-130810000D02*
X166430000Y-125670000D01*
%TO.C,J4*%
X160020000Y-97850000D02*
X147260000Y-97850000D01*
X160020000Y-95190000D02*
X147260000Y-95190000D01*
X160020000Y-95190000D02*
X160020000Y-97850000D01*
X147260000Y-95190000D02*
X147260000Y-97850000D01*
X162620000Y-97850000D02*
X161290000Y-97850000D01*
X162620000Y-96520000D02*
X162620000Y-97850000D01*
%TO.C,J8*%
X104150000Y-138370000D02*
X111830000Y-138370000D01*
X111830000Y-141030000D02*
X111830000Y-138370000D01*
X104150000Y-141030000D02*
X104150000Y-138370000D01*
X101550000Y-141030000D02*
X101550000Y-139700000D01*
X102880000Y-141030000D02*
X101550000Y-141030000D01*
X104150000Y-141030000D02*
X111830000Y-141030000D01*
%TO.C,R10k1*%
X111220000Y-114400000D02*
X111220000Y-111660000D01*
X104680000Y-114400000D02*
X111220000Y-114400000D01*
X103910000Y-113030000D02*
X104680000Y-113030000D01*
X104680000Y-111660000D02*
X104680000Y-114400000D01*
X111220000Y-111660000D02*
X104680000Y-111660000D01*
X111990000Y-113030000D02*
X111220000Y-113030000D01*
%TO.C,J9*%
X166430000Y-118110000D02*
X166430000Y-112970000D01*
X166430000Y-120710000D02*
X165100000Y-120710000D01*
X166430000Y-119380000D02*
X166430000Y-120710000D01*
X166430000Y-112970000D02*
X163770000Y-112970000D01*
X163770000Y-118110000D02*
X163770000Y-112970000D01*
X166430000Y-118110000D02*
X163770000Y-118110000D01*
%TO.C,R10k2*%
X111990000Y-116840000D02*
X111220000Y-116840000D01*
X104680000Y-118210000D02*
X111220000Y-118210000D01*
X111220000Y-118210000D02*
X111220000Y-115470000D01*
X104680000Y-115470000D02*
X104680000Y-118210000D01*
X103910000Y-116840000D02*
X104680000Y-116840000D01*
X111220000Y-115470000D02*
X104680000Y-115470000D01*
%TO.C,J1*%
X82490000Y-128270000D02*
X85150000Y-128270000D01*
X82490000Y-133410000D02*
X85150000Y-133410000D01*
X82490000Y-125670000D02*
X83820000Y-125670000D01*
X82490000Y-127000000D02*
X82490000Y-125670000D01*
X82490000Y-128270000D02*
X82490000Y-133410000D01*
X85150000Y-128270000D02*
X85150000Y-133410000D01*
%TO.C,J14*%
X114087600Y-101133600D02*
X114087600Y-103793600D01*
X134527600Y-101133600D02*
X134527600Y-102463600D01*
X131927600Y-103793600D02*
X114087600Y-103793600D01*
X133197600Y-101133600D02*
X134527600Y-101133600D01*
X131927600Y-101133600D02*
X114087600Y-101133600D01*
X131927600Y-101133600D02*
X131927600Y-103793600D01*
%TD*%
M02*
