%TF.GenerationSoftware,KiCad,Pcbnew,(6.0.8)*%
%TF.CreationDate,2022-12-03T20:58:23+01:00*%
%TF.ProjectId,f411,66343131-2e6b-4696-9361-645f70636258,V01*%
%TF.SameCoordinates,Original*%
%TF.FileFunction,Soldermask,Bot*%
%TF.FilePolarity,Negative*%
%FSLAX46Y46*%
G04 Gerber Fmt 4.6, Leading zero omitted, Abs format (unit mm)*
G04 Created by KiCad (PCBNEW (6.0.8)) date 2022-12-03 20:58:23*
%MOMM*%
%LPD*%
G01*
G04 APERTURE LIST*
%ADD10C,1.700000*%
%ADD11R,1.700000X1.700000*%
%ADD12O,1.700000X1.700000*%
%ADD13C,4.300000*%
%ADD14C,1.600000*%
%ADD15O,1.600000X1.600000*%
G04 APERTURE END LIST*
D10*
%TO.C,U1*%
X148590000Y-124460000D03*
X146050000Y-124460000D03*
X143510000Y-124460000D03*
X140970000Y-124460000D03*
X138430000Y-124460000D03*
X135890000Y-124460000D03*
X133350000Y-124460000D03*
X130810000Y-124460000D03*
X128270000Y-124460000D03*
X125730000Y-124460000D03*
X123190000Y-124460000D03*
X120650000Y-124460000D03*
X118110000Y-124460000D03*
X115570000Y-124460000D03*
X113030000Y-124460000D03*
X110490000Y-124460000D03*
X107950000Y-124460000D03*
X105410000Y-124460000D03*
X102870000Y-124460000D03*
X100330000Y-124460000D03*
X100330000Y-109220000D03*
X102870000Y-109220000D03*
X105410000Y-109220000D03*
X107950000Y-109220000D03*
X110490000Y-109220000D03*
X113030000Y-109220000D03*
X115570000Y-109220000D03*
X118110000Y-109220000D03*
X120650000Y-109220000D03*
X123190000Y-109220000D03*
X125730000Y-109220000D03*
X128270000Y-109220000D03*
X130810000Y-109220000D03*
X133350000Y-109220000D03*
X135890000Y-109220000D03*
X138430000Y-109220000D03*
X140970000Y-109220000D03*
X143510000Y-109220000D03*
X146050000Y-109220000D03*
D11*
X148590000Y-109220000D03*
%TD*%
%TO.C,J6*%
X134620000Y-140990000D03*
D12*
X134620000Y-138450000D03*
X132080000Y-140990000D03*
X132080000Y-138450000D03*
X129540000Y-140990000D03*
X129540000Y-138450000D03*
X127000000Y-140990000D03*
X127000000Y-138450000D03*
%TD*%
D11*
%TO.C,J13*%
X157480000Y-81280000D03*
D12*
X154940000Y-81280000D03*
X152400000Y-81280000D03*
X149860000Y-81280000D03*
%TD*%
D13*
%TO.C,H4*%
X165100000Y-139700000D03*
%TD*%
D11*
%TO.C,J2*%
X83820000Y-114300000D03*
D12*
X83820000Y-116840000D03*
X83820000Y-119380000D03*
%TD*%
D11*
%TO.C,J5*%
X83820000Y-104140000D03*
D12*
X83820000Y-106680000D03*
%TD*%
D13*
%TO.C,H3*%
X83820000Y-81280000D03*
%TD*%
D11*
%TO.C,J11*%
X111760000Y-78740000D03*
D12*
X111760000Y-81280000D03*
X111760000Y-83820000D03*
X111760000Y-86360000D03*
X111760000Y-88900000D03*
X111760000Y-91440000D03*
X111760000Y-93980000D03*
X111760000Y-96520000D03*
%TD*%
D11*
%TO.C,J12*%
X129540000Y-78740000D03*
D12*
X129540000Y-81280000D03*
X129540000Y-83820000D03*
X129540000Y-86360000D03*
X129540000Y-88900000D03*
X129540000Y-91440000D03*
%TD*%
D11*
%TO.C,J10*%
X93980000Y-78740000D03*
D12*
X93980000Y-81280000D03*
X93980000Y-83820000D03*
X93980000Y-86360000D03*
X93980000Y-88900000D03*
%TD*%
D11*
%TO.C,J3*%
X165100000Y-132080000D03*
D12*
X165100000Y-129540000D03*
X165100000Y-127000000D03*
%TD*%
D11*
%TO.C,J4*%
X161290000Y-96520000D03*
D12*
X158750000Y-96520000D03*
X156210000Y-96520000D03*
X153670000Y-96520000D03*
X151130000Y-96520000D03*
X148590000Y-96520000D03*
%TD*%
D11*
%TO.C,J8*%
X102880000Y-139700000D03*
D12*
X105420000Y-139700000D03*
X107960000Y-139700000D03*
X110500000Y-139700000D03*
%TD*%
D13*
%TO.C,H2*%
X83820000Y-139700000D03*
%TD*%
D14*
%TO.C,R10k1*%
X102870000Y-113030000D03*
D15*
X113030000Y-113030000D03*
%TD*%
D13*
%TO.C,H1*%
X165100000Y-81280000D03*
%TD*%
D11*
%TO.C,J9*%
X165100000Y-119380000D03*
D12*
X165100000Y-116840000D03*
X165100000Y-114300000D03*
%TD*%
D14*
%TO.C,R10k2*%
X102870000Y-116840000D03*
D15*
X113030000Y-116840000D03*
%TD*%
D11*
%TO.C,J1*%
X83820000Y-127000000D03*
D12*
X83820000Y-129540000D03*
X83820000Y-132080000D03*
%TD*%
D11*
%TO.C,J14*%
X133197600Y-102463600D03*
D12*
X130657600Y-102463600D03*
X128117600Y-102463600D03*
X125577600Y-102463600D03*
X123037600Y-102463600D03*
X120497600Y-102463600D03*
X117957600Y-102463600D03*
X115417600Y-102463600D03*
%TD*%
M02*
