solid OpenSCAD_Model
  facet normal -1.000000 -0.000000 -0.000000
    outer loop
      vertex 0.000000 0.000000 53.095110
      vertex 0.000000 0.000000 260.000000
      vertex 0.000000 10.000000 53.095110
    endloop
  endfacet
  facet normal -1.000000 0.000000 -0.000000
    outer loop
      vertex 0.000000 10.000000 250.000000
      vertex 0.000000 0.000000 260.000000
      vertex 0.000000 25.000000 260.000000
    endloop
  endfacet
  facet normal -1.000000 0.000000 0.000000
    outer loop
      vertex 0.000000 10.000000 53.095110
      vertex 0.000000 0.000000 260.000000
      vertex 0.000000 10.000000 215.000000
    endloop
  endfacet
  facet normal -1.000000 0.000000 0.000000
    outer loop
      vertex 0.000000 0.000000 260.000000
      vertex 0.000000 10.000000 250.000000
      vertex 0.000000 10.000000 235.000000
    endloop
  endfacet
  facet normal -1.000000 0.000000 0.000000
    outer loop
      vertex 0.000000 0.000000 260.000000
      vertex 0.000000 10.000000 235.000000
      vertex 0.000000 10.000000 217.000000
    endloop
  endfacet
  facet normal -1.000000 0.000000 0.000000
    outer loop
      vertex 0.000000 0.000000 260.000000
      vertex 0.000000 10.000000 217.000000
      vertex 0.000000 10.000000 215.000000
    endloop
  endfacet
  facet normal -1.000000 -0.000000 0.000000
    outer loop
      vertex 0.000000 10.000000 250.000000
      vertex 0.000000 25.000000 260.000000
      vertex 0.000000 25.000000 250.000000
    endloop
  endfacet
  facet normal 0.000000 -1.000000 0.000000
    outer loop
      vertex 0.000000 0.000000 260.000000
      vertex 0.000000 0.000000 53.095110
      vertex 11.482371 0.000000 21.547555
    endloop
  endfacet
  facet normal 0.000000 -1.000000 0.000000
    outer loop
      vertex 25.000000 0.000000 260.000000
      vertex 0.000000 0.000000 260.000000
      vertex 25.000000 0.000000 58.686935
    endloop
  endfacet
  facet normal 0.000000 -1.000000 0.000000
    outer loop
      vertex 25.000000 0.000000 58.686935
      vertex 0.000000 0.000000 260.000000
      vertex 11.482371 0.000000 21.547555
    endloop
  endfacet
  facet normal -0.939693 -0.000000 -0.342020
    outer loop
      vertex 7.500000 10.000000 32.489029
      vertex 7.500000 11.825040 32.489029
      vertex 11.482371 7.842669 21.547555
    endloop
  endfacet
  facet normal -0.939693 0.000000 -0.342020
    outer loop
      vertex 7.500000 10.000000 32.489029
      vertex 11.482371 7.842669 21.547555
      vertex 0.000000 10.000000 53.095110
    endloop
  endfacet
  facet normal -0.939693 0.000000 -0.342020
    outer loop
      vertex 11.482371 7.842669 21.547555
      vertex 11.482371 0.000000 21.547555
      vertex 0.000000 10.000000 53.095110
    endloop
  endfacet
  facet normal -0.939693 0.000000 -0.342020
    outer loop
      vertex 11.482371 0.000000 21.547555
      vertex 0.000000 0.000000 53.095110
      vertex 0.000000 10.000000 53.095110
    endloop
  endfacet
  facet normal 0.000000 1.000000 0.000000
    outer loop
      vertex 0.000000 10.000000 53.095110
      vertex 0.000000 10.000000 215.000000
      vertex 7.500000 10.000000 32.489029
    endloop
  endfacet
  facet normal 0.000000 1.000000 0.000000
    outer loop
      vertex 7.500000 10.000000 32.489029
      vertex 0.000000 10.000000 215.000000
      vertex 7.500000 10.000000 215.000000
    endloop
  endfacet
  facet normal 0.000000 1.000000 0.000000
    outer loop
      vertex 0.000000 10.000000 215.000000
      vertex 0.000000 10.000000 217.000000
      vertex 7.500000 10.000000 215.000000
    endloop
  endfacet
  facet normal 0.000000 1.000000 0.000000
    outer loop
      vertex 7.500000 10.000000 215.000000
      vertex 0.000000 10.000000 217.000000
      vertex 7.500000 10.000000 217.000000
    endloop
  endfacet
  facet normal 0.000000 1.000000 0.000000
    outer loop
      vertex 0.000000 10.000000 217.000000
      vertex 0.000000 10.000000 235.000000
      vertex 7.500000 10.000000 217.000000
    endloop
  endfacet
  facet normal 0.000000 1.000000 0.000000
    outer loop
      vertex 7.500000 10.000000 217.000000
      vertex 0.000000 10.000000 235.000000
      vertex 7.500000 10.000000 235.000000
    endloop
  endfacet
  facet normal 0.000000 1.000000 0.000000
    outer loop
      vertex 0.000000 10.000000 235.000000
      vertex 0.000000 10.000000 250.000000
      vertex 7.500000 10.000000 235.000000
    endloop
  endfacet
  facet normal 0.000000 1.000000 0.000000
    outer loop
      vertex 7.500000 10.000000 235.000000
      vertex 0.000000 10.000000 250.000000
      vertex 7.500000 10.000000 250.000000
    endloop
  endfacet
  facet normal 0.000000 0.000000 -1.000000
    outer loop
      vertex 7.500000 25.000000 250.000000
      vertex 7.500000 10.000000 250.000000
      vertex 0.000000 25.000000 250.000000
    endloop
  endfacet
  facet normal 0.000000 0.000000 -1.000000
    outer loop
      vertex 0.000000 25.000000 250.000000
      vertex 7.500000 10.000000 250.000000
      vertex 0.000000 10.000000 250.000000
    endloop
  endfacet
  facet normal 0.000000 1.000000 0.000000
    outer loop
      vertex 0.000000 25.000000 250.000000
      vertex 0.000000 25.000000 260.000000
      vertex 7.500000 25.000000 250.000000
    endloop
  endfacet
  facet normal 0.000000 1.000000 0.000000
    outer loop
      vertex 7.500000 25.000000 250.000000
      vertex 0.000000 25.000000 260.000000
      vertex 25.000000 25.000000 260.000000
    endloop
  endfacet
  facet normal 0.000000 1.000000 0.000000
    outer loop
      vertex 17.500000 25.000000 250.000000
      vertex 25.000000 25.000000 260.000000
      vertex 25.000000 25.000000 250.000000
    endloop
  endfacet
  facet normal 0.000000 1.000000 0.000000
    outer loop
      vertex 7.500000 25.000000 250.000000
      vertex 25.000000 25.000000 260.000000
      vertex 17.500000 25.000000 250.000000
    endloop
  endfacet
  facet normal 0.000000 1.000000 0.000000
    outer loop
      vertex 17.500000 25.000000 250.000000
      vertex 17.500000 25.000000 215.577350
      vertex 7.500000 25.000000 250.000000
    endloop
  endfacet
  facet normal 0.000000 1.000000 -0.000000
    outer loop
      vertex 7.500000 25.000000 250.000000
      vertex 17.500000 25.000000 215.577350
      vertex 7.500000 25.000000 215.577350
    endloop
  endfacet
  facet normal 0.000000 -0.000000 1.000000
    outer loop
      vertex 0.000000 25.000000 260.000000
      vertex 0.000000 0.000000 260.000000
      vertex 25.000000 0.000000 260.000000
    endloop
  endfacet
  facet normal 0.000000 0.000000 1.000000
    outer loop
      vertex 25.000000 25.000000 260.000000
      vertex 0.000000 25.000000 260.000000
      vertex 25.000000 0.000000 260.000000
    endloop
  endfacet
  facet normal 1.000000 0.000000 -0.000000
    outer loop
      vertex 25.000000 0.000000 260.000000
      vertex 25.000000 0.000000 58.686935
      vertex 25.000000 10.000000 58.686935
    endloop
  endfacet
  facet normal 1.000000 -0.000000 0.000000
    outer loop
      vertex 25.000000 10.000000 217.000000
      vertex 25.000000 0.000000 260.000000
      vertex 25.000000 10.000000 215.000000
    endloop
  endfacet
  facet normal 1.000000 -0.000000 0.000000
    outer loop
      vertex 25.000000 10.000000 215.000000
      vertex 25.000000 0.000000 260.000000
      vertex 25.000000 10.000000 58.686935
    endloop
  endfacet
  facet normal 1.000000 -0.000000 0.000000
    outer loop
      vertex 25.000000 10.000000 235.000000
      vertex 25.000000 0.000000 260.000000
      vertex 25.000000 10.000000 217.000000
    endloop
  endfacet
  facet normal 1.000000 -0.000000 0.000000
    outer loop
      vertex 25.000000 10.000000 250.000000
      vertex 25.000000 0.000000 260.000000
      vertex 25.000000 10.000000 235.000000
    endloop
  endfacet
  facet normal 1.000000 -0.000000 0.000000
    outer loop
      vertex 25.000000 25.000000 250.000000
      vertex 25.000000 0.000000 260.000000
      vertex 25.000000 10.000000 250.000000
    endloop
  endfacet
  facet normal 1.000000 0.000000 0.000000
    outer loop
      vertex 25.000000 25.000000 260.000000
      vertex 25.000000 0.000000 260.000000
      vertex 25.000000 25.000000 250.000000
    endloop
  endfacet
  facet normal 0.939693 0.000000 -0.342020
    outer loop
      vertex 11.482371 7.842669 21.547555
      vertex 17.500000 13.860298 38.080855
      vertex 17.500000 10.000000 38.080855
    endloop
  endfacet
  facet normal 0.939693 0.000000 -0.342020
    outer loop
      vertex 25.000000 10.000000 58.686935
      vertex 11.482371 7.842669 21.547555
      vertex 17.500000 10.000000 38.080855
    endloop
  endfacet
  facet normal 0.939693 0.000000 -0.342020
    outer loop
      vertex 25.000000 10.000000 58.686935
      vertex 25.000000 0.000000 58.686935
      vertex 11.482371 7.842669 21.547555
    endloop
  endfacet
  facet normal 0.939693 0.000000 -0.342020
    outer loop
      vertex 25.000000 0.000000 58.686935
      vertex 11.482371 0.000000 21.547555
      vertex 11.482371 7.842669 21.547555
    endloop
  endfacet
  facet normal 0.000000 0.939693 -0.342020
    outer loop
      vertex 17.500000 25.000000 68.686935
      vertex 17.500000 13.860298 38.080855
      vertex 7.500000 25.000000 68.686935
    endloop
  endfacet
  facet normal 0.000000 0.939693 -0.342020
    outer loop
      vertex 7.500000 25.000000 68.686935
      vertex 17.500000 13.860298 38.080855
      vertex 11.482371 7.842669 21.547555
    endloop
  endfacet
  facet normal -0.000000 0.939693 -0.342020
    outer loop
      vertex 7.500000 25.000000 68.686935
      vertex 11.482371 7.842669 21.547555
      vertex 7.500000 11.825040 32.489029
    endloop
  endfacet
  facet normal -1.000000 -0.000000 -0.000000
    outer loop
      vertex 7.500000 10.000000 32.489029
      vertex 7.500000 10.000000 215.000000
      vertex 7.500000 11.825040 32.489029
    endloop
  endfacet
  facet normal -1.000000 0.000000 0.000000
    outer loop
      vertex 7.500000 11.825040 32.489029
      vertex 7.500000 10.000000 215.000000
      vertex 7.500000 10.713832 214.587869
    endloop
  endfacet
  facet normal -1.000000 0.000000 0.000000
    outer loop
      vertex 7.500000 11.825040 32.489029
      vertex 7.500000 10.713832 214.587869
      vertex 7.500000 11.464466 213.464466
    endloop
  endfacet
  facet normal -1.000000 0.000000 -0.000000
    outer loop
      vertex 7.500000 11.825040 32.489029
      vertex 7.500000 11.464466 213.464466
      vertex 7.500000 13.086583 212.380602
    endloop
  endfacet
  facet normal -1.000000 0.000000 0.000000
    outer loop
      vertex 7.500000 13.086583 212.380602
      vertex 7.500000 15.000000 212.000000
      vertex 7.500000 11.825040 32.489029
    endloop
  endfacet
  facet normal -1.000000 -0.000000 0.000000
    outer loop
      vertex 7.500000 15.000000 212.000000
      vertex 7.500000 15.145890 212.029019
      vertex 7.500000 11.825040 32.489029
    endloop
  endfacet
  facet normal -1.000000 0.000000 0.000000
    outer loop
      vertex 7.500000 11.825040 32.489029
      vertex 7.500000 15.145890 212.029019
      vertex 7.500000 25.000000 206.339746
    endloop
  endfacet
  facet normal -1.000000 0.000000 0.000000
    outer loop
      vertex 7.500000 11.825040 32.489029
      vertex 7.500000 25.000000 206.339746
      vertex 7.500000 25.000000 68.686935
    endloop
  endfacet
  facet normal -0.000000 0.500000 0.866025
    outer loop
      vertex 17.500000 10.000000 215.000000
      vertex 17.500000 10.713832 214.587869
      vertex 7.500000 10.713832 214.587869
    endloop
  endfacet
  facet normal 0.000000 0.500000 0.866025
    outer loop
      vertex 7.500000 10.000000 215.000000
      vertex 17.500000 10.000000 215.000000
      vertex 7.500000 10.713832 214.587869
    endloop
  endfacet
  facet normal 0.000000 0.866025 -0.500000
    outer loop
      vertex 17.500000 10.295884 215.512487
      vertex 17.500000 10.000000 215.000000
      vertex 7.500000 10.295884 215.512487
    endloop
  endfacet
  facet normal 0.000000 0.866025 -0.500000
    outer loop
      vertex 7.500000 10.295884 215.512487
      vertex 17.500000 10.000000 215.000000
      vertex 7.500000 10.000000 215.000000
    endloop
  endfacet
  facet normal -1.000000 0.000000 0.000000
    outer loop
      vertex 7.500000 10.295884 215.512487
      vertex 7.500000 10.000000 215.000000
      vertex 7.500000 10.000000 217.000000
    endloop
  endfacet
  facet normal -1.000000 0.000000 -0.000000
    outer loop
      vertex 7.500000 10.000000 217.000000
      vertex 7.500000 10.000000 235.000000
      vertex 7.500000 10.380602 218.913417
    endloop
  endfacet
  facet normal -1.000000 0.000000 0.000000
    outer loop
      vertex 7.500000 10.380602 236.913417
      vertex 7.500000 10.000000 235.000000
      vertex 7.500000 10.000000 250.000000
    endloop
  endfacet
  facet normal -1.000000 0.000000 0.000000
    outer loop
      vertex 7.500000 10.380602 218.913417
      vertex 7.500000 10.000000 235.000000
      vertex 7.500000 10.380602 233.086583
    endloop
  endfacet
  facet normal -1.000000 0.000000 -0.000000
    outer loop
      vertex 7.500000 10.380602 218.913417
      vertex 7.500000 10.380602 233.086583
      vertex 7.500000 11.464466 231.464466
    endloop
  endfacet
  facet normal -1.000000 0.000000 0.000000
    outer loop
      vertex 7.500000 13.086583 221.619398
      vertex 7.500000 14.000000 221.928203
      vertex 7.500000 13.917088 221.784596
    endloop
  endfacet
  facet normal -1.000000 0.000000 0.000000
    outer loop
      vertex 7.500000 11.464466 231.464466
      vertex 7.500000 13.086583 230.380602
      vertex 7.500000 10.380602 218.913417
    endloop
  endfacet
  facet normal -1.000000 -0.000000 0.000000
    outer loop
      vertex 7.500000 20.000000 235.000000
      vertex 7.500000 25.000000 250.000000
      vertex 7.500000 19.619398 233.086583
    endloop
  endfacet
  facet normal -1.000000 -0.000000 0.000000
    outer loop
      vertex 7.500000 19.619398 236.913417
      vertex 7.500000 25.000000 250.000000
      vertex 7.500000 20.000000 235.000000
    endloop
  endfacet
  facet normal -1.000000 -0.000000 -0.000000
    outer loop
      vertex 7.500000 16.913417 239.619398
      vertex 7.500000 10.000000 250.000000
      vertex 7.500000 18.535534 238.535534
    endloop
  endfacet
  facet normal -1.000000 -0.000000 -0.000000
    outer loop
      vertex 7.500000 15.000000 240.000000
      vertex 7.500000 10.000000 250.000000
      vertex 7.500000 16.913417 239.619398
    endloop
  endfacet
  facet normal -1.000000 0.000000 -0.000000
    outer loop
      vertex 7.500000 13.086583 239.619398
      vertex 7.500000 10.000000 250.000000
      vertex 7.500000 15.000000 240.000000
    endloop
  endfacet
  facet normal -1.000000 0.000000 0.000000
    outer loop
      vertex 7.500000 11.464466 238.535534
      vertex 7.500000 10.380602 236.913417
      vertex 7.500000 10.000000 250.000000
    endloop
  endfacet
  facet normal -1.000000 0.000000 -0.000000
    outer loop
      vertex 7.500000 11.464466 238.535534
      vertex 7.500000 10.000000 250.000000
      vertex 7.500000 13.086583 239.619398
    endloop
  endfacet
  facet normal -1.000000 0.000000 -0.000000
    outer loop
      vertex 7.500000 18.535534 238.535534
      vertex 7.500000 10.000000 250.000000
      vertex 7.500000 25.000000 250.000000
    endloop
  endfacet
  facet normal -1.000000 -0.000000 0.000000
    outer loop
      vertex 7.500000 18.535534 238.535534
      vertex 7.500000 25.000000 250.000000
      vertex 7.500000 19.619398 236.913417
    endloop
  endfacet
  facet normal -1.000000 -0.000000 0.000000
    outer loop
      vertex 7.500000 19.619398 233.086583
      vertex 7.500000 25.000000 250.000000
      vertex 7.500000 25.000000 215.577350
    endloop
  endfacet
  facet normal -1.000000 0.000000 0.000000
    outer loop
      vertex 7.500000 19.619398 233.086583
      vertex 7.500000 25.000000 215.577350
      vertex 7.500000 19.670988 218.654057
    endloop
  endfacet
  facet normal -1.000000 0.000000 0.000000
    outer loop
      vertex 7.500000 19.619398 233.086583
      vertex 7.500000 19.670988 218.654057
      vertex 7.500000 19.619398 218.913417
    endloop
  endfacet
  facet normal -1.000000 0.000000 0.000000
    outer loop
      vertex 7.500000 19.619398 233.086583
      vertex 7.500000 19.619398 218.913417
      vertex 7.500000 18.535534 220.535534
    endloop
  endfacet
  facet normal -1.000000 0.000000 0.000000
    outer loop
      vertex 7.500000 19.619398 233.086583
      vertex 7.500000 18.535534 220.535534
      vertex 7.500000 16.913417 221.619398
    endloop
  endfacet
  facet normal -1.000000 0.000000 0.000000
    outer loop
      vertex 7.500000 19.619398 233.086583
      vertex 7.500000 16.913417 221.619398
      vertex 7.500000 15.000000 222.000000
    endloop
  endfacet
  facet normal -1.000000 0.000000 0.000000
    outer loop
      vertex 7.500000 19.619398 233.086583
      vertex 7.500000 15.000000 222.000000
      vertex 7.500000 14.163753 221.833660
    endloop
  endfacet
  facet normal -1.000000 0.000000 0.000000
    outer loop
      vertex 7.500000 19.619398 233.086583
      vertex 7.500000 14.163753 221.833660
      vertex 7.500000 14.000000 221.928203
    endloop
  endfacet
  facet normal -1.000000 0.000000 0.000000
    outer loop
      vertex 7.500000 11.464466 220.535534
      vertex 7.500000 16.913417 230.380602
      vertex 7.500000 18.535534 231.464466
    endloop
  endfacet
  facet normal -1.000000 0.000000 0.000000
    outer loop
      vertex 7.500000 11.464466 220.535534
      vertex 7.500000 18.535534 231.464466
      vertex 7.500000 19.619398 233.086583
    endloop
  endfacet
  facet normal -1.000000 0.000000 0.000000
    outer loop
      vertex 7.500000 19.619398 233.086583
      vertex 7.500000 14.000000 221.928203
      vertex 7.500000 13.086583 221.619398
    endloop
  endfacet
  facet normal -1.000000 -0.000000 0.000000
    outer loop
      vertex 7.500000 15.000000 230.000000
      vertex 7.500000 16.913417 230.380602
      vertex 7.500000 11.464466 220.535534
    endloop
  endfacet
  facet normal -1.000000 0.000000 0.000000
    outer loop
      vertex 7.500000 11.464466 220.535534
      vertex 7.500000 19.619398 233.086583
      vertex 7.500000 13.086583 221.619398
    endloop
  endfacet
  facet normal -1.000000 0.000000 0.000000
    outer loop
      vertex 7.500000 10.380602 218.913417
      vertex 7.500000 13.086583 230.380602
      vertex 7.500000 15.000000 230.000000
    endloop
  endfacet
  facet normal -1.000000 0.000000 0.000000
    outer loop
      vertex 7.500000 10.380602 218.913417
      vertex 7.500000 15.000000 230.000000
      vertex 7.500000 11.464466 220.535534
    endloop
  endfacet
  facet normal -0.000000 0.980785 0.195090
    outer loop
      vertex 17.500000 10.295884 215.512487
      vertex 7.500000 10.295884 215.512487
      vertex 17.500000 10.000000 217.000000
    endloop
  endfacet
  facet normal -0.000000 0.980785 0.195090
    outer loop
      vertex 17.500000 10.000000 217.000000
      vertex 7.500000 10.295884 215.512487
      vertex 7.500000 10.000000 217.000000
    endloop
  endfacet
  facet normal 0.000000 0.980785 -0.195090
    outer loop
      vertex 17.500000 10.380602 218.913417
      vertex 17.500000 10.000000 217.000000
      vertex 7.500000 10.380602 218.913417
    endloop
  endfacet
  facet normal 0.000000 0.980785 -0.195090
    outer loop
      vertex 7.500000 10.380602 218.913417
      vertex 17.500000 10.000000 217.000000
      vertex 7.500000 10.000000 217.000000
    endloop
  endfacet
  facet normal -0.000000 0.980785 0.195090
    outer loop
      vertex 17.500000 10.380602 233.086583
      vertex 7.500000 10.380602 233.086583
      vertex 17.500000 10.000000 235.000000
    endloop
  endfacet
  facet normal -0.000000 0.980785 0.195090
    outer loop
      vertex 17.500000 10.000000 235.000000
      vertex 7.500000 10.380602 233.086583
      vertex 7.500000 10.000000 235.000000
    endloop
  endfacet
  facet normal 0.000000 0.980785 -0.195090
    outer loop
      vertex 17.500000 10.380602 236.913417
      vertex 17.500000 10.000000 235.000000
      vertex 7.500000 10.380602 236.913417
    endloop
  endfacet
  facet normal 0.000000 0.980785 -0.195090
    outer loop
      vertex 7.500000 10.380602 236.913417
      vertex 17.500000 10.000000 235.000000
      vertex 7.500000 10.000000 235.000000
    endloop
  endfacet
  facet normal 0.000000 -0.500000 -0.866025
    outer loop
      vertex 17.500000 25.000000 215.577350
      vertex 17.500000 19.670988 218.654057
      vertex 7.500000 25.000000 215.577350
    endloop
  endfacet
  facet normal 0.000000 -0.500000 -0.866025
    outer loop
      vertex 7.500000 25.000000 215.577350
      vertex 17.500000 19.670988 218.654057
      vertex 7.500000 19.670988 218.654057
    endloop
  endfacet
  facet normal 1.000000 0.000000 -0.000000
    outer loop
      vertex 17.500000 10.000000 235.000000
      vertex 17.500000 10.000000 217.000000
      vertex 17.500000 10.380602 218.913417
    endloop
  endfacet
  facet normal 1.000000 -0.000000 0.000000
    outer loop
      vertex 17.500000 11.464466 220.535534
      vertex 17.500000 10.000000 235.000000
      vertex 17.500000 10.380602 218.913417
    endloop
  endfacet
  facet normal 1.000000 0.000000 0.000000
    outer loop
      vertex 17.500000 11.464466 231.464466
      vertex 17.500000 14.163753 221.833660
      vertex 17.500000 15.000000 222.000000
    endloop
  endfacet
  facet normal 1.000000 0.000000 0.000000
    outer loop
      vertex 17.500000 11.464466 231.464466
      vertex 17.500000 14.000000 221.928203
      vertex 17.500000 14.163753 221.833660
    endloop
  endfacet
  facet normal 1.000000 0.000000 0.000000
    outer loop
      vertex 17.500000 19.670988 218.654057
      vertex 17.500000 25.000000 215.577350
      vertex 17.500000 19.619398 218.913417
    endloop
  endfacet
  facet normal 1.000000 -0.000000 0.000000
    outer loop
      vertex 17.500000 10.380602 236.913417
      vertex 17.500000 10.000000 250.000000
      vertex 17.500000 10.000000 235.000000
    endloop
  endfacet
  facet normal 1.000000 -0.000000 0.000000
    outer loop
      vertex 17.500000 11.464466 238.535534
      vertex 17.500000 10.000000 250.000000
      vertex 17.500000 10.380602 236.913417
    endloop
  endfacet
  facet normal 1.000000 0.000000 0.000000
    outer loop
      vertex 17.500000 25.000000 250.000000
      vertex 17.500000 10.000000 250.000000
      vertex 17.500000 11.464466 238.535534
    endloop
  endfacet
  facet normal 1.000000 0.000000 0.000000
    outer loop
      vertex 17.500000 15.000000 240.000000
      vertex 17.500000 16.913417 239.619398
      vertex 17.500000 25.000000 250.000000
    endloop
  endfacet
  facet normal 1.000000 0.000000 0.000000
    outer loop
      vertex 17.500000 25.000000 250.000000
      vertex 17.500000 11.464466 238.535534
      vertex 17.500000 13.086583 239.619398
    endloop
  endfacet
  facet normal 1.000000 0.000000 -0.000000
    outer loop
      vertex 17.500000 20.000000 235.000000
      vertex 17.500000 19.619398 233.086583
      vertex 17.500000 25.000000 215.577350
    endloop
  endfacet
  facet normal 1.000000 0.000000 0.000000
    outer loop
      vertex 17.500000 18.535534 238.535534
      vertex 17.500000 25.000000 250.000000
      vertex 17.500000 16.913417 239.619398
    endloop
  endfacet
  facet normal 1.000000 0.000000 0.000000
    outer loop
      vertex 17.500000 19.619398 236.913417
      vertex 17.500000 25.000000 250.000000
      vertex 17.500000 18.535534 238.535534
    endloop
  endfacet
  facet normal 1.000000 0.000000 0.000000
    outer loop
      vertex 17.500000 25.000000 215.577350
      vertex 17.500000 25.000000 250.000000
      vertex 17.500000 19.619398 236.913417
    endloop
  endfacet
  facet normal 1.000000 0.000000 -0.000000
    outer loop
      vertex 17.500000 19.619398 233.086583
      vertex 17.500000 18.535534 231.464466
      vertex 17.500000 25.000000 215.577350
    endloop
  endfacet
  facet normal 1.000000 0.000000 0.000000
    outer loop
      vertex 17.500000 25.000000 215.577350
      vertex 17.500000 19.619398 236.913417
      vertex 17.500000 20.000000 235.000000
    endloop
  endfacet
  facet normal 1.000000 -0.000000 -0.000000
    outer loop
      vertex 17.500000 15.000000 230.000000
      vertex 17.500000 13.086583 230.380602
      vertex 17.500000 25.000000 215.577350
    endloop
  endfacet
  facet normal 1.000000 0.000000 0.000000
    outer loop
      vertex 17.500000 25.000000 215.577350
      vertex 17.500000 18.535534 231.464466
      vertex 17.500000 16.913417 230.380602
    endloop
  endfacet
  facet normal 1.000000 0.000000 0.000000
    outer loop
      vertex 17.500000 13.086583 230.380602
      vertex 17.500000 18.535534 220.535534
      vertex 17.500000 19.619398 218.913417
    endloop
  endfacet
  facet normal 1.000000 0.000000 0.000000
    outer loop
      vertex 17.500000 25.000000 215.577350
      vertex 17.500000 16.913417 230.380602
      vertex 17.500000 15.000000 230.000000
    endloop
  endfacet
  facet normal 1.000000 0.000000 0.000000
    outer loop
      vertex 17.500000 11.464466 231.464466
      vertex 17.500000 13.917088 221.784596
      vertex 17.500000 14.000000 221.928203
    endloop
  endfacet
  facet normal 1.000000 0.000000 0.000000
    outer loop
      vertex 17.500000 19.619398 218.913417
      vertex 17.500000 25.000000 215.577350
      vertex 17.500000 13.086583 230.380602
    endloop
  endfacet
  facet normal 1.000000 0.000000 0.000000
    outer loop
      vertex 17.500000 15.000000 222.000000
      vertex 17.500000 16.913417 221.619398
      vertex 17.500000 11.464466 231.464466
    endloop
  endfacet
  facet normal 1.000000 0.000000 0.000000
    outer loop
      vertex 17.500000 11.464466 220.535534
      vertex 17.500000 10.380602 233.086583
      vertex 17.500000 10.000000 235.000000
    endloop
  endfacet
  facet normal 1.000000 0.000000 0.000000
    outer loop
      vertex 17.500000 11.464466 220.535534
      vertex 17.500000 13.086583 221.619398
      vertex 17.500000 10.380602 233.086583
    endloop
  endfacet
  facet normal 1.000000 0.000000 0.000000
    outer loop
      vertex 17.500000 13.086583 239.619398
      vertex 17.500000 15.000000 240.000000
      vertex 17.500000 25.000000 250.000000
    endloop
  endfacet
  facet normal 1.000000 0.000000 0.000000
    outer loop
      vertex 17.500000 13.086583 230.380602
      vertex 17.500000 16.913417 221.619398
      vertex 17.500000 18.535534 220.535534
    endloop
  endfacet
  facet normal 1.000000 -0.000000 -0.000000
    outer loop
      vertex 17.500000 13.086583 230.380602
      vertex 17.500000 11.464466 231.464466
      vertex 17.500000 16.913417 221.619398
    endloop
  endfacet
  facet normal 1.000000 0.000000 0.000000
    outer loop
      vertex 17.500000 11.464466 231.464466
      vertex 17.500000 13.086583 221.619398
      vertex 17.500000 13.917088 221.784596
    endloop
  endfacet
  facet normal 1.000000 -0.000000 -0.000000
    outer loop
      vertex 17.500000 11.464466 231.464466
      vertex 17.500000 10.380602 233.086583
      vertex 17.500000 13.086583 221.619398
    endloop
  endfacet
  facet normal 0.000000 0.000000 -1.000000
    outer loop
      vertex 25.000000 25.000000 250.000000
      vertex 25.000000 10.000000 250.000000
      vertex 17.500000 25.000000 250.000000
    endloop
  endfacet
  facet normal 0.000000 0.000000 -1.000000
    outer loop
      vertex 17.500000 25.000000 250.000000
      vertex 25.000000 10.000000 250.000000
      vertex 17.500000 10.000000 250.000000
    endloop
  endfacet
  facet normal 0.000000 1.000000 0.000000
    outer loop
      vertex 17.500000 10.000000 235.000000
      vertex 17.500000 10.000000 250.000000
      vertex 25.000000 10.000000 235.000000
    endloop
  endfacet
  facet normal 0.000000 1.000000 0.000000
    outer loop
      vertex 25.000000 10.000000 235.000000
      vertex 17.500000 10.000000 250.000000
      vertex 25.000000 10.000000 250.000000
    endloop
  endfacet
  facet normal 0.000000 1.000000 0.000000
    outer loop
      vertex 17.500000 10.000000 217.000000
      vertex 17.500000 10.000000 235.000000
      vertex 25.000000 10.000000 217.000000
    endloop
  endfacet
  facet normal 0.000000 1.000000 0.000000
    outer loop
      vertex 25.000000 10.000000 217.000000
      vertex 17.500000 10.000000 235.000000
      vertex 25.000000 10.000000 235.000000
    endloop
  endfacet
  facet normal 0.000000 1.000000 0.000000
    outer loop
      vertex 17.500000 10.000000 215.000000
      vertex 17.500000 10.000000 217.000000
      vertex 25.000000 10.000000 215.000000
    endloop
  endfacet
  facet normal 0.000000 1.000000 0.000000
    outer loop
      vertex 25.000000 10.000000 215.000000
      vertex 17.500000 10.000000 217.000000
      vertex 25.000000 10.000000 217.000000
    endloop
  endfacet
  facet normal 0.000000 1.000000 0.000000
    outer loop
      vertex 17.500000 10.000000 38.080855
      vertex 17.500000 10.000000 215.000000
      vertex 25.000000 10.000000 58.686935
    endloop
  endfacet
  facet normal 0.000000 1.000000 0.000000
    outer loop
      vertex 25.000000 10.000000 58.686935
      vertex 17.500000 10.000000 215.000000
      vertex 25.000000 10.000000 215.000000
    endloop
  endfacet
  facet normal 1.000000 0.000000 -0.000000
    outer loop
      vertex 17.500000 10.000000 215.000000
      vertex 17.500000 10.000000 38.080855
      vertex 17.500000 13.860298 38.080855
    endloop
  endfacet
  facet normal 1.000000 -0.000000 -0.000000
    outer loop
      vertex 17.500000 11.464466 213.464466
      vertex 17.500000 10.000000 215.000000
      vertex 17.500000 25.000000 68.686935
    endloop
  endfacet
  facet normal 1.000000 -0.000000 0.000000
    outer loop
      vertex 17.500000 25.000000 68.686935
      vertex 17.500000 10.000000 215.000000
      vertex 17.500000 13.860298 38.080855
    endloop
  endfacet
  facet normal 1.000000 -0.000000 0.000000
    outer loop
      vertex 17.500000 25.000000 206.339746
      vertex 17.500000 15.145890 212.029019
      vertex 17.500000 25.000000 68.686935
    endloop
  endfacet
  facet normal 1.000000 0.000000 -0.000000
    outer loop
      vertex 17.500000 15.145890 212.029019
      vertex 17.500000 15.000000 212.000000
      vertex 17.500000 25.000000 68.686935
    endloop
  endfacet
  facet normal 1.000000 -0.000000 -0.000000
    outer loop
      vertex 17.500000 15.000000 212.000000
      vertex 17.500000 13.086583 212.380602
      vertex 17.500000 25.000000 68.686935
    endloop
  endfacet
  facet normal 1.000000 -0.000000 -0.000000
    outer loop
      vertex 17.500000 13.086583 212.380602
      vertex 17.500000 11.464466 213.464466
      vertex 17.500000 25.000000 68.686935
    endloop
  endfacet
  facet normal 1.000000 0.000000 0.000000
    outer loop
      vertex 17.500000 11.464466 213.464466
      vertex 17.500000 10.713832 214.587869
      vertex 17.500000 10.000000 215.000000
    endloop
  endfacet
  facet normal 0.000000 1.000000 0.000000
    outer loop
      vertex 7.500000 25.000000 68.686935
      vertex 7.500000 25.000000 206.339746
      vertex 17.500000 25.000000 68.686935
    endloop
  endfacet
  facet normal 0.000000 1.000000 0.000000
    outer loop
      vertex 17.500000 25.000000 68.686935
      vertex 7.500000 25.000000 206.339746
      vertex 17.500000 25.000000 206.339746
    endloop
  endfacet
  facet normal 0.000000 0.500000 0.866025
    outer loop
      vertex 17.500000 15.145890 212.029019
      vertex 17.500000 25.000000 206.339746
      vertex 7.500000 25.000000 206.339746
    endloop
  endfacet
  facet normal 0.000000 0.500000 0.866025
    outer loop
      vertex 7.500000 15.145890 212.029019
      vertex 17.500000 15.145890 212.029019
      vertex 7.500000 25.000000 206.339746
    endloop
  endfacet
  facet normal -0.000000 -0.195090 0.980785
    outer loop
      vertex 17.500000 15.000000 212.000000
      vertex 17.500000 15.145890 212.029019
      vertex 7.500000 15.145890 212.029019
    endloop
  endfacet
  facet normal 0.000000 -0.195090 0.980785
    outer loop
      vertex 7.500000 15.000000 212.000000
      vertex 17.500000 15.000000 212.000000
      vertex 7.500000 15.145890 212.029019
    endloop
  endfacet
  facet normal 0.000000 0.195090 0.980785
    outer loop
      vertex 17.500000 13.086583 212.380602
      vertex 17.500000 15.000000 212.000000
      vertex 7.500000 15.000000 212.000000
    endloop
  endfacet
  facet normal 0.000000 0.195090 0.980785
    outer loop
      vertex 7.500000 13.086583 212.380602
      vertex 17.500000 13.086583 212.380602
      vertex 7.500000 15.000000 212.000000
    endloop
  endfacet
  facet normal 0.000000 0.555570 0.831470
    outer loop
      vertex 17.500000 11.464466 213.464466
      vertex 17.500000 13.086583 212.380602
      vertex 7.500000 13.086583 212.380602
    endloop
  endfacet
  facet normal 0.000000 0.555570 0.831470
    outer loop
      vertex 7.500000 11.464466 213.464466
      vertex 17.500000 11.464466 213.464466
      vertex 7.500000 13.086583 212.380602
    endloop
  endfacet
  facet normal -0.000000 0.831470 0.555570
    outer loop
      vertex 17.500000 11.464466 213.464466
      vertex 7.500000 11.464466 213.464466
      vertex 17.500000 10.713832 214.587869
    endloop
  endfacet
  facet normal -0.000000 0.831470 0.555570
    outer loop
      vertex 17.500000 10.713832 214.587869
      vertex 7.500000 11.464466 213.464466
      vertex 7.500000 10.713832 214.587869
    endloop
  endfacet
  facet normal 1.000000 0.000000 -0.000000
    outer loop
      vertex 17.500000 10.000000 217.000000
      vertex 17.500000 10.000000 215.000000
      vertex 17.500000 10.295884 215.512487
    endloop
  endfacet
  facet normal 0.000000 0.831470 -0.555570
    outer loop
      vertex 17.500000 11.464466 220.535534
      vertex 17.500000 10.380602 218.913417
      vertex 7.500000 11.464466 220.535534
    endloop
  endfacet
  facet normal 0.000000 0.831470 -0.555570
    outer loop
      vertex 7.500000 11.464466 220.535534
      vertex 17.500000 10.380602 218.913417
      vertex 7.500000 10.380602 218.913417
    endloop
  endfacet
  facet normal 0.000000 0.555570 -0.831470
    outer loop
      vertex 17.500000 13.086583 221.619398
      vertex 17.500000 11.464466 220.535534
      vertex 7.500000 13.086583 221.619398
    endloop
  endfacet
  facet normal 0.000000 0.555570 -0.831470
    outer loop
      vertex 7.500000 13.086583 221.619398
      vertex 17.500000 11.464466 220.535534
      vertex 7.500000 11.464466 220.535534
    endloop
  endfacet
  facet normal 0.000000 0.195090 -0.980785
    outer loop
      vertex 17.500000 13.917088 221.784596
      vertex 17.500000 13.086583 221.619398
      vertex 7.500000 13.917088 221.784596
    endloop
  endfacet
  facet normal 0.000000 0.195090 -0.980785
    outer loop
      vertex 7.500000 13.917088 221.784596
      vertex 17.500000 13.086583 221.619398
      vertex 7.500000 13.086583 221.619398
    endloop
  endfacet
  facet normal 0.000000 0.866025 -0.500000
    outer loop
      vertex 17.500000 14.000000 221.928203
      vertex 17.500000 13.917088 221.784596
      vertex 7.500000 14.000000 221.928203
    endloop
  endfacet
  facet normal 0.000000 0.866025 -0.500000
    outer loop
      vertex 7.500000 14.000000 221.928203
      vertex 17.500000 13.917088 221.784596
      vertex 7.500000 13.917088 221.784596
    endloop
  endfacet
  facet normal 0.000000 -0.500000 -0.866025
    outer loop
      vertex 17.500000 14.163753 221.833660
      vertex 17.500000 14.000000 221.928203
      vertex 7.500000 14.163753 221.833660
    endloop
  endfacet
  facet normal 0.000000 -0.500000 -0.866025
    outer loop
      vertex 7.500000 14.163753 221.833660
      vertex 17.500000 14.000000 221.928203
      vertex 7.500000 14.000000 221.928203
    endloop
  endfacet
  facet normal 0.000000 0.195090 -0.980785
    outer loop
      vertex 17.500000 15.000000 222.000000
      vertex 17.500000 14.163753 221.833660
      vertex 7.500000 15.000000 222.000000
    endloop
  endfacet
  facet normal 0.000000 0.195090 -0.980785
    outer loop
      vertex 7.500000 15.000000 222.000000
      vertex 17.500000 14.163753 221.833660
      vertex 7.500000 14.163753 221.833660
    endloop
  endfacet
  facet normal 0.000000 -0.195090 -0.980785
    outer loop
      vertex 17.500000 16.913417 221.619398
      vertex 17.500000 15.000000 222.000000
      vertex 7.500000 16.913417 221.619398
    endloop
  endfacet
  facet normal 0.000000 -0.195090 -0.980785
    outer loop
      vertex 7.500000 16.913417 221.619398
      vertex 17.500000 15.000000 222.000000
      vertex 7.500000 15.000000 222.000000
    endloop
  endfacet
  facet normal 0.000000 -0.555570 -0.831470
    outer loop
      vertex 17.500000 18.535534 220.535534
      vertex 17.500000 16.913417 221.619398
      vertex 7.500000 18.535534 220.535534
    endloop
  endfacet
  facet normal 0.000000 -0.555570 -0.831470
    outer loop
      vertex 7.500000 18.535534 220.535534
      vertex 17.500000 16.913417 221.619398
      vertex 7.500000 16.913417 221.619398
    endloop
  endfacet
  facet normal -0.000000 -0.831470 -0.555570
    outer loop
      vertex 7.500000 19.619398 218.913417
      vertex 17.500000 19.619398 218.913417
      vertex 17.500000 18.535534 220.535534
    endloop
  endfacet
  facet normal -0.000000 -0.831470 -0.555570
    outer loop
      vertex 7.500000 18.535534 220.535534
      vertex 7.500000 19.619398 218.913417
      vertex 17.500000 18.535534 220.535534
    endloop
  endfacet
  facet normal -0.000000 -0.980785 -0.195090
    outer loop
      vertex 7.500000 19.670988 218.654057
      vertex 17.500000 19.670988 218.654057
      vertex 17.500000 19.619398 218.913417
    endloop
  endfacet
  facet normal -0.000000 -0.980785 -0.195090
    outer loop
      vertex 7.500000 19.619398 218.913417
      vertex 7.500000 19.670988 218.654057
      vertex 17.500000 19.619398 218.913417
    endloop
  endfacet
  facet normal 0.000000 0.831470 -0.555570
    outer loop
      vertex 17.500000 11.464466 238.535534
      vertex 17.500000 10.380602 236.913417
      vertex 7.500000 11.464466 238.535534
    endloop
  endfacet
  facet normal 0.000000 0.831470 -0.555570
    outer loop
      vertex 7.500000 11.464466 238.535534
      vertex 17.500000 10.380602 236.913417
      vertex 7.500000 10.380602 236.913417
    endloop
  endfacet
  facet normal 0.000000 0.555570 -0.831470
    outer loop
      vertex 17.500000 13.086583 239.619398
      vertex 17.500000 11.464466 238.535534
      vertex 7.500000 13.086583 239.619398
    endloop
  endfacet
  facet normal 0.000000 0.555570 -0.831470
    outer loop
      vertex 7.500000 13.086583 239.619398
      vertex 17.500000 11.464466 238.535534
      vertex 7.500000 11.464466 238.535534
    endloop
  endfacet
  facet normal 0.000000 0.195090 -0.980785
    outer loop
      vertex 17.500000 15.000000 240.000000
      vertex 17.500000 13.086583 239.619398
      vertex 7.500000 15.000000 240.000000
    endloop
  endfacet
  facet normal 0.000000 0.195090 -0.980785
    outer loop
      vertex 7.500000 15.000000 240.000000
      vertex 17.500000 13.086583 239.619398
      vertex 7.500000 13.086583 239.619398
    endloop
  endfacet
  facet normal 0.000000 -0.195090 -0.980785
    outer loop
      vertex 17.500000 16.913417 239.619398
      vertex 17.500000 15.000000 240.000000
      vertex 7.500000 16.913417 239.619398
    endloop
  endfacet
  facet normal 0.000000 -0.195090 -0.980785
    outer loop
      vertex 7.500000 16.913417 239.619398
      vertex 17.500000 15.000000 240.000000
      vertex 7.500000 15.000000 240.000000
    endloop
  endfacet
  facet normal 0.000000 -0.555570 -0.831470
    outer loop
      vertex 17.500000 18.535534 238.535534
      vertex 17.500000 16.913417 239.619398
      vertex 7.500000 18.535534 238.535534
    endloop
  endfacet
  facet normal 0.000000 -0.555570 -0.831470
    outer loop
      vertex 7.500000 18.535534 238.535534
      vertex 17.500000 16.913417 239.619398
      vertex 7.500000 16.913417 239.619398
    endloop
  endfacet
  facet normal -0.000000 -0.831470 -0.555570
    outer loop
      vertex 7.500000 19.619398 236.913417
      vertex 17.500000 19.619398 236.913417
      vertex 17.500000 18.535534 238.535534
    endloop
  endfacet
  facet normal -0.000000 -0.831470 -0.555570
    outer loop
      vertex 7.500000 18.535534 238.535534
      vertex 7.500000 19.619398 236.913417
      vertex 17.500000 18.535534 238.535534
    endloop
  endfacet
  facet normal -0.000000 -0.980785 -0.195090
    outer loop
      vertex 7.500000 20.000000 235.000000
      vertex 17.500000 20.000000 235.000000
      vertex 17.500000 19.619398 236.913417
    endloop
  endfacet
  facet normal -0.000000 -0.980785 -0.195090
    outer loop
      vertex 7.500000 19.619398 236.913417
      vertex 7.500000 20.000000 235.000000
      vertex 17.500000 19.619398 236.913417
    endloop
  endfacet
  facet normal 0.000000 -0.980785 0.195090
    outer loop
      vertex 17.500000 19.619398 233.086583
      vertex 17.500000 20.000000 235.000000
      vertex 7.500000 20.000000 235.000000
    endloop
  endfacet
  facet normal 0.000000 -0.980785 0.195090
    outer loop
      vertex 7.500000 19.619398 233.086583
      vertex 17.500000 19.619398 233.086583
      vertex 7.500000 20.000000 235.000000
    endloop
  endfacet
  facet normal 0.000000 -0.831470 0.555570
    outer loop
      vertex 17.500000 18.535534 231.464466
      vertex 17.500000 19.619398 233.086583
      vertex 7.500000 19.619398 233.086583
    endloop
  endfacet
  facet normal 0.000000 -0.831470 0.555570
    outer loop
      vertex 7.500000 18.535534 231.464466
      vertex 17.500000 18.535534 231.464466
      vertex 7.500000 19.619398 233.086583
    endloop
  endfacet
  facet normal 0.000000 -0.555570 0.831470
    outer loop
      vertex 17.500000 16.913417 230.380602
      vertex 17.500000 18.535534 231.464466
      vertex 7.500000 18.535534 231.464466
    endloop
  endfacet
  facet normal 0.000000 -0.555570 0.831470
    outer loop
      vertex 7.500000 16.913417 230.380602
      vertex 17.500000 16.913417 230.380602
      vertex 7.500000 18.535534 231.464466
    endloop
  endfacet
  facet normal 0.000000 -0.195090 0.980785
    outer loop
      vertex 17.500000 15.000000 230.000000
      vertex 17.500000 16.913417 230.380602
      vertex 7.500000 16.913417 230.380602
    endloop
  endfacet
  facet normal 0.000000 -0.195090 0.980785
    outer loop
      vertex 7.500000 15.000000 230.000000
      vertex 17.500000 15.000000 230.000000
      vertex 7.500000 16.913417 230.380602
    endloop
  endfacet
  facet normal 0.000000 0.195090 0.980785
    outer loop
      vertex 17.500000 13.086583 230.380602
      vertex 17.500000 15.000000 230.000000
      vertex 7.500000 15.000000 230.000000
    endloop
  endfacet
  facet normal 0.000000 0.195090 0.980785
    outer loop
      vertex 7.500000 13.086583 230.380602
      vertex 17.500000 13.086583 230.380602
      vertex 7.500000 15.000000 230.000000
    endloop
  endfacet
  facet normal 0.000000 0.555570 0.831470
    outer loop
      vertex 17.500000 11.464466 231.464466
      vertex 17.500000 13.086583 230.380602
      vertex 7.500000 13.086583 230.380602
    endloop
  endfacet
  facet normal 0.000000 0.555570 0.831470
    outer loop
      vertex 7.500000 11.464466 231.464466
      vertex 17.500000 11.464466 231.464466
      vertex 7.500000 13.086583 230.380602
    endloop
  endfacet
  facet normal -0.000000 0.831470 0.555570
    outer loop
      vertex 17.500000 11.464466 231.464466
      vertex 7.500000 11.464466 231.464466
      vertex 17.500000 10.380602 233.086583
    endloop
  endfacet
  facet normal -0.000000 0.831470 0.555570
    outer loop
      vertex 17.500000 10.380602 233.086583
      vertex 7.500000 11.464466 231.464466
      vertex 7.500000 10.380602 233.086583
    endloop
  endfacet
endsolid OpenSCAD_Model
